<mxfile host="app.diagrams.net" agent="Mozilla/5.0 (Windows NT 10.0; Win64; x64) AppleWebKit/537.36 (KHTML, like Gecko) Chrome/136.0.0.0 Safari/537.36" version="27.0.6">
  <diagram name="Страница — 1" id="NZqVw3bPNmLYLqP5PNTb">
    <mxGraphModel dx="2123" dy="1883" grid="1" gridSize="10" guides="1" tooltips="1" connect="1" arrows="1" fold="1" page="1" pageScale="1" pageWidth="827" pageHeight="1169" math="0" shadow="0">
      <root>
        <mxCell id="0" />
        <mxCell id="1" parent="0" />
        <mxCell id="c1SwUmAtLZVccJc67YoZ-4" value="Component Diagram" style="swimlane;fillColor=default;" parent="1" vertex="1">
          <mxGeometry x="-100" y="200" width="1070" height="750" as="geometry" />
        </mxCell>
        <mxCell id="c1SwUmAtLZVccJc67YoZ-6" value="Data Import" style="shape=folder;fontStyle=1;tabWidth=110;tabHeight=30;tabPosition=left;html=1;boundedLbl=1;labelInHeader=1;container=1;collapsible=0;whiteSpace=wrap;fillColor=default;" parent="c1SwUmAtLZVccJc67YoZ-4" vertex="1">
          <mxGeometry x="40" y="50" width="414.81" height="280" as="geometry" />
        </mxCell>
        <mxCell id="c1SwUmAtLZVccJc67YoZ-7" value="" style="html=1;strokeColor=none;resizeWidth=1;resizeHeight=1;fillColor=none;part=1;connectable=0;allowArrows=0;deletable=0;whiteSpace=wrap;" parent="c1SwUmAtLZVccJc67YoZ-6" vertex="1">
          <mxGeometry width="414.81000000000006" height="196.00000000000003" relative="1" as="geometry">
            <mxPoint y="30" as="offset" />
          </mxGeometry>
        </mxCell>
        <mxCell id="c1SwUmAtLZVccJc67YoZ-8" value="CSV Loader&lt;br&gt;&amp;lt;&amp;lt;reads local CSV file&amp;gt;&amp;gt;" style="html=1;dropTarget=0;whiteSpace=wrap;" parent="c1SwUmAtLZVccJc67YoZ-6" vertex="1">
          <mxGeometry x="10" y="40" width="160" height="80" as="geometry" />
        </mxCell>
        <mxCell id="c1SwUmAtLZVccJc67YoZ-9" value="" style="shape=module;jettyWidth=8;jettyHeight=4;" parent="c1SwUmAtLZVccJc67YoZ-8" vertex="1">
          <mxGeometry x="1" width="20" height="20" relative="1" as="geometry">
            <mxPoint x="-27" y="7" as="offset" />
          </mxGeometry>
        </mxCell>
        <mxCell id="c1SwUmAtLZVccJc67YoZ-10" value="Data Validator&lt;br&gt;&amp;lt;&amp;lt;validates recieved data&amp;gt;&amp;gt;" style="html=1;dropTarget=0;whiteSpace=wrap;" parent="c1SwUmAtLZVccJc67YoZ-6" vertex="1">
          <mxGeometry x="200" y="160" width="160" height="80" as="geometry" />
        </mxCell>
        <mxCell id="c1SwUmAtLZVccJc67YoZ-11" value="" style="shape=module;jettyWidth=8;jettyHeight=4;" parent="c1SwUmAtLZVccJc67YoZ-10" vertex="1">
          <mxGeometry x="1" width="20" height="20" relative="1" as="geometry">
            <mxPoint x="-27" y="7" as="offset" />
          </mxGeometry>
        </mxCell>
        <mxCell id="c1SwUmAtLZVccJc67YoZ-17" value="" style="rounded=0;orthogonalLoop=1;jettySize=auto;html=1;endArrow=halfCircle;endFill=0;endSize=6;strokeWidth=1;sketch=0;exitX=0.5;exitY=0;exitDx=0;exitDy=0;entryX=0.471;entryY=1.1;entryDx=0;entryDy=0;entryPerimeter=0;" parent="c1SwUmAtLZVccJc67YoZ-6" source="c1SwUmAtLZVccJc67YoZ-10" target="c1SwUmAtLZVccJc67YoZ-19" edge="1">
          <mxGeometry relative="1" as="geometry">
            <mxPoint x="300" y="95" as="sourcePoint" />
            <mxPoint x="280" y="90" as="targetPoint" />
          </mxGeometry>
        </mxCell>
        <mxCell id="c1SwUmAtLZVccJc67YoZ-18" value="" style="rounded=0;orthogonalLoop=1;jettySize=auto;html=1;endArrow=oval;endFill=0;sketch=0;sourcePerimeterSpacing=0;targetPerimeterSpacing=0;endSize=10;exitX=1;exitY=0.5;exitDx=0;exitDy=0;" parent="c1SwUmAtLZVccJc67YoZ-6" source="c1SwUmAtLZVccJc67YoZ-8" target="c1SwUmAtLZVccJc67YoZ-19" edge="1">
          <mxGeometry relative="1" as="geometry">
            <mxPoint x="260" y="95" as="sourcePoint" />
          </mxGeometry>
        </mxCell>
        <mxCell id="c1SwUmAtLZVccJc67YoZ-21" value="Provide raw DataFrame" style="edgeLabel;html=1;align=center;verticalAlign=middle;resizable=0;points=[];" parent="c1SwUmAtLZVccJc67YoZ-18" vertex="1" connectable="0">
          <mxGeometry x="0.1636" relative="1" as="geometry">
            <mxPoint x="46" y="-20" as="offset" />
          </mxGeometry>
        </mxCell>
        <mxCell id="c1SwUmAtLZVccJc67YoZ-19" value="" style="ellipse;whiteSpace=wrap;html=1;align=center;aspect=fixed;fillColor=none;strokeColor=none;resizable=0;perimeter=centerPerimeter;rotatable=0;allowArrows=0;points=[];outlineConnect=1;" parent="c1SwUmAtLZVccJc67YoZ-6" vertex="1">
          <mxGeometry x="275" y="75" width="10" height="10" as="geometry" />
        </mxCell>
        <mxCell id="c1SwUmAtLZVccJc67YoZ-22" value="Cleaning And Preprocessing" style="shape=folder;fontStyle=1;tabWidth=110;tabHeight=30;tabPosition=left;html=1;boundedLbl=1;labelInHeader=1;container=1;collapsible=0;whiteSpace=wrap;" parent="c1SwUmAtLZVccJc67YoZ-4" vertex="1">
          <mxGeometry x="550" y="50" width="414.81" height="280" as="geometry" />
        </mxCell>
        <mxCell id="c1SwUmAtLZVccJc67YoZ-23" value="" style="html=1;strokeColor=none;resizeWidth=1;resizeHeight=1;fillColor=none;part=1;connectable=0;allowArrows=0;deletable=0;whiteSpace=wrap;" parent="c1SwUmAtLZVccJc67YoZ-22" vertex="1">
          <mxGeometry width="414.81000000000006" height="196.00000000000003" relative="1" as="geometry">
            <mxPoint y="30" as="offset" />
          </mxGeometry>
        </mxCell>
        <mxCell id="c1SwUmAtLZVccJc67YoZ-24" value="Data Cleaner&lt;br&gt;&amp;lt;&amp;lt;Filter recieved data&amp;gt;&amp;gt;" style="html=1;dropTarget=0;whiteSpace=wrap;" parent="c1SwUmAtLZVccJc67YoZ-22" vertex="1">
          <mxGeometry x="10" y="110" width="160" height="80" as="geometry" />
        </mxCell>
        <mxCell id="c1SwUmAtLZVccJc67YoZ-25" value="" style="shape=module;jettyWidth=8;jettyHeight=4;" parent="c1SwUmAtLZVccJc67YoZ-24" vertex="1">
          <mxGeometry x="1" width="20" height="20" relative="1" as="geometry">
            <mxPoint x="-27" y="7" as="offset" />
          </mxGeometry>
        </mxCell>
        <mxCell id="c1SwUmAtLZVccJc67YoZ-26" value="Resampler&lt;br&gt;&amp;lt;&amp;lt;Complete aggregation&amp;gt;&amp;gt;" style="html=1;dropTarget=0;whiteSpace=wrap;" parent="c1SwUmAtLZVccJc67YoZ-22" vertex="1">
          <mxGeometry x="240" y="190" width="160" height="80" as="geometry" />
        </mxCell>
        <mxCell id="c1SwUmAtLZVccJc67YoZ-27" value="" style="shape=module;jettyWidth=8;jettyHeight=4;" parent="c1SwUmAtLZVccJc67YoZ-26" vertex="1">
          <mxGeometry x="1" width="20" height="20" relative="1" as="geometry">
            <mxPoint x="-27" y="7" as="offset" />
          </mxGeometry>
        </mxCell>
        <mxCell id="c1SwUmAtLZVccJc67YoZ-28" value="" style="rounded=0;orthogonalLoop=1;jettySize=auto;html=1;endArrow=halfCircle;endFill=0;endSize=6;strokeWidth=1;sketch=0;exitX=0;exitY=0.25;exitDx=0;exitDy=0;entryX=0.471;entryY=1.1;entryDx=0;entryDy=0;entryPerimeter=0;" parent="c1SwUmAtLZVccJc67YoZ-22" source="c1SwUmAtLZVccJc67YoZ-26" target="c1SwUmAtLZVccJc67YoZ-31" edge="1">
          <mxGeometry relative="1" as="geometry">
            <mxPoint x="300" y="95" as="sourcePoint" />
            <mxPoint x="280" y="90" as="targetPoint" />
          </mxGeometry>
        </mxCell>
        <mxCell id="c1SwUmAtLZVccJc67YoZ-32" value="Receive filtered data" style="edgeLabel;html=1;align=center;verticalAlign=middle;resizable=0;points=[];" parent="c1SwUmAtLZVccJc67YoZ-28" vertex="1" connectable="0">
          <mxGeometry x="0.0564" relative="1" as="geometry">
            <mxPoint x="10" y="-37" as="offset" />
          </mxGeometry>
        </mxCell>
        <mxCell id="c1SwUmAtLZVccJc67YoZ-29" value="" style="rounded=0;orthogonalLoop=1;jettySize=auto;html=1;endArrow=oval;endFill=0;sketch=0;sourcePerimeterSpacing=0;targetPerimeterSpacing=0;endSize=10;exitX=1;exitY=0.5;exitDx=0;exitDy=0;" parent="c1SwUmAtLZVccJc67YoZ-22" source="c1SwUmAtLZVccJc67YoZ-24" target="c1SwUmAtLZVccJc67YoZ-31" edge="1">
          <mxGeometry relative="1" as="geometry">
            <mxPoint x="260" y="95" as="sourcePoint" />
          </mxGeometry>
        </mxCell>
        <mxCell id="c1SwUmAtLZVccJc67YoZ-31" value="" style="ellipse;whiteSpace=wrap;html=1;align=center;aspect=fixed;fillColor=none;strokeColor=none;resizable=0;perimeter=centerPerimeter;rotatable=0;allowArrows=0;points=[];outlineConnect=1;" parent="c1SwUmAtLZVccJc67YoZ-22" vertex="1">
          <mxGeometry x="202.41" y="170" width="10" height="10" as="geometry" />
        </mxCell>
        <mxCell id="c1SwUmAtLZVccJc67YoZ-33" value="" style="endArrow=classic;html=1;rounded=0;entryX=0;entryY=0.5;entryDx=0;entryDy=0;exitX=1;exitY=0.5;exitDx=0;exitDy=0;" parent="c1SwUmAtLZVccJc67YoZ-4" source="c1SwUmAtLZVccJc67YoZ-10" target="c1SwUmAtLZVccJc67YoZ-24" edge="1">
          <mxGeometry width="50" height="50" relative="1" as="geometry">
            <mxPoint x="430" y="280" as="sourcePoint" />
            <mxPoint x="480" y="230" as="targetPoint" />
          </mxGeometry>
        </mxCell>
        <mxCell id="c1SwUmAtLZVccJc67YoZ-34" value="Analysis" style="shape=folder;fontStyle=1;tabWidth=110;tabHeight=30;tabPosition=left;html=1;boundedLbl=1;labelInHeader=1;container=1;collapsible=0;whiteSpace=wrap;" parent="c1SwUmAtLZVccJc67YoZ-4" vertex="1">
          <mxGeometry x="20" y="400" width="510" height="280" as="geometry" />
        </mxCell>
        <mxCell id="c1SwUmAtLZVccJc67YoZ-35" value="" style="html=1;strokeColor=none;resizeWidth=1;resizeHeight=1;fillColor=none;part=1;connectable=0;allowArrows=0;deletable=0;whiteSpace=wrap;" parent="c1SwUmAtLZVccJc67YoZ-34" vertex="1">
          <mxGeometry width="510" height="196.00000000000003" relative="1" as="geometry">
            <mxPoint y="30" as="offset" />
          </mxGeometry>
        </mxCell>
        <mxCell id="c1SwUmAtLZVccJc67YoZ-36" value="&lt;div&gt;Statistical&lt;/div&gt;&amp;lt;&amp;lt;Average, Median, etc&amp;gt;&amp;gt;" style="html=1;dropTarget=0;whiteSpace=wrap;" parent="c1SwUmAtLZVccJc67YoZ-34" vertex="1">
          <mxGeometry x="10.102810958578473" y="120" width="161.64497533725557" height="80" as="geometry" />
        </mxCell>
        <mxCell id="c1SwUmAtLZVccJc67YoZ-37" value="" style="shape=module;jettyWidth=8;jettyHeight=4;" parent="c1SwUmAtLZVccJc67YoZ-36" vertex="1">
          <mxGeometry x="1" width="20" height="20" relative="1" as="geometry">
            <mxPoint x="-27" y="7" as="offset" />
          </mxGeometry>
        </mxCell>
        <mxCell id="c1SwUmAtLZVccJc67YoZ-38" value="Time Series&lt;br&gt;&amp;lt;&amp;lt;Trend, Rolling Avr&amp;gt;&amp;gt;" style="html=1;dropTarget=0;whiteSpace=wrap;" parent="c1SwUmAtLZVccJc67YoZ-34" vertex="1">
          <mxGeometry x="181.85059725441255" y="120" width="161.64497533725557" height="80" as="geometry" />
        </mxCell>
        <mxCell id="c1SwUmAtLZVccJc67YoZ-39" value="" style="shape=module;jettyWidth=8;jettyHeight=4;" parent="c1SwUmAtLZVccJc67YoZ-38" vertex="1">
          <mxGeometry x="1" width="20" height="20" relative="1" as="geometry">
            <mxPoint x="-27" y="7" as="offset" />
          </mxGeometry>
        </mxCell>
        <mxCell id="c1SwUmAtLZVccJc67YoZ-54" value="Residual Decomposer&lt;br&gt;&amp;lt;&amp;lt;STL Decomposition&amp;gt;&amp;gt;" style="html=1;dropTarget=0;whiteSpace=wrap;" parent="c1SwUmAtLZVccJc67YoZ-34" vertex="1">
          <mxGeometry x="350" y="120" width="150" height="80" as="geometry" />
        </mxCell>
        <mxCell id="c1SwUmAtLZVccJc67YoZ-55" value="" style="shape=module;jettyWidth=8;jettyHeight=4;" parent="c1SwUmAtLZVccJc67YoZ-54" vertex="1">
          <mxGeometry x="1" width="20" height="20" relative="1" as="geometry">
            <mxPoint x="-27" y="7" as="offset" />
          </mxGeometry>
        </mxCell>
        <mxCell id="c1SwUmAtLZVccJc67YoZ-44" value="Visualization" style="shape=folder;fontStyle=1;tabWidth=110;tabHeight=30;tabPosition=left;html=1;boundedLbl=1;labelInHeader=1;container=1;collapsible=0;whiteSpace=wrap;" parent="c1SwUmAtLZVccJc67YoZ-4" vertex="1">
          <mxGeometry x="630" y="400" width="414.81" height="280" as="geometry" />
        </mxCell>
        <mxCell id="c1SwUmAtLZVccJc67YoZ-45" value="" style="html=1;strokeColor=none;resizeWidth=1;resizeHeight=1;fillColor=none;part=1;connectable=0;allowArrows=0;deletable=0;whiteSpace=wrap;" parent="c1SwUmAtLZVccJc67YoZ-44" vertex="1">
          <mxGeometry width="414.81000000000006" height="196.00000000000003" relative="1" as="geometry">
            <mxPoint y="30" as="offset" />
          </mxGeometry>
        </mxCell>
        <mxCell id="c1SwUmAtLZVccJc67YoZ-46" value="Map Generator&lt;br&gt;&amp;lt;&amp;lt;Create Heat Map&amp;gt;&amp;gt;" style="html=1;dropTarget=0;whiteSpace=wrap;" parent="c1SwUmAtLZVccJc67YoZ-44" vertex="1">
          <mxGeometry x="137" y="50" width="160" height="80" as="geometry" />
        </mxCell>
        <mxCell id="c1SwUmAtLZVccJc67YoZ-47" value="" style="shape=module;jettyWidth=8;jettyHeight=4;" parent="c1SwUmAtLZVccJc67YoZ-46" vertex="1">
          <mxGeometry x="1" width="20" height="20" relative="1" as="geometry">
            <mxPoint x="-27" y="7" as="offset" />
          </mxGeometry>
        </mxCell>
        <mxCell id="c1SwUmAtLZVccJc67YoZ-48" value="Chart Generator&lt;br&gt;&amp;lt;&amp;lt;Generate Plots, Charts&amp;gt;&amp;gt;" style="html=1;dropTarget=0;whiteSpace=wrap;" parent="c1SwUmAtLZVccJc67YoZ-44" vertex="1">
          <mxGeometry x="140" y="170" width="160" height="80" as="geometry" />
        </mxCell>
        <mxCell id="c1SwUmAtLZVccJc67YoZ-49" value="" style="shape=module;jettyWidth=8;jettyHeight=4;" parent="c1SwUmAtLZVccJc67YoZ-48" vertex="1">
          <mxGeometry x="1" width="20" height="20" relative="1" as="geometry">
            <mxPoint x="-27" y="7" as="offset" />
          </mxGeometry>
        </mxCell>
        <mxCell id="c1SwUmAtLZVccJc67YoZ-56" style="edgeStyle=orthogonalEdgeStyle;rounded=0;orthogonalLoop=1;jettySize=auto;html=1;entryX=0.5;entryY=0;entryDx=0;entryDy=0;curved=1;" parent="c1SwUmAtLZVccJc67YoZ-4" source="c1SwUmAtLZVccJc67YoZ-26" target="c1SwUmAtLZVccJc67YoZ-36" edge="1">
          <mxGeometry relative="1" as="geometry">
            <Array as="points">
              <mxPoint x="870" y="350" />
              <mxPoint x="111" y="350" />
            </Array>
          </mxGeometry>
        </mxCell>
        <mxCell id="c1SwUmAtLZVccJc67YoZ-59" value="Aggregated data" style="edgeLabel;html=1;align=center;verticalAlign=middle;resizable=0;points=[];" parent="c1SwUmAtLZVccJc67YoZ-56" vertex="1" connectable="0">
          <mxGeometry x="0.3242" y="25" relative="1" as="geometry">
            <mxPoint as="offset" />
          </mxGeometry>
        </mxCell>
        <mxCell id="c1SwUmAtLZVccJc67YoZ-57" style="edgeStyle=orthogonalEdgeStyle;rounded=0;orthogonalLoop=1;jettySize=auto;html=1;entryX=0.5;entryY=0;entryDx=0;entryDy=0;curved=1;" parent="c1SwUmAtLZVccJc67YoZ-4" source="c1SwUmAtLZVccJc67YoZ-26" target="c1SwUmAtLZVccJc67YoZ-38" edge="1">
          <mxGeometry relative="1" as="geometry">
            <Array as="points">
              <mxPoint x="870" y="370" />
              <mxPoint x="283" y="370" />
            </Array>
          </mxGeometry>
        </mxCell>
        <mxCell id="c1SwUmAtLZVccJc67YoZ-60" value="Data forTime Series" style="edgeLabel;html=1;align=center;verticalAlign=middle;resizable=0;points=[];" parent="c1SwUmAtLZVccJc67YoZ-57" vertex="1" connectable="0">
          <mxGeometry x="0.293" y="18" relative="1" as="geometry">
            <mxPoint as="offset" />
          </mxGeometry>
        </mxCell>
        <mxCell id="c1SwUmAtLZVccJc67YoZ-58" style="edgeStyle=orthogonalEdgeStyle;rounded=0;orthogonalLoop=1;jettySize=auto;html=1;entryX=0.5;entryY=0;entryDx=0;entryDy=0;curved=1;" parent="c1SwUmAtLZVccJc67YoZ-4" source="c1SwUmAtLZVccJc67YoZ-26" target="c1SwUmAtLZVccJc67YoZ-54" edge="1">
          <mxGeometry relative="1" as="geometry">
            <Array as="points">
              <mxPoint x="870" y="380" />
              <mxPoint x="445" y="380" />
            </Array>
          </mxGeometry>
        </mxCell>
        <mxCell id="c1SwUmAtLZVccJc67YoZ-61" value="Data for STL" style="edgeLabel;html=1;align=center;verticalAlign=middle;resizable=0;points=[];" parent="c1SwUmAtLZVccJc67YoZ-58" vertex="1" connectable="0">
          <mxGeometry x="0.2064" y="15" relative="1" as="geometry">
            <mxPoint as="offset" />
          </mxGeometry>
        </mxCell>
        <mxCell id="c1SwUmAtLZVccJc67YoZ-62" style="edgeStyle=orthogonalEdgeStyle;rounded=0;orthogonalLoop=1;jettySize=auto;html=1;entryX=0.5;entryY=1;entryDx=0;entryDy=0;curved=1;" parent="c1SwUmAtLZVccJc67YoZ-4" source="c1SwUmAtLZVccJc67YoZ-36" target="c1SwUmAtLZVccJc67YoZ-48" edge="1">
          <mxGeometry relative="1" as="geometry">
            <Array as="points">
              <mxPoint x="111" y="720" />
              <mxPoint x="850" y="720" />
            </Array>
          </mxGeometry>
        </mxCell>
        <mxCell id="c1SwUmAtLZVccJc67YoZ-63" style="edgeStyle=orthogonalEdgeStyle;rounded=0;orthogonalLoop=1;jettySize=auto;html=1;entryX=0.5;entryY=1;entryDx=0;entryDy=0;curved=1;" parent="c1SwUmAtLZVccJc67YoZ-4" source="c1SwUmAtLZVccJc67YoZ-38" target="c1SwUmAtLZVccJc67YoZ-48" edge="1">
          <mxGeometry relative="1" as="geometry">
            <Array as="points">
              <mxPoint x="283" y="710" />
              <mxPoint x="850" y="710" />
            </Array>
          </mxGeometry>
        </mxCell>
        <mxCell id="c1SwUmAtLZVccJc67YoZ-64" style="edgeStyle=orthogonalEdgeStyle;rounded=0;orthogonalLoop=1;jettySize=auto;html=1;entryX=0.5;entryY=1;entryDx=0;entryDy=0;curved=1;" parent="c1SwUmAtLZVccJc67YoZ-4" source="c1SwUmAtLZVccJc67YoZ-54" target="c1SwUmAtLZVccJc67YoZ-48" edge="1">
          <mxGeometry relative="1" as="geometry">
            <Array as="points">
              <mxPoint x="440" y="700" />
              <mxPoint x="850" y="700" />
            </Array>
          </mxGeometry>
        </mxCell>
        <mxCell id="c1SwUmAtLZVccJc67YoZ-65" style="edgeStyle=orthogonalEdgeStyle;rounded=0;orthogonalLoop=1;jettySize=auto;html=1;curved=1;" parent="c1SwUmAtLZVccJc67YoZ-4" source="c1SwUmAtLZVccJc67YoZ-26" target="c1SwUmAtLZVccJc67YoZ-46" edge="1">
          <mxGeometry relative="1" as="geometry">
            <Array as="points">
              <mxPoint x="870" y="420" />
              <mxPoint x="870" y="420" />
            </Array>
          </mxGeometry>
        </mxCell>
        <mxCell id="c1SwUmAtLZVccJc67YoZ-66" value="Spatial Data" style="edgeLabel;html=1;align=center;verticalAlign=middle;resizable=0;points=[];" parent="c1SwUmAtLZVccJc67YoZ-65" vertex="1" connectable="0">
          <mxGeometry x="-0.0308" y="1" relative="1" as="geometry">
            <mxPoint as="offset" />
          </mxGeometry>
        </mxCell>
        <mxCell id="VtsKrZhrMiqrWmQ-cmWZ-1" value="State Diagram" style="swimlane;fillColor=default;" parent="1" vertex="1">
          <mxGeometry x="1080" y="-420" width="2890" height="1350" as="geometry" />
        </mxCell>
        <mxCell id="6pqvd1AzHX-6ogDIh0My-76" value="" style="edgeStyle=orthogonalEdgeStyle;rounded=0;orthogonalLoop=1;jettySize=auto;html=1;" edge="1" parent="VtsKrZhrMiqrWmQ-cmWZ-1" source="6pqvd1AzHX-6ogDIh0My-74" target="6pqvd1AzHX-6ogDIh0My-75">
          <mxGeometry relative="1" as="geometry" />
        </mxCell>
        <mxCell id="6pqvd1AzHX-6ogDIh0My-77" value="Ready" style="edgeLabel;html=1;align=center;verticalAlign=middle;resizable=0;points=[];" vertex="1" connectable="0" parent="6pqvd1AzHX-6ogDIh0My-76">
          <mxGeometry x="-0.15" y="1" relative="1" as="geometry">
            <mxPoint as="offset" />
          </mxGeometry>
        </mxCell>
        <mxCell id="6pqvd1AzHX-6ogDIh0My-74" value="" style="ellipse;fillColor=strokeColor;html=1;" vertex="1" parent="VtsKrZhrMiqrWmQ-cmWZ-1">
          <mxGeometry x="328" y="50" width="30" height="30" as="geometry" />
        </mxCell>
        <mxCell id="6pqvd1AzHX-6ogDIh0My-79" style="edgeStyle=orthogonalEdgeStyle;rounded=0;orthogonalLoop=1;jettySize=auto;html=1;entryX=0.5;entryY=0;entryDx=0;entryDy=0;" edge="1" parent="VtsKrZhrMiqrWmQ-cmWZ-1" source="6pqvd1AzHX-6ogDIh0My-75" target="6pqvd1AzHX-6ogDIh0My-78">
          <mxGeometry relative="1" as="geometry">
            <Array as="points">
              <mxPoint x="240" y="150" />
            </Array>
          </mxGeometry>
        </mxCell>
        <mxCell id="6pqvd1AzHX-6ogDIh0My-80" value="User selects file" style="edgeLabel;html=1;align=center;verticalAlign=middle;resizable=0;points=[];" vertex="1" connectable="0" parent="6pqvd1AzHX-6ogDIh0My-79">
          <mxGeometry x="0.3451" y="-1" relative="1" as="geometry">
            <mxPoint as="offset" />
          </mxGeometry>
        </mxCell>
        <mxCell id="6pqvd1AzHX-6ogDIh0My-75" value="Module Idle" style="rounded=1;whiteSpace=wrap;html=1;" vertex="1" parent="VtsKrZhrMiqrWmQ-cmWZ-1">
          <mxGeometry x="283" y="120" width="120" height="60" as="geometry" />
        </mxCell>
        <mxCell id="6pqvd1AzHX-6ogDIh0My-83" style="edgeStyle=orthogonalEdgeStyle;rounded=0;orthogonalLoop=1;jettySize=auto;html=1;entryX=0.5;entryY=0;entryDx=0;entryDy=0;" edge="1" parent="VtsKrZhrMiqrWmQ-cmWZ-1" source="6pqvd1AzHX-6ogDIh0My-78" target="6pqvd1AzHX-6ogDIh0My-81">
          <mxGeometry relative="1" as="geometry">
            <Array as="points">
              <mxPoint x="130" y="250" />
            </Array>
          </mxGeometry>
        </mxCell>
        <mxCell id="6pqvd1AzHX-6ogDIh0My-85" value="if exists" style="edgeLabel;html=1;align=center;verticalAlign=middle;resizable=0;points=[];" vertex="1" connectable="0" parent="6pqvd1AzHX-6ogDIh0My-83">
          <mxGeometry x="0.2571" y="4" relative="1" as="geometry">
            <mxPoint as="offset" />
          </mxGeometry>
        </mxCell>
        <mxCell id="6pqvd1AzHX-6ogDIh0My-84" style="edgeStyle=orthogonalEdgeStyle;rounded=0;orthogonalLoop=1;jettySize=auto;html=1;entryX=0.5;entryY=0;entryDx=0;entryDy=0;" edge="1" parent="VtsKrZhrMiqrWmQ-cmWZ-1" source="6pqvd1AzHX-6ogDIh0My-78" target="6pqvd1AzHX-6ogDIh0My-82">
          <mxGeometry relative="1" as="geometry">
            <Array as="points">
              <mxPoint x="320" y="250" />
            </Array>
          </mxGeometry>
        </mxCell>
        <mxCell id="6pqvd1AzHX-6ogDIh0My-86" value="if missing" style="edgeLabel;html=1;align=center;verticalAlign=middle;resizable=0;points=[];" vertex="1" connectable="0" parent="6pqvd1AzHX-6ogDIh0My-84">
          <mxGeometry x="0.1818" y="-3" relative="1" as="geometry">
            <mxPoint as="offset" />
          </mxGeometry>
        </mxCell>
        <mxCell id="6pqvd1AzHX-6ogDIh0My-78" value="Checking Path" style="rounded=1;whiteSpace=wrap;html=1;" vertex="1" parent="VtsKrZhrMiqrWmQ-cmWZ-1">
          <mxGeometry x="180" y="220" width="120" height="60" as="geometry" />
        </mxCell>
        <mxCell id="6pqvd1AzHX-6ogDIh0My-93" style="edgeStyle=orthogonalEdgeStyle;rounded=0;orthogonalLoop=1;jettySize=auto;html=1;entryX=0.5;entryY=0;entryDx=0;entryDy=0;" edge="1" parent="VtsKrZhrMiqrWmQ-cmWZ-1" source="6pqvd1AzHX-6ogDIh0My-81" target="6pqvd1AzHX-6ogDIh0My-89">
          <mxGeometry relative="1" as="geometry" />
        </mxCell>
        <mxCell id="6pqvd1AzHX-6ogDIh0My-94" value="If read complete" style="edgeLabel;html=1;align=center;verticalAlign=middle;resizable=0;points=[];" vertex="1" connectable="0" parent="6pqvd1AzHX-6ogDIh0My-93">
          <mxGeometry x="0.0571" y="2" relative="1" as="geometry">
            <mxPoint as="offset" />
          </mxGeometry>
        </mxCell>
        <mxCell id="6pqvd1AzHX-6ogDIh0My-81" value="Reading data" style="rounded=1;whiteSpace=wrap;html=1;" vertex="1" parent="VtsKrZhrMiqrWmQ-cmWZ-1">
          <mxGeometry x="70" y="340" width="120" height="60" as="geometry" />
        </mxCell>
        <mxCell id="6pqvd1AzHX-6ogDIh0My-110" style="edgeStyle=orthogonalEdgeStyle;rounded=0;orthogonalLoop=1;jettySize=auto;html=1;entryX=0.5;entryY=1;entryDx=0;entryDy=0;" edge="1" parent="VtsKrZhrMiqrWmQ-cmWZ-1" source="6pqvd1AzHX-6ogDIh0My-82" target="6pqvd1AzHX-6ogDIh0My-109">
          <mxGeometry relative="1" as="geometry" />
        </mxCell>
        <mxCell id="6pqvd1AzHX-6ogDIh0My-82" value="Error_NotFound" style="rounded=1;whiteSpace=wrap;html=1;" vertex="1" parent="VtsKrZhrMiqrWmQ-cmWZ-1">
          <mxGeometry x="260" y="340" width="120" height="60" as="geometry" />
        </mxCell>
        <mxCell id="6pqvd1AzHX-6ogDIh0My-99" style="edgeStyle=orthogonalEdgeStyle;rounded=0;orthogonalLoop=1;jettySize=auto;html=1;entryX=0;entryY=0.5;entryDx=0;entryDy=0;" edge="1" parent="VtsKrZhrMiqrWmQ-cmWZ-1" source="6pqvd1AzHX-6ogDIh0My-89" target="6pqvd1AzHX-6ogDIh0My-98">
          <mxGeometry relative="1" as="geometry" />
        </mxCell>
        <mxCell id="6pqvd1AzHX-6ogDIh0My-103" value="If format invalid" style="edgeLabel;html=1;align=center;verticalAlign=middle;resizable=0;points=[];" vertex="1" connectable="0" parent="6pqvd1AzHX-6ogDIh0My-99">
          <mxGeometry x="-0.1059" y="-2" relative="1" as="geometry">
            <mxPoint as="offset" />
          </mxGeometry>
        </mxCell>
        <mxCell id="6pqvd1AzHX-6ogDIh0My-101" style="edgeStyle=orthogonalEdgeStyle;rounded=0;orthogonalLoop=1;jettySize=auto;html=1;" edge="1" parent="VtsKrZhrMiqrWmQ-cmWZ-1" source="6pqvd1AzHX-6ogDIh0My-89" target="6pqvd1AzHX-6ogDIh0My-100">
          <mxGeometry relative="1" as="geometry" />
        </mxCell>
        <mxCell id="6pqvd1AzHX-6ogDIh0My-102" value="If parse OK" style="edgeLabel;html=1;align=center;verticalAlign=middle;resizable=0;points=[];" vertex="1" connectable="0" parent="6pqvd1AzHX-6ogDIh0My-101">
          <mxGeometry x="-0.3" y="5" relative="1" as="geometry">
            <mxPoint as="offset" />
          </mxGeometry>
        </mxCell>
        <mxCell id="6pqvd1AzHX-6ogDIh0My-89" value="Parsing" style="rounded=1;whiteSpace=wrap;html=1;" vertex="1" parent="VtsKrZhrMiqrWmQ-cmWZ-1">
          <mxGeometry x="70" y="470" width="120" height="60" as="geometry" />
        </mxCell>
        <mxCell id="6pqvd1AzHX-6ogDIh0My-112" style="edgeStyle=orthogonalEdgeStyle;rounded=0;orthogonalLoop=1;jettySize=auto;html=1;entryX=0.5;entryY=1;entryDx=0;entryDy=0;" edge="1" parent="VtsKrZhrMiqrWmQ-cmWZ-1" source="6pqvd1AzHX-6ogDIh0My-90" target="6pqvd1AzHX-6ogDIh0My-109">
          <mxGeometry relative="1" as="geometry" />
        </mxCell>
        <mxCell id="6pqvd1AzHX-6ogDIh0My-90" value="Error_Read" style="rounded=1;whiteSpace=wrap;html=1;" vertex="1" parent="VtsKrZhrMiqrWmQ-cmWZ-1">
          <mxGeometry x="238" y="450" width="120" height="60" as="geometry" />
        </mxCell>
        <mxCell id="6pqvd1AzHX-6ogDIh0My-92" style="edgeStyle=orthogonalEdgeStyle;rounded=0;orthogonalLoop=1;jettySize=auto;html=1;entryX=0.117;entryY=-0.017;entryDx=0;entryDy=0;entryPerimeter=0;" edge="1" parent="VtsKrZhrMiqrWmQ-cmWZ-1" source="6pqvd1AzHX-6ogDIh0My-81" target="6pqvd1AzHX-6ogDIh0My-90">
          <mxGeometry relative="1" as="geometry" />
        </mxCell>
        <mxCell id="6pqvd1AzHX-6ogDIh0My-95" value="If read not complete" style="edgeLabel;html=1;align=center;verticalAlign=middle;resizable=0;points=[];" vertex="1" connectable="0" parent="6pqvd1AzHX-6ogDIh0My-92">
          <mxGeometry x="0.6314" relative="1" as="geometry">
            <mxPoint as="offset" />
          </mxGeometry>
        </mxCell>
        <mxCell id="6pqvd1AzHX-6ogDIh0My-113" style="edgeStyle=orthogonalEdgeStyle;rounded=0;orthogonalLoop=1;jettySize=auto;html=1;entryX=0.5;entryY=1;entryDx=0;entryDy=0;" edge="1" parent="VtsKrZhrMiqrWmQ-cmWZ-1" source="6pqvd1AzHX-6ogDIh0My-98" target="6pqvd1AzHX-6ogDIh0My-109">
          <mxGeometry relative="1" as="geometry" />
        </mxCell>
        <mxCell id="6pqvd1AzHX-6ogDIh0My-98" value="Error_Parse" style="rounded=1;whiteSpace=wrap;html=1;" vertex="1" parent="VtsKrZhrMiqrWmQ-cmWZ-1">
          <mxGeometry x="270" y="560" width="120" height="60" as="geometry" />
        </mxCell>
        <mxCell id="6pqvd1AzHX-6ogDIh0My-106" style="edgeStyle=orthogonalEdgeStyle;rounded=0;orthogonalLoop=1;jettySize=auto;html=1;" edge="1" parent="VtsKrZhrMiqrWmQ-cmWZ-1" source="6pqvd1AzHX-6ogDIh0My-100">
          <mxGeometry relative="1" as="geometry">
            <mxPoint x="130" y="700" as="targetPoint" />
          </mxGeometry>
        </mxCell>
        <mxCell id="6pqvd1AzHX-6ogDIh0My-108" value="DataFrame Stored" style="edgeLabel;html=1;align=center;verticalAlign=middle;resizable=0;points=[];" vertex="1" connectable="0" parent="6pqvd1AzHX-6ogDIh0My-106">
          <mxGeometry x="-0.3268" y="-2" relative="1" as="geometry">
            <mxPoint as="offset" />
          </mxGeometry>
        </mxCell>
        <mxCell id="6pqvd1AzHX-6ogDIh0My-100" value="Loaded" style="rounded=1;whiteSpace=wrap;html=1;" vertex="1" parent="VtsKrZhrMiqrWmQ-cmWZ-1">
          <mxGeometry x="70" y="590" width="120" height="60" as="geometry" />
        </mxCell>
        <mxCell id="6pqvd1AzHX-6ogDIh0My-107" value="" style="ellipse;html=1;shape=endState;fillColor=strokeColor;" vertex="1" parent="VtsKrZhrMiqrWmQ-cmWZ-1">
          <mxGeometry x="115" y="700" width="30" height="30" as="geometry" />
        </mxCell>
        <mxCell id="6pqvd1AzHX-6ogDIh0My-114" style="edgeStyle=orthogonalEdgeStyle;rounded=0;orthogonalLoop=1;jettySize=auto;html=1;entryX=1;entryY=0.5;entryDx=0;entryDy=0;" edge="1" parent="VtsKrZhrMiqrWmQ-cmWZ-1" source="6pqvd1AzHX-6ogDIh0My-109" target="6pqvd1AzHX-6ogDIh0My-75">
          <mxGeometry relative="1" as="geometry" />
        </mxCell>
        <mxCell id="6pqvd1AzHX-6ogDIh0My-115" value="Retry" style="edgeLabel;html=1;align=center;verticalAlign=middle;resizable=0;points=[];" vertex="1" connectable="0" parent="6pqvd1AzHX-6ogDIh0My-114">
          <mxGeometry x="-0.1375" y="1" relative="1" as="geometry">
            <mxPoint as="offset" />
          </mxGeometry>
        </mxCell>
        <mxCell id="6pqvd1AzHX-6ogDIh0My-109" value="Notify User" style="rounded=1;whiteSpace=wrap;html=1;" vertex="1" parent="VtsKrZhrMiqrWmQ-cmWZ-1">
          <mxGeometry x="403" y="250" width="120" height="60" as="geometry" />
        </mxCell>
        <mxCell id="6pqvd1AzHX-6ogDIh0My-116" value="Load CSV File" style="text;html=1;align=center;verticalAlign=middle;whiteSpace=wrap;rounded=0;" vertex="1" parent="VtsKrZhrMiqrWmQ-cmWZ-1">
          <mxGeometry x="106" y="50" width="110" height="30" as="geometry" />
        </mxCell>
        <mxCell id="6pqvd1AzHX-6ogDIh0My-117" value="" style="edgeStyle=orthogonalEdgeStyle;rounded=0;orthogonalLoop=1;jettySize=auto;html=1;" edge="1" parent="VtsKrZhrMiqrWmQ-cmWZ-1" source="6pqvd1AzHX-6ogDIh0My-119" target="6pqvd1AzHX-6ogDIh0My-122">
          <mxGeometry relative="1" as="geometry" />
        </mxCell>
        <mxCell id="6pqvd1AzHX-6ogDIh0My-118" value="DataFrame loaded" style="edgeLabel;html=1;align=center;verticalAlign=middle;resizable=0;points=[];" vertex="1" connectable="0" parent="6pqvd1AzHX-6ogDIh0My-117">
          <mxGeometry x="-0.15" y="1" relative="1" as="geometry">
            <mxPoint as="offset" />
          </mxGeometry>
        </mxCell>
        <mxCell id="6pqvd1AzHX-6ogDIh0My-119" value="" style="ellipse;fillColor=strokeColor;html=1;" vertex="1" parent="VtsKrZhrMiqrWmQ-cmWZ-1">
          <mxGeometry x="928" y="50" width="30" height="30" as="geometry" />
        </mxCell>
        <mxCell id="6pqvd1AzHX-6ogDIh0My-120" style="edgeStyle=orthogonalEdgeStyle;rounded=0;orthogonalLoop=1;jettySize=auto;html=1;entryX=0.5;entryY=0;entryDx=0;entryDy=0;" edge="1" parent="VtsKrZhrMiqrWmQ-cmWZ-1" source="6pqvd1AzHX-6ogDIh0My-122" target="6pqvd1AzHX-6ogDIh0My-127">
          <mxGeometry relative="1" as="geometry">
            <Array as="points">
              <mxPoint x="840" y="150" />
            </Array>
          </mxGeometry>
        </mxCell>
        <mxCell id="6pqvd1AzHX-6ogDIh0My-121" value="Start validation" style="edgeLabel;html=1;align=center;verticalAlign=middle;resizable=0;points=[];" vertex="1" connectable="0" parent="6pqvd1AzHX-6ogDIh0My-120">
          <mxGeometry x="0.3451" y="-1" relative="1" as="geometry">
            <mxPoint as="offset" />
          </mxGeometry>
        </mxCell>
        <mxCell id="6pqvd1AzHX-6ogDIh0My-122" value="Module Idle" style="rounded=1;whiteSpace=wrap;html=1;" vertex="1" parent="VtsKrZhrMiqrWmQ-cmWZ-1">
          <mxGeometry x="883" y="120" width="120" height="60" as="geometry" />
        </mxCell>
        <mxCell id="6pqvd1AzHX-6ogDIh0My-123" style="edgeStyle=orthogonalEdgeStyle;rounded=0;orthogonalLoop=1;jettySize=auto;html=1;entryX=0.5;entryY=0;entryDx=0;entryDy=0;" edge="1" parent="VtsKrZhrMiqrWmQ-cmWZ-1" source="6pqvd1AzHX-6ogDIh0My-127" target="6pqvd1AzHX-6ogDIh0My-130">
          <mxGeometry relative="1" as="geometry">
            <Array as="points">
              <mxPoint x="730" y="250" />
            </Array>
          </mxGeometry>
        </mxCell>
        <mxCell id="6pqvd1AzHX-6ogDIh0My-124" value="if columns ok" style="edgeLabel;html=1;align=center;verticalAlign=middle;resizable=0;points=[];" vertex="1" connectable="0" parent="6pqvd1AzHX-6ogDIh0My-123">
          <mxGeometry x="0.2571" y="4" relative="1" as="geometry">
            <mxPoint as="offset" />
          </mxGeometry>
        </mxCell>
        <mxCell id="6pqvd1AzHX-6ogDIh0My-125" style="edgeStyle=orthogonalEdgeStyle;rounded=0;orthogonalLoop=1;jettySize=auto;html=1;entryX=0.5;entryY=0;entryDx=0;entryDy=0;" edge="1" parent="VtsKrZhrMiqrWmQ-cmWZ-1" source="6pqvd1AzHX-6ogDIh0My-127" target="6pqvd1AzHX-6ogDIh0My-132">
          <mxGeometry relative="1" as="geometry">
            <Array as="points">
              <mxPoint x="930" y="250" />
            </Array>
          </mxGeometry>
        </mxCell>
        <mxCell id="6pqvd1AzHX-6ogDIh0My-126" value="if missing" style="edgeLabel;html=1;align=center;verticalAlign=middle;resizable=0;points=[];" vertex="1" connectable="0" parent="6pqvd1AzHX-6ogDIh0My-125">
          <mxGeometry x="0.1818" y="-3" relative="1" as="geometry">
            <mxPoint as="offset" />
          </mxGeometry>
        </mxCell>
        <mxCell id="6pqvd1AzHX-6ogDIh0My-127" value="Checking Columns" style="rounded=1;whiteSpace=wrap;html=1;" vertex="1" parent="VtsKrZhrMiqrWmQ-cmWZ-1">
          <mxGeometry x="780" y="220" width="120" height="60" as="geometry" />
        </mxCell>
        <mxCell id="6pqvd1AzHX-6ogDIh0My-128" style="edgeStyle=orthogonalEdgeStyle;rounded=0;orthogonalLoop=1;jettySize=auto;html=1;entryX=0.5;entryY=0;entryDx=0;entryDy=0;" edge="1" parent="VtsKrZhrMiqrWmQ-cmWZ-1" source="6pqvd1AzHX-6ogDIh0My-130" target="6pqvd1AzHX-6ogDIh0My-137">
          <mxGeometry relative="1" as="geometry" />
        </mxCell>
        <mxCell id="6pqvd1AzHX-6ogDIh0My-129" value="If types OK" style="edgeLabel;html=1;align=center;verticalAlign=middle;resizable=0;points=[];" vertex="1" connectable="0" parent="6pqvd1AzHX-6ogDIh0My-128">
          <mxGeometry x="0.0571" y="2" relative="1" as="geometry">
            <mxPoint as="offset" />
          </mxGeometry>
        </mxCell>
        <mxCell id="6pqvd1AzHX-6ogDIh0My-130" value="Checking Types of each columns" style="rounded=1;whiteSpace=wrap;html=1;" vertex="1" parent="VtsKrZhrMiqrWmQ-cmWZ-1">
          <mxGeometry x="670" y="340" width="120" height="60" as="geometry" />
        </mxCell>
        <mxCell id="6pqvd1AzHX-6ogDIh0My-131" style="edgeStyle=orthogonalEdgeStyle;rounded=0;orthogonalLoop=1;jettySize=auto;html=1;entryX=0.5;entryY=1;entryDx=0;entryDy=0;" edge="1" parent="VtsKrZhrMiqrWmQ-cmWZ-1" source="6pqvd1AzHX-6ogDIh0My-132" target="6pqvd1AzHX-6ogDIh0My-150">
          <mxGeometry relative="1" as="geometry" />
        </mxCell>
        <mxCell id="6pqvd1AzHX-6ogDIh0My-132" value="Error_MissingColumns" style="rounded=1;whiteSpace=wrap;html=1;" vertex="1" parent="VtsKrZhrMiqrWmQ-cmWZ-1">
          <mxGeometry x="860" y="340" width="140" height="60" as="geometry" />
        </mxCell>
        <mxCell id="6pqvd1AzHX-6ogDIh0My-133" style="edgeStyle=orthogonalEdgeStyle;rounded=0;orthogonalLoop=1;jettySize=auto;html=1;entryX=0;entryY=0.5;entryDx=0;entryDy=0;" edge="1" parent="VtsKrZhrMiqrWmQ-cmWZ-1" source="6pqvd1AzHX-6ogDIh0My-137" target="6pqvd1AzHX-6ogDIh0My-143">
          <mxGeometry relative="1" as="geometry" />
        </mxCell>
        <mxCell id="6pqvd1AzHX-6ogDIh0My-134" value="If too many nulls" style="edgeLabel;html=1;align=center;verticalAlign=middle;resizable=0;points=[];" vertex="1" connectable="0" parent="6pqvd1AzHX-6ogDIh0My-133">
          <mxGeometry x="-0.1059" y="-2" relative="1" as="geometry">
            <mxPoint x="10" y="4" as="offset" />
          </mxGeometry>
        </mxCell>
        <mxCell id="6pqvd1AzHX-6ogDIh0My-135" style="edgeStyle=orthogonalEdgeStyle;rounded=0;orthogonalLoop=1;jettySize=auto;html=1;" edge="1" parent="VtsKrZhrMiqrWmQ-cmWZ-1" source="6pqvd1AzHX-6ogDIh0My-137" target="6pqvd1AzHX-6ogDIh0My-146">
          <mxGeometry relative="1" as="geometry" />
        </mxCell>
        <mxCell id="6pqvd1AzHX-6ogDIh0My-136" value="If null fraction acceptable" style="edgeLabel;html=1;align=center;verticalAlign=middle;resizable=0;points=[];" vertex="1" connectable="0" parent="6pqvd1AzHX-6ogDIh0My-135">
          <mxGeometry x="-0.3" y="5" relative="1" as="geometry">
            <mxPoint x="-5" y="9" as="offset" />
          </mxGeometry>
        </mxCell>
        <mxCell id="6pqvd1AzHX-6ogDIh0My-137" value="Checking for nulls in key columns" style="rounded=1;whiteSpace=wrap;html=1;" vertex="1" parent="VtsKrZhrMiqrWmQ-cmWZ-1">
          <mxGeometry x="670" y="470" width="120" height="60" as="geometry" />
        </mxCell>
        <mxCell id="6pqvd1AzHX-6ogDIh0My-138" style="edgeStyle=orthogonalEdgeStyle;rounded=0;orthogonalLoop=1;jettySize=auto;html=1;entryX=0.5;entryY=1;entryDx=0;entryDy=0;" edge="1" parent="VtsKrZhrMiqrWmQ-cmWZ-1" source="6pqvd1AzHX-6ogDIh0My-139" target="6pqvd1AzHX-6ogDIh0My-150">
          <mxGeometry relative="1" as="geometry" />
        </mxCell>
        <mxCell id="6pqvd1AzHX-6ogDIh0My-139" value="Error_BadType" style="rounded=1;whiteSpace=wrap;html=1;" vertex="1" parent="VtsKrZhrMiqrWmQ-cmWZ-1">
          <mxGeometry x="838" y="450" width="120" height="60" as="geometry" />
        </mxCell>
        <mxCell id="6pqvd1AzHX-6ogDIh0My-140" style="edgeStyle=orthogonalEdgeStyle;rounded=0;orthogonalLoop=1;jettySize=auto;html=1;entryX=0.117;entryY=-0.017;entryDx=0;entryDy=0;entryPerimeter=0;" edge="1" parent="VtsKrZhrMiqrWmQ-cmWZ-1" source="6pqvd1AzHX-6ogDIh0My-130" target="6pqvd1AzHX-6ogDIh0My-139">
          <mxGeometry relative="1" as="geometry" />
        </mxCell>
        <mxCell id="6pqvd1AzHX-6ogDIh0My-141" value="If any type mismatch" style="edgeLabel;html=1;align=center;verticalAlign=middle;resizable=0;points=[];" vertex="1" connectable="0" parent="6pqvd1AzHX-6ogDIh0My-140">
          <mxGeometry x="0.6314" relative="1" as="geometry">
            <mxPoint as="offset" />
          </mxGeometry>
        </mxCell>
        <mxCell id="6pqvd1AzHX-6ogDIh0My-142" style="edgeStyle=orthogonalEdgeStyle;rounded=0;orthogonalLoop=1;jettySize=auto;html=1;entryX=0.5;entryY=1;entryDx=0;entryDy=0;" edge="1" parent="VtsKrZhrMiqrWmQ-cmWZ-1" source="6pqvd1AzHX-6ogDIh0My-143" target="6pqvd1AzHX-6ogDIh0My-150">
          <mxGeometry relative="1" as="geometry" />
        </mxCell>
        <mxCell id="6pqvd1AzHX-6ogDIh0My-143" value="Error_Nulls" style="rounded=1;whiteSpace=wrap;html=1;" vertex="1" parent="VtsKrZhrMiqrWmQ-cmWZ-1">
          <mxGeometry x="870" y="560" width="120" height="60" as="geometry" />
        </mxCell>
        <mxCell id="6pqvd1AzHX-6ogDIh0My-144" style="edgeStyle=orthogonalEdgeStyle;rounded=0;orthogonalLoop=1;jettySize=auto;html=1;" edge="1" parent="VtsKrZhrMiqrWmQ-cmWZ-1" source="6pqvd1AzHX-6ogDIh0My-146">
          <mxGeometry relative="1" as="geometry">
            <mxPoint x="730" y="700" as="targetPoint" />
          </mxGeometry>
        </mxCell>
        <mxCell id="6pqvd1AzHX-6ogDIh0My-145" value="DataFrame validated and ready for cleaning" style="edgeLabel;html=1;align=center;verticalAlign=middle;resizable=0;points=[];" vertex="1" connectable="0" parent="6pqvd1AzHX-6ogDIh0My-144">
          <mxGeometry x="-0.3268" y="-2" relative="1" as="geometry">
            <mxPoint as="offset" />
          </mxGeometry>
        </mxCell>
        <mxCell id="6pqvd1AzHX-6ogDIh0My-146" value="Validated" style="rounded=1;whiteSpace=wrap;html=1;" vertex="1" parent="VtsKrZhrMiqrWmQ-cmWZ-1">
          <mxGeometry x="670" y="590" width="120" height="60" as="geometry" />
        </mxCell>
        <mxCell id="6pqvd1AzHX-6ogDIh0My-147" value="" style="ellipse;html=1;shape=endState;fillColor=strokeColor;" vertex="1" parent="VtsKrZhrMiqrWmQ-cmWZ-1">
          <mxGeometry x="715" y="700" width="30" height="30" as="geometry" />
        </mxCell>
        <mxCell id="6pqvd1AzHX-6ogDIh0My-148" style="edgeStyle=orthogonalEdgeStyle;rounded=0;orthogonalLoop=1;jettySize=auto;html=1;entryX=1;entryY=0.5;entryDx=0;entryDy=0;" edge="1" parent="VtsKrZhrMiqrWmQ-cmWZ-1" source="6pqvd1AzHX-6ogDIh0My-150" target="6pqvd1AzHX-6ogDIh0My-122">
          <mxGeometry relative="1" as="geometry" />
        </mxCell>
        <mxCell id="6pqvd1AzHX-6ogDIh0My-149" value="User fix file and retry" style="edgeLabel;html=1;align=center;verticalAlign=middle;resizable=0;points=[];" vertex="1" connectable="0" parent="6pqvd1AzHX-6ogDIh0My-148">
          <mxGeometry x="-0.1375" y="1" relative="1" as="geometry">
            <mxPoint as="offset" />
          </mxGeometry>
        </mxCell>
        <mxCell id="6pqvd1AzHX-6ogDIh0My-150" value="Notify User" style="rounded=1;whiteSpace=wrap;html=1;" vertex="1" parent="VtsKrZhrMiqrWmQ-cmWZ-1">
          <mxGeometry x="1003" y="280" width="120" height="60" as="geometry" />
        </mxCell>
        <mxCell id="6pqvd1AzHX-6ogDIh0My-151" value="Validate Schema" style="text;html=1;align=center;verticalAlign=middle;whiteSpace=wrap;rounded=0;" vertex="1" parent="VtsKrZhrMiqrWmQ-cmWZ-1">
          <mxGeometry x="706" y="50" width="110" height="30" as="geometry" />
        </mxCell>
        <mxCell id="6pqvd1AzHX-6ogDIh0My-154" value="" style="edgeStyle=orthogonalEdgeStyle;rounded=0;orthogonalLoop=1;jettySize=auto;html=1;" edge="1" parent="VtsKrZhrMiqrWmQ-cmWZ-1" source="6pqvd1AzHX-6ogDIh0My-156" target="6pqvd1AzHX-6ogDIh0My-159">
          <mxGeometry relative="1" as="geometry" />
        </mxCell>
        <mxCell id="6pqvd1AzHX-6ogDIh0My-155" value="Validated DataFrame loaded" style="edgeLabel;html=1;align=center;verticalAlign=middle;resizable=0;points=[];" vertex="1" connectable="0" parent="6pqvd1AzHX-6ogDIh0My-154">
          <mxGeometry x="-0.15" y="1" relative="1" as="geometry">
            <mxPoint as="offset" />
          </mxGeometry>
        </mxCell>
        <mxCell id="6pqvd1AzHX-6ogDIh0My-156" value="" style="ellipse;fillColor=strokeColor;html=1;" vertex="1" parent="VtsKrZhrMiqrWmQ-cmWZ-1">
          <mxGeometry x="1432" y="50" width="30" height="30" as="geometry" />
        </mxCell>
        <mxCell id="6pqvd1AzHX-6ogDIh0My-157" style="edgeStyle=orthogonalEdgeStyle;rounded=0;orthogonalLoop=1;jettySize=auto;html=1;entryX=0.5;entryY=0;entryDx=0;entryDy=0;" edge="1" parent="VtsKrZhrMiqrWmQ-cmWZ-1" source="6pqvd1AzHX-6ogDIh0My-159" target="6pqvd1AzHX-6ogDIh0My-164">
          <mxGeometry relative="1" as="geometry">
            <Array as="points">
              <mxPoint x="1284" y="150" />
            </Array>
          </mxGeometry>
        </mxCell>
        <mxCell id="6pqvd1AzHX-6ogDIh0My-158" value="Start Cleaning" style="edgeLabel;html=1;align=center;verticalAlign=middle;resizable=0;points=[];" vertex="1" connectable="0" parent="6pqvd1AzHX-6ogDIh0My-157">
          <mxGeometry x="0.3451" y="-1" relative="1" as="geometry">
            <mxPoint as="offset" />
          </mxGeometry>
        </mxCell>
        <mxCell id="6pqvd1AzHX-6ogDIh0My-159" value="Module Idle" style="rounded=1;whiteSpace=wrap;html=1;" vertex="1" parent="VtsKrZhrMiqrWmQ-cmWZ-1">
          <mxGeometry x="1387" y="120" width="120" height="60" as="geometry" />
        </mxCell>
        <mxCell id="6pqvd1AzHX-6ogDIh0My-160" style="edgeStyle=orthogonalEdgeStyle;rounded=0;orthogonalLoop=1;jettySize=auto;html=1;entryX=0.5;entryY=0;entryDx=0;entryDy=0;" edge="1" parent="VtsKrZhrMiqrWmQ-cmWZ-1" source="6pqvd1AzHX-6ogDIh0My-164" target="6pqvd1AzHX-6ogDIh0My-167">
          <mxGeometry relative="1" as="geometry">
            <Array as="points">
              <mxPoint x="1284" y="250" />
            </Array>
          </mxGeometry>
        </mxCell>
        <mxCell id="6pqvd1AzHX-6ogDIh0My-161" value="Select only needed columns" style="edgeLabel;html=1;align=center;verticalAlign=middle;resizable=0;points=[];" vertex="1" connectable="0" parent="6pqvd1AzHX-6ogDIh0My-160">
          <mxGeometry x="0.2571" y="4" relative="1" as="geometry">
            <mxPoint as="offset" />
          </mxGeometry>
        </mxCell>
        <mxCell id="6pqvd1AzHX-6ogDIh0My-164" value="RemoveDuplicates" style="rounded=1;whiteSpace=wrap;html=1;" vertex="1" parent="VtsKrZhrMiqrWmQ-cmWZ-1">
          <mxGeometry x="1224" y="210" width="120" height="60" as="geometry" />
        </mxCell>
        <mxCell id="6pqvd1AzHX-6ogDIh0My-165" style="edgeStyle=orthogonalEdgeStyle;rounded=0;orthogonalLoop=1;jettySize=auto;html=1;entryX=0.5;entryY=0;entryDx=0;entryDy=0;" edge="1" parent="VtsKrZhrMiqrWmQ-cmWZ-1" source="6pqvd1AzHX-6ogDIh0My-167" target="6pqvd1AzHX-6ogDIh0My-174">
          <mxGeometry relative="1" as="geometry" />
        </mxCell>
        <mxCell id="6pqvd1AzHX-6ogDIh0My-166" value="Remove negative and NaN values" style="edgeLabel;html=1;align=center;verticalAlign=middle;resizable=0;points=[];" vertex="1" connectable="0" parent="6pqvd1AzHX-6ogDIh0My-165">
          <mxGeometry x="0.0571" y="2" relative="1" as="geometry">
            <mxPoint as="offset" />
          </mxGeometry>
        </mxCell>
        <mxCell id="6pqvd1AzHX-6ogDIh0My-167" value="FilterColumns" style="rounded=1;whiteSpace=wrap;html=1;" vertex="1" parent="VtsKrZhrMiqrWmQ-cmWZ-1">
          <mxGeometry x="1224" y="340" width="120" height="60" as="geometry" />
        </mxCell>
        <mxCell id="6pqvd1AzHX-6ogDIh0My-172" style="edgeStyle=orthogonalEdgeStyle;rounded=0;orthogonalLoop=1;jettySize=auto;html=1;" edge="1" parent="VtsKrZhrMiqrWmQ-cmWZ-1" source="6pqvd1AzHX-6ogDIh0My-174" target="6pqvd1AzHX-6ogDIh0My-183">
          <mxGeometry relative="1" as="geometry" />
        </mxCell>
        <mxCell id="6pqvd1AzHX-6ogDIh0My-173" value="If null fraction acceptable" style="edgeLabel;html=1;align=center;verticalAlign=middle;resizable=0;points=[];" vertex="1" connectable="0" parent="6pqvd1AzHX-6ogDIh0My-172">
          <mxGeometry x="-0.3" y="5" relative="1" as="geometry">
            <mxPoint x="-5" y="9" as="offset" />
          </mxGeometry>
        </mxCell>
        <mxCell id="6pqvd1AzHX-6ogDIh0My-174" value="DropInvalid" style="rounded=1;whiteSpace=wrap;html=1;" vertex="1" parent="VtsKrZhrMiqrWmQ-cmWZ-1">
          <mxGeometry x="1224" y="470" width="120" height="60" as="geometry" />
        </mxCell>
        <mxCell id="6pqvd1AzHX-6ogDIh0My-179" style="edgeStyle=orthogonalEdgeStyle;rounded=0;orthogonalLoop=1;jettySize=auto;html=1;entryX=0;entryY=0.5;entryDx=0;entryDy=0;" edge="1" parent="VtsKrZhrMiqrWmQ-cmWZ-1" source="6pqvd1AzHX-6ogDIh0My-180" target="6pqvd1AzHX-6ogDIh0My-187">
          <mxGeometry relative="1" as="geometry">
            <Array as="points">
              <mxPoint x="1460" y="310" />
            </Array>
          </mxGeometry>
        </mxCell>
        <mxCell id="6pqvd1AzHX-6ogDIh0My-180" value="Error_Clean" style="rounded=1;whiteSpace=wrap;html=1;" vertex="1" parent="VtsKrZhrMiqrWmQ-cmWZ-1">
          <mxGeometry x="1400" y="400" width="120" height="60" as="geometry" />
        </mxCell>
        <mxCell id="6pqvd1AzHX-6ogDIh0My-189" style="edgeStyle=orthogonalEdgeStyle;rounded=0;orthogonalLoop=1;jettySize=auto;html=1;entryX=0.5;entryY=1;entryDx=0;entryDy=0;" edge="1" parent="VtsKrZhrMiqrWmQ-cmWZ-1" source="6pqvd1AzHX-6ogDIh0My-183" target="6pqvd1AzHX-6ogDIh0My-180">
          <mxGeometry relative="1" as="geometry" />
        </mxCell>
        <mxCell id="6pqvd1AzHX-6ogDIh0My-191" value="If no rows remain" style="edgeLabel;html=1;align=center;verticalAlign=middle;resizable=0;points=[];" vertex="1" connectable="0" parent="6pqvd1AzHX-6ogDIh0My-189">
          <mxGeometry x="-0.3802" y="2" relative="1" as="geometry">
            <mxPoint as="offset" />
          </mxGeometry>
        </mxCell>
        <mxCell id="6pqvd1AzHX-6ogDIh0My-193" style="edgeStyle=orthogonalEdgeStyle;rounded=0;orthogonalLoop=1;jettySize=auto;html=1;entryX=0.5;entryY=0;entryDx=0;entryDy=0;" edge="1" parent="VtsKrZhrMiqrWmQ-cmWZ-1" source="6pqvd1AzHX-6ogDIh0My-183" target="6pqvd1AzHX-6ogDIh0My-192">
          <mxGeometry relative="1" as="geometry" />
        </mxCell>
        <mxCell id="6pqvd1AzHX-6ogDIh0My-194" value="Cleaning Complete" style="edgeLabel;html=1;align=center;verticalAlign=middle;resizable=0;points=[];" vertex="1" connectable="0" parent="6pqvd1AzHX-6ogDIh0My-193">
          <mxGeometry x="-0.2" y="-1" relative="1" as="geometry">
            <mxPoint as="offset" />
          </mxGeometry>
        </mxCell>
        <mxCell id="6pqvd1AzHX-6ogDIh0My-183" value="Normalize Types" style="rounded=1;whiteSpace=wrap;html=1;" vertex="1" parent="VtsKrZhrMiqrWmQ-cmWZ-1">
          <mxGeometry x="1224" y="590" width="120" height="60" as="geometry" />
        </mxCell>
        <mxCell id="6pqvd1AzHX-6ogDIh0My-185" style="edgeStyle=orthogonalEdgeStyle;rounded=0;orthogonalLoop=1;jettySize=auto;html=1;entryX=1;entryY=0.5;entryDx=0;entryDy=0;" edge="1" parent="VtsKrZhrMiqrWmQ-cmWZ-1" source="6pqvd1AzHX-6ogDIh0My-187" target="6pqvd1AzHX-6ogDIh0My-159">
          <mxGeometry relative="1" as="geometry" />
        </mxCell>
        <mxCell id="6pqvd1AzHX-6ogDIh0My-186" value="Abort" style="edgeLabel;html=1;align=center;verticalAlign=middle;resizable=0;points=[];" vertex="1" connectable="0" parent="6pqvd1AzHX-6ogDIh0My-185">
          <mxGeometry x="-0.1375" y="1" relative="1" as="geometry">
            <mxPoint as="offset" />
          </mxGeometry>
        </mxCell>
        <mxCell id="6pqvd1AzHX-6ogDIh0My-187" value="Notify User" style="rounded=1;whiteSpace=wrap;html=1;" vertex="1" parent="VtsKrZhrMiqrWmQ-cmWZ-1">
          <mxGeometry x="1507" y="280" width="120" height="60" as="geometry" />
        </mxCell>
        <mxCell id="6pqvd1AzHX-6ogDIh0My-188" value="Clean and Resample" style="text;html=1;align=center;verticalAlign=middle;whiteSpace=wrap;rounded=0;" vertex="1" parent="VtsKrZhrMiqrWmQ-cmWZ-1">
          <mxGeometry x="1210" y="50" width="110" height="30" as="geometry" />
        </mxCell>
        <mxCell id="6pqvd1AzHX-6ogDIh0My-196" style="edgeStyle=orthogonalEdgeStyle;rounded=0;orthogonalLoop=1;jettySize=auto;html=1;" edge="1" parent="VtsKrZhrMiqrWmQ-cmWZ-1" source="6pqvd1AzHX-6ogDIh0My-192" target="6pqvd1AzHX-6ogDIh0My-195">
          <mxGeometry relative="1" as="geometry" />
        </mxCell>
        <mxCell id="6pqvd1AzHX-6ogDIh0My-197" value="Begin Resampling" style="edgeLabel;html=1;align=center;verticalAlign=middle;resizable=0;points=[];" vertex="1" connectable="0" parent="6pqvd1AzHX-6ogDIh0My-196">
          <mxGeometry x="-0.0444" y="-2" relative="1" as="geometry">
            <mxPoint as="offset" />
          </mxGeometry>
        </mxCell>
        <mxCell id="6pqvd1AzHX-6ogDIh0My-192" value="Cleaned" style="rounded=1;whiteSpace=wrap;html=1;" vertex="1" parent="VtsKrZhrMiqrWmQ-cmWZ-1">
          <mxGeometry x="1224" y="700" width="120" height="60" as="geometry" />
        </mxCell>
        <mxCell id="6pqvd1AzHX-6ogDIh0My-199" style="edgeStyle=orthogonalEdgeStyle;rounded=0;orthogonalLoop=1;jettySize=auto;html=1;entryX=0.5;entryY=0;entryDx=0;entryDy=0;" edge="1" parent="VtsKrZhrMiqrWmQ-cmWZ-1" source="6pqvd1AzHX-6ogDIh0My-195" target="6pqvd1AzHX-6ogDIh0My-198">
          <mxGeometry relative="1" as="geometry" />
        </mxCell>
        <mxCell id="6pqvd1AzHX-6ogDIh0My-195" value="Start Resample" style="rounded=1;whiteSpace=wrap;html=1;" vertex="1" parent="VtsKrZhrMiqrWmQ-cmWZ-1">
          <mxGeometry x="1224" y="830" width="120" height="60" as="geometry" />
        </mxCell>
        <mxCell id="6pqvd1AzHX-6ogDIh0My-203" style="edgeStyle=orthogonalEdgeStyle;rounded=0;orthogonalLoop=1;jettySize=auto;html=1;entryX=0.5;entryY=0;entryDx=0;entryDy=0;" edge="1" parent="VtsKrZhrMiqrWmQ-cmWZ-1" source="6pqvd1AzHX-6ogDIh0My-198" target="6pqvd1AzHX-6ogDIh0My-200">
          <mxGeometry relative="1" as="geometry" />
        </mxCell>
        <mxCell id="6pqvd1AzHX-6ogDIh0My-204" value="Interpolate missing timestamps" style="edgeLabel;html=1;align=center;verticalAlign=middle;resizable=0;points=[];" vertex="1" connectable="0" parent="6pqvd1AzHX-6ogDIh0My-203">
          <mxGeometry x="-0.1309" y="2" relative="1" as="geometry">
            <mxPoint as="offset" />
          </mxGeometry>
        </mxCell>
        <mxCell id="6pqvd1AzHX-6ogDIh0My-198" value="Resample Data" style="rounded=1;whiteSpace=wrap;html=1;" vertex="1" parent="VtsKrZhrMiqrWmQ-cmWZ-1">
          <mxGeometry x="1224" y="945" width="120" height="60" as="geometry" />
        </mxCell>
        <mxCell id="6pqvd1AzHX-6ogDIh0My-202" style="edgeStyle=orthogonalEdgeStyle;rounded=0;orthogonalLoop=1;jettySize=auto;html=1;" edge="1" parent="VtsKrZhrMiqrWmQ-cmWZ-1" source="6pqvd1AzHX-6ogDIh0My-200" target="6pqvd1AzHX-6ogDIh0My-201">
          <mxGeometry relative="1" as="geometry" />
        </mxCell>
        <mxCell id="6pqvd1AzHX-6ogDIh0My-206" value="If interpolation fails" style="edgeLabel;html=1;align=center;verticalAlign=middle;resizable=0;points=[];" vertex="1" connectable="0" parent="6pqvd1AzHX-6ogDIh0My-202">
          <mxGeometry x="-0.1915" y="3" relative="1" as="geometry">
            <mxPoint x="-1" as="offset" />
          </mxGeometry>
        </mxCell>
        <mxCell id="6pqvd1AzHX-6ogDIh0My-209" style="edgeStyle=orthogonalEdgeStyle;rounded=0;orthogonalLoop=1;jettySize=auto;html=1;entryX=0.5;entryY=0;entryDx=0;entryDy=0;" edge="1" parent="VtsKrZhrMiqrWmQ-cmWZ-1" source="6pqvd1AzHX-6ogDIh0My-200" target="6pqvd1AzHX-6ogDIh0My-208">
          <mxGeometry relative="1" as="geometry" />
        </mxCell>
        <mxCell id="6pqvd1AzHX-6ogDIh0My-210" value="Resample OK" style="edgeLabel;html=1;align=center;verticalAlign=middle;resizable=0;points=[];" vertex="1" connectable="0" parent="6pqvd1AzHX-6ogDIh0My-209">
          <mxGeometry x="-0.1056" y="-1" relative="1" as="geometry">
            <mxPoint as="offset" />
          </mxGeometry>
        </mxCell>
        <mxCell id="6pqvd1AzHX-6ogDIh0My-200" value="Fill Gaps" style="rounded=1;whiteSpace=wrap;html=1;" vertex="1" parent="VtsKrZhrMiqrWmQ-cmWZ-1">
          <mxGeometry x="1224" y="1050" width="120" height="60" as="geometry" />
        </mxCell>
        <mxCell id="6pqvd1AzHX-6ogDIh0My-205" style="edgeStyle=orthogonalEdgeStyle;rounded=0;orthogonalLoop=1;jettySize=auto;html=1;entryX=1;entryY=0.5;entryDx=0;entryDy=0;" edge="1" parent="VtsKrZhrMiqrWmQ-cmWZ-1" source="6pqvd1AzHX-6ogDIh0My-201" target="6pqvd1AzHX-6ogDIh0My-192">
          <mxGeometry relative="1" as="geometry">
            <Array as="points">
              <mxPoint x="1520" y="730" />
            </Array>
          </mxGeometry>
        </mxCell>
        <mxCell id="6pqvd1AzHX-6ogDIh0My-207" value="Fallback to cleaned data" style="edgeLabel;html=1;align=center;verticalAlign=middle;resizable=0;points=[];" vertex="1" connectable="0" parent="6pqvd1AzHX-6ogDIh0My-205">
          <mxGeometry x="-0.5853" y="4" relative="1" as="geometry">
            <mxPoint as="offset" />
          </mxGeometry>
        </mxCell>
        <mxCell id="6pqvd1AzHX-6ogDIh0My-201" value="Error_Resample" style="rounded=1;whiteSpace=wrap;html=1;" vertex="1" parent="VtsKrZhrMiqrWmQ-cmWZ-1">
          <mxGeometry x="1460" y="950" width="120" height="60" as="geometry" />
        </mxCell>
        <mxCell id="6pqvd1AzHX-6ogDIh0My-212" style="edgeStyle=orthogonalEdgeStyle;rounded=0;orthogonalLoop=1;jettySize=auto;html=1;entryX=0.5;entryY=0;entryDx=0;entryDy=0;" edge="1" parent="VtsKrZhrMiqrWmQ-cmWZ-1" source="6pqvd1AzHX-6ogDIh0My-208" target="6pqvd1AzHX-6ogDIh0My-211">
          <mxGeometry relative="1" as="geometry" />
        </mxCell>
        <mxCell id="6pqvd1AzHX-6ogDIh0My-213" value="Ready for analysis" style="edgeLabel;html=1;align=center;verticalAlign=middle;resizable=0;points=[];" vertex="1" connectable="0" parent="6pqvd1AzHX-6ogDIh0My-212">
          <mxGeometry x="0.0508" y="3" relative="1" as="geometry">
            <mxPoint as="offset" />
          </mxGeometry>
        </mxCell>
        <mxCell id="6pqvd1AzHX-6ogDIh0My-208" value="Resampled" style="rounded=1;whiteSpace=wrap;html=1;" vertex="1" parent="VtsKrZhrMiqrWmQ-cmWZ-1">
          <mxGeometry x="1224" y="1150" width="120" height="60" as="geometry" />
        </mxCell>
        <mxCell id="6pqvd1AzHX-6ogDIh0My-211" value="" style="ellipse;html=1;shape=endState;fillColor=strokeColor;" vertex="1" parent="VtsKrZhrMiqrWmQ-cmWZ-1">
          <mxGeometry x="1269" y="1280" width="30" height="30" as="geometry" />
        </mxCell>
        <mxCell id="6pqvd1AzHX-6ogDIh0My-217" style="edgeStyle=orthogonalEdgeStyle;rounded=0;orthogonalLoop=1;jettySize=auto;html=1;" edge="1" parent="VtsKrZhrMiqrWmQ-cmWZ-1" source="6pqvd1AzHX-6ogDIh0My-215" target="6pqvd1AzHX-6ogDIh0My-216">
          <mxGeometry relative="1" as="geometry" />
        </mxCell>
        <mxCell id="6pqvd1AzHX-6ogDIh0My-218" value="Clean and reasampled data ready" style="edgeLabel;html=1;align=center;verticalAlign=middle;resizable=0;points=[];" vertex="1" connectable="0" parent="6pqvd1AzHX-6ogDIh0My-217">
          <mxGeometry x="-0.2844" relative="1" as="geometry">
            <mxPoint as="offset" />
          </mxGeometry>
        </mxCell>
        <mxCell id="6pqvd1AzHX-6ogDIh0My-215" value="" style="ellipse;fillColor=strokeColor;html=1;" vertex="1" parent="VtsKrZhrMiqrWmQ-cmWZ-1">
          <mxGeometry x="2040" y="50" width="30" height="30" as="geometry" />
        </mxCell>
        <mxCell id="6pqvd1AzHX-6ogDIh0My-220" style="edgeStyle=orthogonalEdgeStyle;rounded=0;orthogonalLoop=1;jettySize=auto;html=1;entryX=0.5;entryY=0;entryDx=0;entryDy=0;" edge="1" parent="VtsKrZhrMiqrWmQ-cmWZ-1" source="6pqvd1AzHX-6ogDIh0My-216" target="6pqvd1AzHX-6ogDIh0My-219">
          <mxGeometry relative="1" as="geometry" />
        </mxCell>
        <mxCell id="6pqvd1AzHX-6ogDIh0My-221" value="Start Descriptive Statistics" style="edgeLabel;html=1;align=center;verticalAlign=middle;resizable=0;points=[];" vertex="1" connectable="0" parent="6pqvd1AzHX-6ogDIh0My-220">
          <mxGeometry x="0.087" y="-2" relative="1" as="geometry">
            <mxPoint as="offset" />
          </mxGeometry>
        </mxCell>
        <mxCell id="6pqvd1AzHX-6ogDIh0My-216" value="Module Idle" style="rounded=1;whiteSpace=wrap;html=1;" vertex="1" parent="VtsKrZhrMiqrWmQ-cmWZ-1">
          <mxGeometry x="1995" y="130" width="120" height="60" as="geometry" />
        </mxCell>
        <mxCell id="6pqvd1AzHX-6ogDIh0My-223" style="edgeStyle=orthogonalEdgeStyle;rounded=0;orthogonalLoop=1;jettySize=auto;html=1;" edge="1" parent="VtsKrZhrMiqrWmQ-cmWZ-1" source="6pqvd1AzHX-6ogDIh0My-219" target="6pqvd1AzHX-6ogDIh0My-222">
          <mxGeometry relative="1" as="geometry">
            <Array as="points">
              <mxPoint x="2000" y="280" />
            </Array>
          </mxGeometry>
        </mxCell>
        <mxCell id="6pqvd1AzHX-6ogDIh0My-224" value="Compute correlations" style="edgeLabel;html=1;align=center;verticalAlign=middle;resizable=0;points=[];" vertex="1" connectable="0" parent="6pqvd1AzHX-6ogDIh0My-223">
          <mxGeometry x="0.1286" y="2" relative="1" as="geometry">
            <mxPoint as="offset" />
          </mxGeometry>
        </mxCell>
        <mxCell id="6pqvd1AzHX-6ogDIh0My-226" style="edgeStyle=orthogonalEdgeStyle;rounded=0;orthogonalLoop=1;jettySize=auto;html=1;" edge="1" parent="VtsKrZhrMiqrWmQ-cmWZ-1">
          <mxGeometry relative="1" as="geometry">
            <mxPoint x="1899.440000000001" y="310" as="sourcePoint" />
            <mxPoint x="1899.440000000001" y="510" as="targetPoint" />
          </mxGeometry>
        </mxCell>
        <mxCell id="6pqvd1AzHX-6ogDIh0My-227" value="If correlation skips" style="edgeLabel;html=1;align=center;verticalAlign=middle;resizable=0;points=[];" vertex="1" connectable="0" parent="6pqvd1AzHX-6ogDIh0My-226">
          <mxGeometry x="-0.31" y="1" relative="1" as="geometry">
            <mxPoint as="offset" />
          </mxGeometry>
        </mxCell>
        <mxCell id="6pqvd1AzHX-6ogDIh0My-219" value="Descriptive" style="rounded=1;whiteSpace=wrap;html=1;" vertex="1" parent="VtsKrZhrMiqrWmQ-cmWZ-1">
          <mxGeometry x="1850" y="250" width="120" height="60" as="geometry" />
        </mxCell>
        <mxCell id="6pqvd1AzHX-6ogDIh0My-233" style="edgeStyle=orthogonalEdgeStyle;rounded=0;orthogonalLoop=1;jettySize=auto;html=1;entryX=1;entryY=0.5;entryDx=0;entryDy=0;" edge="1" parent="VtsKrZhrMiqrWmQ-cmWZ-1" source="6pqvd1AzHX-6ogDIh0My-222" target="6pqvd1AzHX-6ogDIh0My-225">
          <mxGeometry relative="1" as="geometry" />
        </mxCell>
        <mxCell id="6pqvd1AzHX-6ogDIh0My-234" value="Prepare for STL" style="edgeLabel;html=1;align=center;verticalAlign=middle;resizable=0;points=[];" vertex="1" connectable="0" parent="6pqvd1AzHX-6ogDIh0My-233">
          <mxGeometry x="-0.4611" y="-3" relative="1" as="geometry">
            <mxPoint as="offset" />
          </mxGeometry>
        </mxCell>
        <mxCell id="6pqvd1AzHX-6ogDIh0My-222" value="Correlations" style="rounded=1;whiteSpace=wrap;html=1;" vertex="1" parent="VtsKrZhrMiqrWmQ-cmWZ-1">
          <mxGeometry x="1940" y="390" width="120" height="60" as="geometry" />
        </mxCell>
        <mxCell id="6pqvd1AzHX-6ogDIh0My-229" style="edgeStyle=orthogonalEdgeStyle;rounded=0;orthogonalLoop=1;jettySize=auto;html=1;" edge="1" parent="VtsKrZhrMiqrWmQ-cmWZ-1" source="6pqvd1AzHX-6ogDIh0My-225" target="6pqvd1AzHX-6ogDIh0My-228">
          <mxGeometry relative="1" as="geometry" />
        </mxCell>
        <mxCell id="6pqvd1AzHX-6ogDIh0My-235" value="Apply for STL" style="edgeLabel;html=1;align=center;verticalAlign=middle;resizable=0;points=[];" vertex="1" connectable="0" parent="6pqvd1AzHX-6ogDIh0My-229">
          <mxGeometry x="0.0611" y="-3" relative="1" as="geometry">
            <mxPoint as="offset" />
          </mxGeometry>
        </mxCell>
        <mxCell id="6pqvd1AzHX-6ogDIh0My-232" style="edgeStyle=orthogonalEdgeStyle;rounded=0;orthogonalLoop=1;jettySize=auto;html=1;entryX=0.5;entryY=0;entryDx=0;entryDy=0;" edge="1" parent="VtsKrZhrMiqrWmQ-cmWZ-1" source="6pqvd1AzHX-6ogDIh0My-225" target="6pqvd1AzHX-6ogDIh0My-230">
          <mxGeometry relative="1" as="geometry">
            <Array as="points">
              <mxPoint x="1755" y="540" />
            </Array>
          </mxGeometry>
        </mxCell>
        <mxCell id="6pqvd1AzHX-6ogDIh0My-236" value="Compute rolling mean" style="edgeLabel;html=1;align=center;verticalAlign=middle;resizable=0;points=[];" vertex="1" connectable="0" parent="6pqvd1AzHX-6ogDIh0My-232">
          <mxGeometry x="0.4053" y="3" relative="1" as="geometry">
            <mxPoint as="offset" />
          </mxGeometry>
        </mxCell>
        <mxCell id="6pqvd1AzHX-6ogDIh0My-225" value="Decomposition" style="rounded=1;whiteSpace=wrap;html=1;" vertex="1" parent="VtsKrZhrMiqrWmQ-cmWZ-1">
          <mxGeometry x="1850" y="510" width="120" height="60" as="geometry" />
        </mxCell>
        <mxCell id="6pqvd1AzHX-6ogDIh0My-243" style="edgeStyle=orthogonalEdgeStyle;rounded=0;orthogonalLoop=1;jettySize=auto;html=1;entryX=0.5;entryY=0;entryDx=0;entryDy=0;" edge="1" parent="VtsKrZhrMiqrWmQ-cmWZ-1" source="6pqvd1AzHX-6ogDIh0My-228" target="6pqvd1AzHX-6ogDIh0My-237">
          <mxGeometry relative="1" as="geometry" />
        </mxCell>
        <mxCell id="6pqvd1AzHX-6ogDIh0My-228" value="STL" style="rounded=1;whiteSpace=wrap;html=1;" vertex="1" parent="VtsKrZhrMiqrWmQ-cmWZ-1">
          <mxGeometry x="1850" y="630" width="120" height="60" as="geometry" />
        </mxCell>
        <mxCell id="6pqvd1AzHX-6ogDIh0My-241" style="edgeStyle=orthogonalEdgeStyle;rounded=0;orthogonalLoop=1;jettySize=auto;html=1;" edge="1" parent="VtsKrZhrMiqrWmQ-cmWZ-1" source="6pqvd1AzHX-6ogDIh0My-230" target="6pqvd1AzHX-6ogDIh0My-237">
          <mxGeometry relative="1" as="geometry" />
        </mxCell>
        <mxCell id="6pqvd1AzHX-6ogDIh0My-244" value="Analysis data assembled" style="edgeLabel;html=1;align=center;verticalAlign=middle;resizable=0;points=[];" vertex="1" connectable="0" parent="6pqvd1AzHX-6ogDIh0My-241">
          <mxGeometry x="0.7385" relative="1" as="geometry">
            <mxPoint as="offset" />
          </mxGeometry>
        </mxCell>
        <mxCell id="6pqvd1AzHX-6ogDIh0My-246" style="edgeStyle=orthogonalEdgeStyle;rounded=0;orthogonalLoop=1;jettySize=auto;html=1;" edge="1" parent="VtsKrZhrMiqrWmQ-cmWZ-1" source="6pqvd1AzHX-6ogDIh0My-230" target="6pqvd1AzHX-6ogDIh0My-245">
          <mxGeometry relative="1" as="geometry">
            <Array as="points">
              <mxPoint x="2130" y="590" />
            </Array>
          </mxGeometry>
        </mxCell>
        <mxCell id="6pqvd1AzHX-6ogDIh0My-247" value="If Moving Average fails" style="edgeLabel;html=1;align=center;verticalAlign=middle;resizable=0;points=[];" vertex="1" connectable="0" parent="6pqvd1AzHX-6ogDIh0My-246">
          <mxGeometry x="0.1393" relative="1" as="geometry">
            <mxPoint as="offset" />
          </mxGeometry>
        </mxCell>
        <mxCell id="6pqvd1AzHX-6ogDIh0My-230" value="Moving Avg" style="rounded=1;whiteSpace=wrap;html=1;" vertex="1" parent="VtsKrZhrMiqrWmQ-cmWZ-1">
          <mxGeometry x="1695" y="570" width="120" height="60" as="geometry" />
        </mxCell>
        <mxCell id="6pqvd1AzHX-6ogDIh0My-239" style="edgeStyle=orthogonalEdgeStyle;rounded=0;orthogonalLoop=1;jettySize=auto;html=1;entryX=0.5;entryY=0;entryDx=0;entryDy=0;" edge="1" parent="VtsKrZhrMiqrWmQ-cmWZ-1" source="6pqvd1AzHX-6ogDIh0My-237" target="6pqvd1AzHX-6ogDIh0My-238">
          <mxGeometry relative="1" as="geometry" />
        </mxCell>
        <mxCell id="6pqvd1AzHX-6ogDIh0My-240" value="Analysis Complete" style="edgeLabel;html=1;align=center;verticalAlign=middle;resizable=0;points=[];" vertex="1" connectable="0" parent="6pqvd1AzHX-6ogDIh0My-239">
          <mxGeometry x="-0.0749" y="2" relative="1" as="geometry">
            <mxPoint as="offset" />
          </mxGeometry>
        </mxCell>
        <mxCell id="6pqvd1AzHX-6ogDIh0My-237" value="Analysis Ready" style="rounded=1;whiteSpace=wrap;html=1;" vertex="1" parent="VtsKrZhrMiqrWmQ-cmWZ-1">
          <mxGeometry x="1815" y="780" width="120" height="60" as="geometry" />
        </mxCell>
        <mxCell id="6pqvd1AzHX-6ogDIh0My-238" value="" style="ellipse;html=1;shape=endState;fillColor=strokeColor;" vertex="1" parent="VtsKrZhrMiqrWmQ-cmWZ-1">
          <mxGeometry x="1860" y="915" width="30" height="30" as="geometry" />
        </mxCell>
        <mxCell id="6pqvd1AzHX-6ogDIh0My-250" style="edgeStyle=orthogonalEdgeStyle;rounded=0;orthogonalLoop=1;jettySize=auto;html=1;entryX=0.5;entryY=1;entryDx=0;entryDy=0;" edge="1" parent="VtsKrZhrMiqrWmQ-cmWZ-1" source="6pqvd1AzHX-6ogDIh0My-245" target="6pqvd1AzHX-6ogDIh0My-249">
          <mxGeometry relative="1" as="geometry">
            <Array as="points">
              <mxPoint x="2160" y="580" />
              <mxPoint x="2160" y="580" />
            </Array>
          </mxGeometry>
        </mxCell>
        <mxCell id="6pqvd1AzHX-6ogDIh0My-245" value="Error_MA" style="rounded=1;whiteSpace=wrap;html=1;" vertex="1" parent="VtsKrZhrMiqrWmQ-cmWZ-1">
          <mxGeometry x="2070" y="640" width="120" height="60" as="geometry" />
        </mxCell>
        <mxCell id="6pqvd1AzHX-6ogDIh0My-251" style="edgeStyle=orthogonalEdgeStyle;rounded=0;orthogonalLoop=1;jettySize=auto;html=1;entryX=1;entryY=0.5;entryDx=0;entryDy=0;" edge="1" parent="VtsKrZhrMiqrWmQ-cmWZ-1" source="6pqvd1AzHX-6ogDIh0My-249" target="6pqvd1AzHX-6ogDIh0My-216">
          <mxGeometry relative="1" as="geometry" />
        </mxCell>
        <mxCell id="6pqvd1AzHX-6ogDIh0My-252" value="Abort analysis" style="edgeLabel;html=1;align=center;verticalAlign=middle;resizable=0;points=[];" vertex="1" connectable="0" parent="6pqvd1AzHX-6ogDIh0My-251">
          <mxGeometry x="-0.0419" y="1" relative="1" as="geometry">
            <mxPoint as="offset" />
          </mxGeometry>
        </mxCell>
        <mxCell id="6pqvd1AzHX-6ogDIh0My-249" value="Notify User" style="rounded=1;whiteSpace=wrap;html=1;" vertex="1" parent="VtsKrZhrMiqrWmQ-cmWZ-1">
          <mxGeometry x="2100" y="330" width="120" height="60" as="geometry" />
        </mxCell>
        <mxCell id="6pqvd1AzHX-6ogDIh0My-255" style="edgeStyle=orthogonalEdgeStyle;rounded=0;orthogonalLoop=1;jettySize=auto;html=1;entryX=0.5;entryY=0;entryDx=0;entryDy=0;" edge="1" parent="VtsKrZhrMiqrWmQ-cmWZ-1" source="6pqvd1AzHX-6ogDIh0My-253" target="6pqvd1AzHX-6ogDIh0My-254">
          <mxGeometry relative="1" as="geometry" />
        </mxCell>
        <mxCell id="6pqvd1AzHX-6ogDIh0My-256" value="Analyzed data loaded" style="edgeLabel;html=1;align=center;verticalAlign=middle;resizable=0;points=[];" vertex="1" connectable="0" parent="6pqvd1AzHX-6ogDIh0My-255">
          <mxGeometry x="-0.1186" y="-1" relative="1" as="geometry">
            <mxPoint as="offset" />
          </mxGeometry>
        </mxCell>
        <mxCell id="6pqvd1AzHX-6ogDIh0My-253" value="" style="ellipse;fillColor=strokeColor;html=1;" vertex="1" parent="VtsKrZhrMiqrWmQ-cmWZ-1">
          <mxGeometry x="2590" y="51" width="30" height="30" as="geometry" />
        </mxCell>
        <mxCell id="6pqvd1AzHX-6ogDIh0My-254" value="Module Idle" style="rounded=1;whiteSpace=wrap;html=1;" vertex="1" parent="VtsKrZhrMiqrWmQ-cmWZ-1">
          <mxGeometry x="2545" y="140" width="120" height="60" as="geometry" />
        </mxCell>
        <mxCell id="6pqvd1AzHX-6ogDIh0My-261" style="edgeStyle=orthogonalEdgeStyle;rounded=0;orthogonalLoop=1;jettySize=auto;html=1;entryX=0.5;entryY=0;entryDx=0;entryDy=0;" edge="1" parent="VtsKrZhrMiqrWmQ-cmWZ-1" source="6pqvd1AzHX-6ogDIh0My-257" target="6pqvd1AzHX-6ogDIh0My-260">
          <mxGeometry relative="1" as="geometry" />
        </mxCell>
        <mxCell id="6pqvd1AzHX-6ogDIh0My-262" value="plot time-series trends" style="edgeLabel;html=1;align=center;verticalAlign=middle;resizable=0;points=[];" vertex="1" connectable="0" parent="6pqvd1AzHX-6ogDIh0My-261">
          <mxGeometry x="-0.2585" y="-1" relative="1" as="geometry">
            <mxPoint as="offset" />
          </mxGeometry>
        </mxCell>
        <mxCell id="6pqvd1AzHX-6ogDIh0My-257" value="Chart_Hist" style="rounded=1;whiteSpace=wrap;html=1;" vertex="1" parent="VtsKrZhrMiqrWmQ-cmWZ-1">
          <mxGeometry x="2490" y="280" width="120" height="60" as="geometry" />
        </mxCell>
        <mxCell id="6pqvd1AzHX-6ogDIh0My-258" style="edgeStyle=orthogonalEdgeStyle;rounded=0;orthogonalLoop=1;jettySize=auto;html=1;entryX=0.55;entryY=0.014;entryDx=0;entryDy=0;entryPerimeter=0;" edge="1" parent="VtsKrZhrMiqrWmQ-cmWZ-1" source="6pqvd1AzHX-6ogDIh0My-254" target="6pqvd1AzHX-6ogDIh0My-257">
          <mxGeometry relative="1" as="geometry" />
        </mxCell>
        <mxCell id="6pqvd1AzHX-6ogDIh0My-259" value="Start Histogram and Boxplot" style="edgeLabel;html=1;align=center;verticalAlign=middle;resizable=0;points=[];" vertex="1" connectable="0" parent="6pqvd1AzHX-6ogDIh0My-258">
          <mxGeometry x="0.0391" y="2" relative="1" as="geometry">
            <mxPoint as="offset" />
          </mxGeometry>
        </mxCell>
        <mxCell id="6pqvd1AzHX-6ogDIh0My-264" style="edgeStyle=orthogonalEdgeStyle;rounded=0;orthogonalLoop=1;jettySize=auto;html=1;entryX=0.5;entryY=0;entryDx=0;entryDy=0;" edge="1" parent="VtsKrZhrMiqrWmQ-cmWZ-1" source="6pqvd1AzHX-6ogDIh0My-260" target="6pqvd1AzHX-6ogDIh0My-263">
          <mxGeometry relative="1" as="geometry" />
        </mxCell>
        <mxCell id="6pqvd1AzHX-6ogDIh0My-265" value="prepare spatial data" style="edgeLabel;html=1;align=center;verticalAlign=middle;resizable=0;points=[];" vertex="1" connectable="0" parent="6pqvd1AzHX-6ogDIh0My-264">
          <mxGeometry x="-0.0431" y="1" relative="1" as="geometry">
            <mxPoint as="offset" />
          </mxGeometry>
        </mxCell>
        <mxCell id="6pqvd1AzHX-6ogDIh0My-260" value="Chart_Time" style="rounded=1;whiteSpace=wrap;html=1;" vertex="1" parent="VtsKrZhrMiqrWmQ-cmWZ-1">
          <mxGeometry x="2490" y="390" width="120" height="60" as="geometry" />
        </mxCell>
        <mxCell id="6pqvd1AzHX-6ogDIh0My-267" style="edgeStyle=orthogonalEdgeStyle;rounded=0;orthogonalLoop=1;jettySize=auto;html=1;entryX=0.5;entryY=0;entryDx=0;entryDy=0;" edge="1" parent="VtsKrZhrMiqrWmQ-cmWZ-1" source="6pqvd1AzHX-6ogDIh0My-263" target="6pqvd1AzHX-6ogDIh0My-266">
          <mxGeometry relative="1" as="geometry" />
        </mxCell>
        <mxCell id="6pqvd1AzHX-6ogDIh0My-268" value="Save PNG and HTML" style="edgeLabel;html=1;align=center;verticalAlign=middle;resizable=0;points=[];" vertex="1" connectable="0" parent="6pqvd1AzHX-6ogDIh0My-267">
          <mxGeometry x="-0.1256" y="-2" relative="1" as="geometry">
            <mxPoint as="offset" />
          </mxGeometry>
        </mxCell>
        <mxCell id="6pqvd1AzHX-6ogDIh0My-263" value="CreateHeatMap" style="rounded=1;whiteSpace=wrap;html=1;" vertex="1" parent="VtsKrZhrMiqrWmQ-cmWZ-1">
          <mxGeometry x="2490" y="500" width="120" height="60" as="geometry" />
        </mxCell>
        <mxCell id="6pqvd1AzHX-6ogDIh0My-270" style="edgeStyle=orthogonalEdgeStyle;rounded=0;orthogonalLoop=1;jettySize=auto;html=1;entryX=0.5;entryY=0;entryDx=0;entryDy=0;" edge="1" parent="VtsKrZhrMiqrWmQ-cmWZ-1" source="6pqvd1AzHX-6ogDIh0My-266" target="6pqvd1AzHX-6ogDIh0My-269">
          <mxGeometry relative="1" as="geometry" />
        </mxCell>
        <mxCell id="6pqvd1AzHX-6ogDIh0My-271" value="Success" style="edgeLabel;html=1;align=center;verticalAlign=middle;resizable=0;points=[];" vertex="1" connectable="0" parent="6pqvd1AzHX-6ogDIh0My-270">
          <mxGeometry x="-0.1219" relative="1" as="geometry">
            <mxPoint as="offset" />
          </mxGeometry>
        </mxCell>
        <mxCell id="6pqvd1AzHX-6ogDIh0My-274" value="" style="edgeStyle=orthogonalEdgeStyle;rounded=0;orthogonalLoop=1;jettySize=auto;html=1;" edge="1" parent="VtsKrZhrMiqrWmQ-cmWZ-1" source="6pqvd1AzHX-6ogDIh0My-266" target="6pqvd1AzHX-6ogDIh0My-273">
          <mxGeometry relative="1" as="geometry" />
        </mxCell>
        <mxCell id="6pqvd1AzHX-6ogDIh0My-275" value="Exception" style="edgeLabel;html=1;align=center;verticalAlign=middle;resizable=0;points=[];" vertex="1" connectable="0" parent="6pqvd1AzHX-6ogDIh0My-274">
          <mxGeometry x="-0.0231" y="1" relative="1" as="geometry">
            <mxPoint as="offset" />
          </mxGeometry>
        </mxCell>
        <mxCell id="6pqvd1AzHX-6ogDIh0My-266" value="Save Outputs" style="rounded=1;whiteSpace=wrap;html=1;" vertex="1" parent="VtsKrZhrMiqrWmQ-cmWZ-1">
          <mxGeometry x="2490" y="620" width="120" height="60" as="geometry" />
        </mxCell>
        <mxCell id="6pqvd1AzHX-6ogDIh0My-282" style="edgeStyle=orthogonalEdgeStyle;rounded=0;orthogonalLoop=1;jettySize=auto;html=1;entryX=0.5;entryY=0;entryDx=0;entryDy=0;" edge="1" parent="VtsKrZhrMiqrWmQ-cmWZ-1" source="6pqvd1AzHX-6ogDIh0My-269" target="6pqvd1AzHX-6ogDIh0My-281">
          <mxGeometry relative="1" as="geometry" />
        </mxCell>
        <mxCell id="6pqvd1AzHX-6ogDIh0My-283" value="Visualization Complete" style="edgeLabel;html=1;align=center;verticalAlign=middle;resizable=0;points=[];" vertex="1" connectable="0" parent="6pqvd1AzHX-6ogDIh0My-282">
          <mxGeometry x="-0.2047" y="1" relative="1" as="geometry">
            <mxPoint as="offset" />
          </mxGeometry>
        </mxCell>
        <mxCell id="6pqvd1AzHX-6ogDIh0My-269" value="Visualization Done" style="rounded=1;whiteSpace=wrap;html=1;" vertex="1" parent="VtsKrZhrMiqrWmQ-cmWZ-1">
          <mxGeometry x="2490" y="745" width="120" height="60" as="geometry" />
        </mxCell>
        <mxCell id="6pqvd1AzHX-6ogDIh0My-278" style="edgeStyle=orthogonalEdgeStyle;rounded=0;orthogonalLoop=1;jettySize=auto;html=1;entryX=0.5;entryY=1;entryDx=0;entryDy=0;" edge="1" parent="VtsKrZhrMiqrWmQ-cmWZ-1" source="6pqvd1AzHX-6ogDIh0My-273" target="6pqvd1AzHX-6ogDIh0My-277">
          <mxGeometry relative="1" as="geometry" />
        </mxCell>
        <mxCell id="6pqvd1AzHX-6ogDIh0My-273" value="Error_Visualization" style="whiteSpace=wrap;html=1;rounded=1;" vertex="1" parent="VtsKrZhrMiqrWmQ-cmWZ-1">
          <mxGeometry x="2690" y="620" width="120" height="60" as="geometry" />
        </mxCell>
        <mxCell id="6pqvd1AzHX-6ogDIh0My-279" style="edgeStyle=orthogonalEdgeStyle;rounded=0;orthogonalLoop=1;jettySize=auto;html=1;exitX=0.5;exitY=0;exitDx=0;exitDy=0;entryX=1;entryY=0.5;entryDx=0;entryDy=0;" edge="1" parent="VtsKrZhrMiqrWmQ-cmWZ-1" source="6pqvd1AzHX-6ogDIh0My-277" target="6pqvd1AzHX-6ogDIh0My-254">
          <mxGeometry relative="1" as="geometry" />
        </mxCell>
        <mxCell id="6pqvd1AzHX-6ogDIh0My-280" value="Visualization Retry" style="edgeLabel;html=1;align=center;verticalAlign=middle;resizable=0;points=[];" vertex="1" connectable="0" parent="6pqvd1AzHX-6ogDIh0My-279">
          <mxGeometry x="-0.2289" y="-1" relative="1" as="geometry">
            <mxPoint as="offset" />
          </mxGeometry>
        </mxCell>
        <mxCell id="6pqvd1AzHX-6ogDIh0My-277" value="Notify User" style="rounded=1;whiteSpace=wrap;html=1;" vertex="1" parent="VtsKrZhrMiqrWmQ-cmWZ-1">
          <mxGeometry x="2690" y="410" width="120" height="60" as="geometry" />
        </mxCell>
        <mxCell id="6pqvd1AzHX-6ogDIh0My-281" value="" style="ellipse;html=1;shape=endState;fillColor=strokeColor;" vertex="1" parent="VtsKrZhrMiqrWmQ-cmWZ-1">
          <mxGeometry x="2535" y="870" width="30" height="30" as="geometry" />
        </mxCell>
        <mxCell id="VtsKrZhrMiqrWmQ-cmWZ-83" value="Sequence Diagram" style="swimlane;fillColor=default;startSize=23;" parent="1" vertex="1">
          <mxGeometry x="-100" y="1010" width="1090" height="750" as="geometry" />
        </mxCell>
        <mxCell id="VtsKrZhrMiqrWmQ-cmWZ-130" value="User" style="shape=umlActor;verticalLabelPosition=bottom;verticalAlign=top;html=1;outlineConnect=0;" parent="VtsKrZhrMiqrWmQ-cmWZ-83" vertex="1">
          <mxGeometry x="70" y="70" width="30" height="60" as="geometry" />
        </mxCell>
        <mxCell id="VtsKrZhrMiqrWmQ-cmWZ-131" value="User" style="shape=umlActor;verticalLabelPosition=bottom;verticalAlign=top;html=1;outlineConnect=0;" parent="VtsKrZhrMiqrWmQ-cmWZ-83" vertex="1">
          <mxGeometry x="70" y="600" width="30" height="60" as="geometry" />
        </mxCell>
        <mxCell id="VtsKrZhrMiqrWmQ-cmWZ-132" value="" style="endArrow=none;dashed=1;html=1;rounded=0;" parent="VtsKrZhrMiqrWmQ-cmWZ-83" edge="1">
          <mxGeometry width="50" height="50" relative="1" as="geometry">
            <mxPoint x="84.44" y="590" as="sourcePoint" />
            <mxPoint x="84.44" y="160" as="targetPoint" />
          </mxGeometry>
        </mxCell>
        <mxCell id="VtsKrZhrMiqrWmQ-cmWZ-133" value="CSV Loader" style="rounded=0;whiteSpace=wrap;html=1;" parent="VtsKrZhrMiqrWmQ-cmWZ-83" vertex="1">
          <mxGeometry x="250" y="90" width="80" height="40" as="geometry" />
        </mxCell>
        <mxCell id="VtsKrZhrMiqrWmQ-cmWZ-134" value="CSV Loader" style="rounded=0;whiteSpace=wrap;html=1;" parent="VtsKrZhrMiqrWmQ-cmWZ-83" vertex="1">
          <mxGeometry x="250" y="600" width="80" height="40" as="geometry" />
        </mxCell>
        <mxCell id="VtsKrZhrMiqrWmQ-cmWZ-135" value="Data Cleaner" style="rounded=0;whiteSpace=wrap;html=1;" parent="VtsKrZhrMiqrWmQ-cmWZ-83" vertex="1">
          <mxGeometry x="460" y="90" width="80" height="40" as="geometry" />
        </mxCell>
        <mxCell id="VtsKrZhrMiqrWmQ-cmWZ-136" value="Data Cleaner" style="rounded=0;whiteSpace=wrap;html=1;" parent="VtsKrZhrMiqrWmQ-cmWZ-83" vertex="1">
          <mxGeometry x="460" y="600" width="80" height="40" as="geometry" />
        </mxCell>
        <mxCell id="VtsKrZhrMiqrWmQ-cmWZ-137" value="Analyzer Module" style="rounded=0;whiteSpace=wrap;html=1;" parent="VtsKrZhrMiqrWmQ-cmWZ-83" vertex="1">
          <mxGeometry x="670" y="90" width="110" height="40" as="geometry" />
        </mxCell>
        <mxCell id="VtsKrZhrMiqrWmQ-cmWZ-138" value="Analyzer Module" style="rounded=0;whiteSpace=wrap;html=1;" parent="VtsKrZhrMiqrWmQ-cmWZ-83" vertex="1">
          <mxGeometry x="670" y="600" width="110" height="40" as="geometry" />
        </mxCell>
        <mxCell id="VtsKrZhrMiqrWmQ-cmWZ-139" value="Visualizer Module" style="rounded=0;whiteSpace=wrap;html=1;" parent="VtsKrZhrMiqrWmQ-cmWZ-83" vertex="1">
          <mxGeometry x="910" y="90" width="110" height="40" as="geometry" />
        </mxCell>
        <mxCell id="VtsKrZhrMiqrWmQ-cmWZ-140" value="Visualizer Module" style="rounded=0;whiteSpace=wrap;html=1;" parent="VtsKrZhrMiqrWmQ-cmWZ-83" vertex="1">
          <mxGeometry x="910" y="600" width="110" height="40" as="geometry" />
        </mxCell>
        <mxCell id="VtsKrZhrMiqrWmQ-cmWZ-141" value="" style="endArrow=none;dashed=1;html=1;rounded=0;entryX=0.5;entryY=1;entryDx=0;entryDy=0;exitX=0.5;exitY=0;exitDx=0;exitDy=0;" parent="VtsKrZhrMiqrWmQ-cmWZ-83" source="VtsKrZhrMiqrWmQ-cmWZ-134" target="VtsKrZhrMiqrWmQ-cmWZ-133" edge="1">
          <mxGeometry width="50" height="50" relative="1" as="geometry">
            <mxPoint x="289.44" y="590" as="sourcePoint" />
            <mxPoint x="289.44" y="160" as="targetPoint" />
          </mxGeometry>
        </mxCell>
        <mxCell id="VtsKrZhrMiqrWmQ-cmWZ-142" value="" style="endArrow=none;dashed=1;html=1;rounded=0;entryX=0.5;entryY=1;entryDx=0;entryDy=0;exitX=0.5;exitY=0;exitDx=0;exitDy=0;" parent="VtsKrZhrMiqrWmQ-cmWZ-83" edge="1">
          <mxGeometry width="50" height="50" relative="1" as="geometry">
            <mxPoint x="499.44" y="600" as="sourcePoint" />
            <mxPoint x="499.44" y="130" as="targetPoint" />
          </mxGeometry>
        </mxCell>
        <mxCell id="VtsKrZhrMiqrWmQ-cmWZ-143" value="" style="endArrow=none;dashed=1;html=1;rounded=0;entryX=0.5;entryY=1;entryDx=0;entryDy=0;exitX=0.5;exitY=0;exitDx=0;exitDy=0;" parent="VtsKrZhrMiqrWmQ-cmWZ-83" edge="1">
          <mxGeometry width="50" height="50" relative="1" as="geometry">
            <mxPoint x="724.44" y="600" as="sourcePoint" />
            <mxPoint x="724.44" y="130" as="targetPoint" />
          </mxGeometry>
        </mxCell>
        <mxCell id="VtsKrZhrMiqrWmQ-cmWZ-144" value="" style="endArrow=none;dashed=1;html=1;rounded=0;entryX=0.5;entryY=1;entryDx=0;entryDy=0;exitX=0.5;exitY=0;exitDx=0;exitDy=0;" parent="VtsKrZhrMiqrWmQ-cmWZ-83" edge="1">
          <mxGeometry width="50" height="50" relative="1" as="geometry">
            <mxPoint x="964.44" y="600" as="sourcePoint" />
            <mxPoint x="964.44" y="130" as="targetPoint" />
          </mxGeometry>
        </mxCell>
        <mxCell id="VtsKrZhrMiqrWmQ-cmWZ-145" value="" style="endArrow=classic;html=1;rounded=0;" parent="VtsKrZhrMiqrWmQ-cmWZ-83" edge="1">
          <mxGeometry width="50" height="50" relative="1" as="geometry">
            <mxPoint x="90" y="200" as="sourcePoint" />
            <mxPoint x="290" y="200" as="targetPoint" />
          </mxGeometry>
        </mxCell>
        <mxCell id="VtsKrZhrMiqrWmQ-cmWZ-146" value="Upload CSV File" style="edgeLabel;html=1;align=center;verticalAlign=middle;resizable=0;points=[];" parent="VtsKrZhrMiqrWmQ-cmWZ-145" vertex="1" connectable="0">
          <mxGeometry x="-0.2444" y="-1" relative="1" as="geometry">
            <mxPoint x="14" y="-11" as="offset" />
          </mxGeometry>
        </mxCell>
        <mxCell id="VtsKrZhrMiqrWmQ-cmWZ-151" value="" style="endArrow=classic;html=1;rounded=0;" parent="VtsKrZhrMiqrWmQ-cmWZ-83" edge="1">
          <mxGeometry width="50" height="50" relative="1" as="geometry">
            <mxPoint x="500" y="390" as="sourcePoint" />
            <mxPoint x="720" y="390" as="targetPoint" />
          </mxGeometry>
        </mxCell>
        <mxCell id="VtsKrZhrMiqrWmQ-cmWZ-152" value="Pass Cleaned DataFrame" style="edgeLabel;html=1;align=center;verticalAlign=middle;resizable=0;points=[];" parent="VtsKrZhrMiqrWmQ-cmWZ-151" vertex="1" connectable="0">
          <mxGeometry x="-0.2804" y="3" relative="1" as="geometry">
            <mxPoint x="24" y="-7" as="offset" />
          </mxGeometry>
        </mxCell>
        <mxCell id="VtsKrZhrMiqrWmQ-cmWZ-153" value="" style="endArrow=classic;html=1;rounded=0;" parent="VtsKrZhrMiqrWmQ-cmWZ-83" edge="1">
          <mxGeometry width="50" height="50" relative="1" as="geometry">
            <mxPoint x="500" y="320" as="sourcePoint" />
            <mxPoint x="500" y="350" as="targetPoint" />
            <Array as="points">
              <mxPoint x="560" y="320" />
              <mxPoint x="560" y="350" />
            </Array>
          </mxGeometry>
        </mxCell>
        <mxCell id="VtsKrZhrMiqrWmQ-cmWZ-154" value="Filte Columns and Rows" style="edgeLabel;html=1;align=center;verticalAlign=middle;resizable=0;points=[];" parent="VtsKrZhrMiqrWmQ-cmWZ-153" vertex="1" connectable="0">
          <mxGeometry x="-0.4963" y="3" relative="1" as="geometry">
            <mxPoint x="36" y="-7" as="offset" />
          </mxGeometry>
        </mxCell>
        <mxCell id="VtsKrZhrMiqrWmQ-cmWZ-156" value="" style="endArrow=classic;html=1;rounded=0;" parent="VtsKrZhrMiqrWmQ-cmWZ-83" edge="1">
          <mxGeometry width="50" height="50" relative="1" as="geometry">
            <mxPoint x="730" y="490" as="sourcePoint" />
            <mxPoint x="960" y="490" as="targetPoint" />
          </mxGeometry>
        </mxCell>
        <mxCell id="VtsKrZhrMiqrWmQ-cmWZ-157" value="Send Analysis Results" style="edgeLabel;html=1;align=center;verticalAlign=middle;resizable=0;points=[];" parent="VtsKrZhrMiqrWmQ-cmWZ-156" vertex="1" connectable="0">
          <mxGeometry x="-0.2804" y="3" relative="1" as="geometry">
            <mxPoint x="24" y="-7" as="offset" />
          </mxGeometry>
        </mxCell>
        <mxCell id="VtsKrZhrMiqrWmQ-cmWZ-158" value="" style="endArrow=classic;html=1;rounded=0;" parent="VtsKrZhrMiqrWmQ-cmWZ-83" edge="1">
          <mxGeometry width="50" height="50" relative="1" as="geometry">
            <mxPoint x="730" y="420" as="sourcePoint" />
            <mxPoint x="730" y="450" as="targetPoint" />
            <Array as="points">
              <mxPoint x="790" y="420" />
              <mxPoint x="790" y="450" />
            </Array>
          </mxGeometry>
        </mxCell>
        <mxCell id="VtsKrZhrMiqrWmQ-cmWZ-159" value="Compute Statistical, Time-Series Analysis" style="edgeLabel;html=1;align=center;verticalAlign=middle;resizable=0;points=[];" parent="VtsKrZhrMiqrWmQ-cmWZ-158" vertex="1" connectable="0">
          <mxGeometry x="-0.4963" y="3" relative="1" as="geometry">
            <mxPoint x="70" y="-7" as="offset" />
          </mxGeometry>
        </mxCell>
        <mxCell id="VtsKrZhrMiqrWmQ-cmWZ-160" value="" style="endArrow=classic;html=1;rounded=0;" parent="VtsKrZhrMiqrWmQ-cmWZ-83" edge="1">
          <mxGeometry width="50" height="50" relative="1" as="geometry">
            <mxPoint x="970" y="510" as="sourcePoint" />
            <mxPoint x="970" y="540" as="targetPoint" />
            <Array as="points">
              <mxPoint x="1030" y="510" />
              <mxPoint x="1030" y="540" />
            </Array>
          </mxGeometry>
        </mxCell>
        <mxCell id="VtsKrZhrMiqrWmQ-cmWZ-161" value="Generate Charts, Plots" style="edgeLabel;html=1;align=center;verticalAlign=middle;resizable=0;points=[];" parent="VtsKrZhrMiqrWmQ-cmWZ-160" vertex="1" connectable="0">
          <mxGeometry x="-0.4963" y="3" relative="1" as="geometry">
            <mxPoint x="12" y="-7" as="offset" />
          </mxGeometry>
        </mxCell>
        <mxCell id="VtsKrZhrMiqrWmQ-cmWZ-147" value="" style="endArrow=classic;html=1;rounded=0;" parent="1" edge="1">
          <mxGeometry width="50" height="50" relative="1" as="geometry">
            <mxPoint x="190" y="1310" as="sourcePoint" />
            <mxPoint x="400" y="1310" as="targetPoint" />
          </mxGeometry>
        </mxCell>
        <mxCell id="VtsKrZhrMiqrWmQ-cmWZ-148" value="Pass Raw DataFrame" style="edgeLabel;html=1;align=center;verticalAlign=middle;resizable=0;points=[];" parent="VtsKrZhrMiqrWmQ-cmWZ-147" vertex="1" connectable="0">
          <mxGeometry x="-0.2804" y="3" relative="1" as="geometry">
            <mxPoint x="24" y="-7" as="offset" />
          </mxGeometry>
        </mxCell>
        <mxCell id="VtsKrZhrMiqrWmQ-cmWZ-149" value="" style="endArrow=classic;html=1;rounded=0;" parent="1" edge="1">
          <mxGeometry width="50" height="50" relative="1" as="geometry">
            <mxPoint x="190" y="1240" as="sourcePoint" />
            <mxPoint x="190" y="1270" as="targetPoint" />
            <Array as="points">
              <mxPoint x="250" y="1240" />
              <mxPoint x="250" y="1270" />
            </Array>
          </mxGeometry>
        </mxCell>
        <mxCell id="VtsKrZhrMiqrWmQ-cmWZ-150" value="Read File into DataFrame" style="edgeLabel;html=1;align=center;verticalAlign=middle;resizable=0;points=[];" parent="VtsKrZhrMiqrWmQ-cmWZ-149" vertex="1" connectable="0">
          <mxGeometry x="-0.4963" y="3" relative="1" as="geometry">
            <mxPoint x="36" y="-7" as="offset" />
          </mxGeometry>
        </mxCell>
        <mxCell id="VtsKrZhrMiqrWmQ-cmWZ-162" value="" style="endArrow=classic;html=1;rounded=0;" parent="1" edge="1">
          <mxGeometry width="50" height="50" relative="1" as="geometry">
            <mxPoint x="862.2222222222222" y="1580" as="sourcePoint" />
            <mxPoint x="-10" y="1580" as="targetPoint" />
          </mxGeometry>
        </mxCell>
        <mxCell id="VtsKrZhrMiqrWmQ-cmWZ-163" value="Save/Output files (PNG or HTML)" style="edgeLabel;html=1;align=center;verticalAlign=middle;resizable=0;points=[];" parent="VtsKrZhrMiqrWmQ-cmWZ-162" vertex="1" connectable="0">
          <mxGeometry x="0.8166" y="-3" relative="1" as="geometry">
            <mxPoint x="22" y="-7" as="offset" />
          </mxGeometry>
        </mxCell>
        <mxCell id="VtsKrZhrMiqrWmQ-cmWZ-164" value="UseCase Diagram(DataFlow)" style="swimlane;fillColor=default;fontStyle=0" parent="1" vertex="1">
          <mxGeometry x="1100" y="1010" width="2020" height="790" as="geometry" />
        </mxCell>
        <mxCell id="6pqvd1AzHX-6ogDIh0My-26" style="edgeStyle=orthogonalEdgeStyle;rounded=0;orthogonalLoop=1;jettySize=auto;html=1;entryX=0.5;entryY=0;entryDx=0;entryDy=0;" edge="1" parent="VtsKrZhrMiqrWmQ-cmWZ-164" source="VtsKrZhrMiqrWmQ-cmWZ-211" target="6pqvd1AzHX-6ogDIh0My-5">
          <mxGeometry relative="1" as="geometry" />
        </mxCell>
        <mxCell id="VtsKrZhrMiqrWmQ-cmWZ-211" value="User" style="shape=umlActor;verticalLabelPosition=bottom;verticalAlign=top;html=1;outlineConnect=0;" parent="VtsKrZhrMiqrWmQ-cmWZ-164" vertex="1">
          <mxGeometry x="640" y="40" width="30" height="60" as="geometry" />
        </mxCell>
        <mxCell id="6pqvd1AzHX-6ogDIh0My-1" value="" style="swimlane;startSize=0;" vertex="1" parent="VtsKrZhrMiqrWmQ-cmWZ-164">
          <mxGeometry x="70" y="250" width="330" height="480" as="geometry" />
        </mxCell>
        <mxCell id="6pqvd1AzHX-6ogDIh0My-8" style="edgeStyle=orthogonalEdgeStyle;rounded=0;orthogonalLoop=1;jettySize=auto;html=1;entryX=0.5;entryY=0;entryDx=0;entryDy=0;dashed=1;" edge="1" parent="6pqvd1AzHX-6ogDIh0My-1" source="6pqvd1AzHX-6ogDIh0My-5" target="6pqvd1AzHX-6ogDIh0My-7">
          <mxGeometry relative="1" as="geometry" />
        </mxCell>
        <mxCell id="6pqvd1AzHX-6ogDIh0My-9" value="&amp;lt;&amp;lt;Include&amp;gt;&amp;gt;" style="edgeLabel;html=1;align=center;verticalAlign=middle;resizable=0;points=[];" vertex="1" connectable="0" parent="6pqvd1AzHX-6ogDIh0My-8">
          <mxGeometry x="0.1933" y="-2" relative="1" as="geometry">
            <mxPoint as="offset" />
          </mxGeometry>
        </mxCell>
        <mxCell id="6pqvd1AzHX-6ogDIh0My-10" style="edgeStyle=orthogonalEdgeStyle;rounded=0;orthogonalLoop=1;jettySize=auto;html=1;entryX=0.5;entryY=0;entryDx=0;entryDy=0;dashed=1;" edge="1" parent="6pqvd1AzHX-6ogDIh0My-1" source="6pqvd1AzHX-6ogDIh0My-5" target="6pqvd1AzHX-6ogDIh0My-6">
          <mxGeometry relative="1" as="geometry" />
        </mxCell>
        <mxCell id="6pqvd1AzHX-6ogDIh0My-5" value="Load CSV File" style="ellipse;whiteSpace=wrap;html=1;" vertex="1" parent="6pqvd1AzHX-6ogDIh0My-1">
          <mxGeometry x="160" y="30" width="120" height="80" as="geometry" />
        </mxCell>
        <mxCell id="6pqvd1AzHX-6ogDIh0My-6" value="Parse CSV to Data Frame" style="ellipse;whiteSpace=wrap;html=1;" vertex="1" parent="6pqvd1AzHX-6ogDIh0My-1">
          <mxGeometry x="160" y="180" width="120" height="80" as="geometry" />
        </mxCell>
        <mxCell id="6pqvd1AzHX-6ogDIh0My-7" value="Check File Exists" style="ellipse;whiteSpace=wrap;html=1;" vertex="1" parent="6pqvd1AzHX-6ogDIh0My-1">
          <mxGeometry x="11" y="100" width="120" height="80" as="geometry" />
        </mxCell>
        <mxCell id="6pqvd1AzHX-6ogDIh0My-3" value="" style="swimlane;startSize=0;" vertex="1" parent="VtsKrZhrMiqrWmQ-cmWZ-164">
          <mxGeometry x="1170" y="250" width="200" height="480" as="geometry" />
        </mxCell>
        <mxCell id="6pqvd1AzHX-6ogDIh0My-41" style="edgeStyle=orthogonalEdgeStyle;rounded=0;orthogonalLoop=1;jettySize=auto;html=1;entryX=0;entryY=0.5;entryDx=0;entryDy=0;dashed=1;" edge="1" parent="6pqvd1AzHX-6ogDIh0My-3" source="6pqvd1AzHX-6ogDIh0My-37" target="6pqvd1AzHX-6ogDIh0My-38">
          <mxGeometry relative="1" as="geometry">
            <Array as="points">
              <mxPoint x="20" y="45" />
              <mxPoint x="20" y="115" />
            </Array>
          </mxGeometry>
        </mxCell>
        <mxCell id="6pqvd1AzHX-6ogDIh0My-42" style="edgeStyle=orthogonalEdgeStyle;rounded=0;orthogonalLoop=1;jettySize=auto;html=1;entryX=0;entryY=0.5;entryDx=0;entryDy=0;dashed=1;" edge="1" parent="6pqvd1AzHX-6ogDIh0My-3" source="6pqvd1AzHX-6ogDIh0My-37" target="6pqvd1AzHX-6ogDIh0My-39">
          <mxGeometry relative="1" as="geometry">
            <Array as="points">
              <mxPoint x="20" y="45" />
              <mxPoint x="20" y="210" />
            </Array>
          </mxGeometry>
        </mxCell>
        <mxCell id="6pqvd1AzHX-6ogDIh0My-43" style="edgeStyle=orthogonalEdgeStyle;rounded=0;orthogonalLoop=1;jettySize=auto;html=1;entryX=0;entryY=0.5;entryDx=0;entryDy=0;dashed=1;" edge="1" parent="6pqvd1AzHX-6ogDIh0My-3" source="6pqvd1AzHX-6ogDIh0My-37" target="6pqvd1AzHX-6ogDIh0My-40">
          <mxGeometry relative="1" as="geometry">
            <Array as="points">
              <mxPoint x="20" y="45" />
              <mxPoint x="20" y="315" />
            </Array>
          </mxGeometry>
        </mxCell>
        <mxCell id="6pqvd1AzHX-6ogDIh0My-44" value="&amp;lt;&amp;lt;include&amp;gt;&amp;gt;" style="edgeLabel;html=1;align=center;verticalAlign=middle;resizable=0;points=[];" vertex="1" connectable="0" parent="6pqvd1AzHX-6ogDIh0My-43">
          <mxGeometry x="-0.6839" relative="1" as="geometry">
            <mxPoint x="10" y="1" as="offset" />
          </mxGeometry>
        </mxCell>
        <mxCell id="6pqvd1AzHX-6ogDIh0My-37" value="Run Analysis" style="ellipse;whiteSpace=wrap;html=1;" vertex="1" parent="6pqvd1AzHX-6ogDIh0My-3">
          <mxGeometry x="40" y="30" width="120" height="30" as="geometry" />
        </mxCell>
        <mxCell id="6pqvd1AzHX-6ogDIh0My-38" value="Compute Moving Averages" style="ellipse;whiteSpace=wrap;html=1;" vertex="1" parent="6pqvd1AzHX-6ogDIh0My-3">
          <mxGeometry x="40" y="90" width="120" height="50" as="geometry" />
        </mxCell>
        <mxCell id="6pqvd1AzHX-6ogDIh0My-39" value="Perform Time-Series Decomposition" style="ellipse;whiteSpace=wrap;html=1;" vertex="1" parent="6pqvd1AzHX-6ogDIh0My-3">
          <mxGeometry x="40" y="180" width="120" height="60" as="geometry" />
        </mxCell>
        <mxCell id="6pqvd1AzHX-6ogDIh0My-40" value="Compute Descriptive Stats" style="ellipse;whiteSpace=wrap;html=1;" vertex="1" parent="6pqvd1AzHX-6ogDIh0My-3">
          <mxGeometry x="40" y="290" width="120" height="50" as="geometry" />
        </mxCell>
        <mxCell id="6pqvd1AzHX-6ogDIh0My-2" value="" style="swimlane;startSize=0;" vertex="1" parent="VtsKrZhrMiqrWmQ-cmWZ-164">
          <mxGeometry x="510" y="250" width="600" height="480" as="geometry" />
        </mxCell>
        <mxCell id="6pqvd1AzHX-6ogDIh0My-16" style="edgeStyle=orthogonalEdgeStyle;rounded=0;orthogonalLoop=1;jettySize=auto;html=1;dashed=1;" edge="1" parent="6pqvd1AzHX-6ogDIh0My-2" source="6pqvd1AzHX-6ogDIh0My-14" target="6pqvd1AzHX-6ogDIh0My-15">
          <mxGeometry relative="1" as="geometry">
            <Array as="points">
              <mxPoint x="180" y="80" />
              <mxPoint x="180" y="80" />
            </Array>
          </mxGeometry>
        </mxCell>
        <mxCell id="6pqvd1AzHX-6ogDIh0My-17" value="&amp;lt;&amp;lt;Extend&amp;gt;&amp;gt;" style="edgeLabel;html=1;align=center;verticalAlign=middle;resizable=0;points=[];" vertex="1" connectable="0" parent="6pqvd1AzHX-6ogDIh0My-16">
          <mxGeometry x="0.0286" y="-1" relative="1" as="geometry">
            <mxPoint x="1" y="-19" as="offset" />
          </mxGeometry>
        </mxCell>
        <mxCell id="6pqvd1AzHX-6ogDIh0My-21" style="edgeStyle=orthogonalEdgeStyle;rounded=0;orthogonalLoop=1;jettySize=auto;html=1;entryX=0;entryY=0.5;entryDx=0;entryDy=0;dashed=1;" edge="1" parent="6pqvd1AzHX-6ogDIh0My-2" source="6pqvd1AzHX-6ogDIh0My-14" target="6pqvd1AzHX-6ogDIh0My-19">
          <mxGeometry relative="1" as="geometry" />
        </mxCell>
        <mxCell id="6pqvd1AzHX-6ogDIh0My-25" value="&amp;lt;&amp;lt;include&amp;gt;&amp;gt;" style="edgeLabel;html=1;align=center;verticalAlign=middle;resizable=0;points=[];" vertex="1" connectable="0" parent="6pqvd1AzHX-6ogDIh0My-21">
          <mxGeometry x="-0.1862" relative="1" as="geometry">
            <mxPoint as="offset" />
          </mxGeometry>
        </mxCell>
        <mxCell id="6pqvd1AzHX-6ogDIh0My-22" style="edgeStyle=orthogonalEdgeStyle;rounded=0;orthogonalLoop=1;jettySize=auto;html=1;entryX=0;entryY=0.5;entryDx=0;entryDy=0;dashed=1;" edge="1" parent="6pqvd1AzHX-6ogDIh0My-2" source="6pqvd1AzHX-6ogDIh0My-14" target="6pqvd1AzHX-6ogDIh0My-20">
          <mxGeometry relative="1" as="geometry">
            <Array as="points">
              <mxPoint x="270" y="130" />
              <mxPoint x="30" y="130" />
              <mxPoint x="30" y="360" />
            </Array>
          </mxGeometry>
        </mxCell>
        <mxCell id="6pqvd1AzHX-6ogDIh0My-24" value="&amp;lt;&amp;lt;include&amp;gt;&amp;gt;" style="edgeLabel;html=1;align=center;verticalAlign=middle;resizable=0;points=[];" vertex="1" connectable="0" parent="6pqvd1AzHX-6ogDIh0My-22">
          <mxGeometry x="-0.6314" y="5" relative="1" as="geometry">
            <mxPoint x="-106" y="-5" as="offset" />
          </mxGeometry>
        </mxCell>
        <mxCell id="6pqvd1AzHX-6ogDIh0My-45" style="edgeStyle=orthogonalEdgeStyle;rounded=0;orthogonalLoop=1;jettySize=auto;html=1;entryX=0.5;entryY=0;entryDx=0;entryDy=0;" edge="1" parent="6pqvd1AzHX-6ogDIh0My-2" source="6pqvd1AzHX-6ogDIh0My-14" target="6pqvd1AzHX-6ogDIh0My-27">
          <mxGeometry relative="1" as="geometry">
            <Array as="points">
              <mxPoint x="355" y="50" />
              <mxPoint x="355" y="20" />
              <mxPoint x="440" y="20" />
            </Array>
          </mxGeometry>
        </mxCell>
        <mxCell id="6pqvd1AzHX-6ogDIh0My-70" value="DataFrame Validated" style="edgeLabel;html=1;align=center;verticalAlign=middle;resizable=0;points=[];" vertex="1" connectable="0" parent="6pqvd1AzHX-6ogDIh0My-45">
          <mxGeometry x="0.0437" y="1" relative="1" as="geometry">
            <mxPoint as="offset" />
          </mxGeometry>
        </mxCell>
        <mxCell id="6pqvd1AzHX-6ogDIh0My-14" value="Validate Schema" style="ellipse;whiteSpace=wrap;html=1;" vertex="1" parent="6pqvd1AzHX-6ogDIh0My-2">
          <mxGeometry x="210" y="40" width="120" height="80" as="geometry" />
        </mxCell>
        <mxCell id="6pqvd1AzHX-6ogDIh0My-15" value="Report Shema Errors" style="ellipse;whiteSpace=wrap;html=1;" vertex="1" parent="6pqvd1AzHX-6ogDIh0My-2">
          <mxGeometry x="20" y="40" width="120" height="80" as="geometry" />
        </mxCell>
        <mxCell id="6pqvd1AzHX-6ogDIh0My-19" value="Check Data Types" style="ellipse;whiteSpace=wrap;html=1;" vertex="1" parent="6pqvd1AzHX-6ogDIh0My-2">
          <mxGeometry x="120" y="180" width="120" height="80" as="geometry" />
        </mxCell>
        <mxCell id="6pqvd1AzHX-6ogDIh0My-20" value="Verify Required Columns" style="ellipse;whiteSpace=wrap;html=1;" vertex="1" parent="6pqvd1AzHX-6ogDIh0My-2">
          <mxGeometry x="60" y="320" width="120" height="80" as="geometry" />
        </mxCell>
        <mxCell id="6pqvd1AzHX-6ogDIh0My-31" style="edgeStyle=orthogonalEdgeStyle;rounded=0;orthogonalLoop=1;jettySize=auto;html=1;entryX=0;entryY=0.5;entryDx=0;entryDy=0;dashed=1;" edge="1" parent="6pqvd1AzHX-6ogDIh0My-2" source="6pqvd1AzHX-6ogDIh0My-27" target="6pqvd1AzHX-6ogDIh0My-28">
          <mxGeometry relative="1" as="geometry">
            <Array as="points">
              <mxPoint x="360" y="75" />
              <mxPoint x="360" y="180" />
            </Array>
          </mxGeometry>
        </mxCell>
        <mxCell id="6pqvd1AzHX-6ogDIh0My-32" style="edgeStyle=orthogonalEdgeStyle;rounded=0;orthogonalLoop=1;jettySize=auto;html=1;entryX=0;entryY=0.5;entryDx=0;entryDy=0;dashed=1;" edge="1" parent="6pqvd1AzHX-6ogDIh0My-2" source="6pqvd1AzHX-6ogDIh0My-27" target="6pqvd1AzHX-6ogDIh0My-29">
          <mxGeometry relative="1" as="geometry">
            <Array as="points">
              <mxPoint x="360" y="75" />
              <mxPoint x="360" y="265" />
            </Array>
          </mxGeometry>
        </mxCell>
        <mxCell id="6pqvd1AzHX-6ogDIh0My-33" style="edgeStyle=orthogonalEdgeStyle;rounded=0;orthogonalLoop=1;jettySize=auto;html=1;entryX=0;entryY=0.5;entryDx=0;entryDy=0;dashed=1;" edge="1" parent="6pqvd1AzHX-6ogDIh0My-2" source="6pqvd1AzHX-6ogDIh0My-27" target="6pqvd1AzHX-6ogDIh0My-30">
          <mxGeometry relative="1" as="geometry">
            <Array as="points">
              <mxPoint x="360" y="75" />
              <mxPoint x="360" y="355" />
            </Array>
          </mxGeometry>
        </mxCell>
        <mxCell id="6pqvd1AzHX-6ogDIh0My-34" value="&amp;lt;&amp;lt;include&amp;gt;&amp;gt;" style="edgeLabel;html=1;align=center;verticalAlign=middle;resizable=0;points=[];" vertex="1" connectable="0" parent="6pqvd1AzHX-6ogDIh0My-33">
          <mxGeometry x="-0.6125" y="1" relative="1" as="geometry">
            <mxPoint as="offset" />
          </mxGeometry>
        </mxCell>
        <mxCell id="6pqvd1AzHX-6ogDIh0My-27" value="Clean and Resample Data" style="ellipse;whiteSpace=wrap;html=1;" vertex="1" parent="6pqvd1AzHX-6ogDIh0My-2">
          <mxGeometry x="380" y="40" width="120" height="70" as="geometry" />
        </mxCell>
        <mxCell id="6pqvd1AzHX-6ogDIh0My-28" value="Resample Daily/Hourly" style="ellipse;whiteSpace=wrap;html=1;" vertex="1" parent="6pqvd1AzHX-6ogDIh0My-2">
          <mxGeometry x="380" y="160" width="120" height="40" as="geometry" />
        </mxCell>
        <mxCell id="6pqvd1AzHX-6ogDIh0My-29" value="Filter Unneeded Columns" style="ellipse;whiteSpace=wrap;html=1;" vertex="1" parent="6pqvd1AzHX-6ogDIh0My-2">
          <mxGeometry x="380" y="240" width="120" height="50" as="geometry" />
        </mxCell>
        <mxCell id="6pqvd1AzHX-6ogDIh0My-30" value="Removing Missing/Negative" style="ellipse;whiteSpace=wrap;html=1;" vertex="1" parent="6pqvd1AzHX-6ogDIh0My-2">
          <mxGeometry x="380" y="330" width="120" height="50" as="geometry" />
        </mxCell>
        <mxCell id="6pqvd1AzHX-6ogDIh0My-4" value="" style="swimlane;startSize=0;" vertex="1" parent="VtsKrZhrMiqrWmQ-cmWZ-164">
          <mxGeometry x="1430" y="250" width="550" height="480" as="geometry" />
        </mxCell>
        <mxCell id="6pqvd1AzHX-6ogDIh0My-56" style="edgeStyle=orthogonalEdgeStyle;rounded=0;orthogonalLoop=1;jettySize=auto;html=1;entryX=0;entryY=0.5;entryDx=0;entryDy=0;dashed=1;" edge="1" parent="6pqvd1AzHX-6ogDIh0My-4" source="6pqvd1AzHX-6ogDIh0My-48" target="6pqvd1AzHX-6ogDIh0My-55">
          <mxGeometry relative="1" as="geometry">
            <Array as="points">
              <mxPoint x="60" y="165" />
            </Array>
          </mxGeometry>
        </mxCell>
        <mxCell id="6pqvd1AzHX-6ogDIh0My-63" value="&amp;lt;&amp;lt;include&amp;gt;&amp;gt;" style="edgeLabel;html=1;align=center;verticalAlign=middle;resizable=0;points=[];" vertex="1" connectable="0" parent="6pqvd1AzHX-6ogDIh0My-56">
          <mxGeometry x="-0.6245" y="-3" relative="1" as="geometry">
            <mxPoint y="5" as="offset" />
          </mxGeometry>
        </mxCell>
        <mxCell id="6pqvd1AzHX-6ogDIh0My-58" style="edgeStyle=orthogonalEdgeStyle;rounded=0;orthogonalLoop=1;jettySize=auto;html=1;entryX=0.5;entryY=0;entryDx=0;entryDy=0;" edge="1" parent="6pqvd1AzHX-6ogDIh0My-4" source="6pqvd1AzHX-6ogDIh0My-48" target="6pqvd1AzHX-6ogDIh0My-57">
          <mxGeometry relative="1" as="geometry" />
        </mxCell>
        <mxCell id="6pqvd1AzHX-6ogDIh0My-48" value="Generate HeatMaps" style="ellipse;whiteSpace=wrap;html=1;" vertex="1" parent="6pqvd1AzHX-6ogDIh0My-4">
          <mxGeometry x="50" y="70" width="120" height="50" as="geometry" />
        </mxCell>
        <mxCell id="6pqvd1AzHX-6ogDIh0My-53" style="edgeStyle=orthogonalEdgeStyle;rounded=0;orthogonalLoop=1;jettySize=auto;html=1;entryX=0;entryY=0.5;entryDx=0;entryDy=0;dashed=1;" edge="1" parent="6pqvd1AzHX-6ogDIh0My-4" source="6pqvd1AzHX-6ogDIh0My-50" target="6pqvd1AzHX-6ogDIh0My-51">
          <mxGeometry relative="1" as="geometry">
            <Array as="points">
              <mxPoint x="360" y="175" />
            </Array>
          </mxGeometry>
        </mxCell>
        <mxCell id="6pqvd1AzHX-6ogDIh0My-54" style="edgeStyle=orthogonalEdgeStyle;rounded=0;orthogonalLoop=1;jettySize=auto;html=1;entryX=0;entryY=0.5;entryDx=0;entryDy=0;dashed=1;" edge="1" parent="6pqvd1AzHX-6ogDIh0My-4" source="6pqvd1AzHX-6ogDIh0My-50" target="6pqvd1AzHX-6ogDIh0My-52">
          <mxGeometry relative="1" as="geometry">
            <Array as="points">
              <mxPoint x="360" y="265" />
            </Array>
          </mxGeometry>
        </mxCell>
        <mxCell id="6pqvd1AzHX-6ogDIh0My-62" value="&amp;lt;&amp;lt;include&amp;gt;&amp;gt;" style="edgeLabel;html=1;align=center;verticalAlign=middle;resizable=0;points=[];" vertex="1" connectable="0" parent="6pqvd1AzHX-6ogDIh0My-54">
          <mxGeometry x="-0.7754" y="3" relative="1" as="geometry">
            <mxPoint as="offset" />
          </mxGeometry>
        </mxCell>
        <mxCell id="6pqvd1AzHX-6ogDIh0My-59" style="edgeStyle=orthogonalEdgeStyle;rounded=0;orthogonalLoop=1;jettySize=auto;html=1;entryX=0.5;entryY=0;entryDx=0;entryDy=0;" edge="1" parent="6pqvd1AzHX-6ogDIh0My-4" source="6pqvd1AzHX-6ogDIh0My-50" target="6pqvd1AzHX-6ogDIh0My-57">
          <mxGeometry relative="1" as="geometry">
            <mxPoint x="260" y="240" as="targetPoint" />
          </mxGeometry>
        </mxCell>
        <mxCell id="6pqvd1AzHX-6ogDIh0My-73" value="Visualization Ready" style="edgeLabel;html=1;align=center;verticalAlign=middle;resizable=0;points=[];" vertex="1" connectable="0" parent="6pqvd1AzHX-6ogDIh0My-59">
          <mxGeometry x="0.5777" y="-1" relative="1" as="geometry">
            <mxPoint as="offset" />
          </mxGeometry>
        </mxCell>
        <mxCell id="6pqvd1AzHX-6ogDIh0My-50" value="Generate Charts &amp;amp; Plots" style="ellipse;whiteSpace=wrap;html=1;" vertex="1" parent="6pqvd1AzHX-6ogDIh0My-4">
          <mxGeometry x="340" y="70" width="120" height="50" as="geometry" />
        </mxCell>
        <mxCell id="6pqvd1AzHX-6ogDIh0My-51" value="Plot Time-Series Trends" style="ellipse;whiteSpace=wrap;html=1;" vertex="1" parent="6pqvd1AzHX-6ogDIh0My-4">
          <mxGeometry x="380" y="150" width="120" height="50" as="geometry" />
        </mxCell>
        <mxCell id="6pqvd1AzHX-6ogDIh0My-52" value="Plots Histograms and Boxplots" style="ellipse;whiteSpace=wrap;html=1;" vertex="1" parent="6pqvd1AzHX-6ogDIh0My-4">
          <mxGeometry x="390" y="230" width="120" height="70" as="geometry" />
        </mxCell>
        <mxCell id="6pqvd1AzHX-6ogDIh0My-55" value="Aggregate Spatial Points" style="ellipse;whiteSpace=wrap;html=1;" vertex="1" parent="6pqvd1AzHX-6ogDIh0My-4">
          <mxGeometry x="90" y="140" width="120" height="50" as="geometry" />
        </mxCell>
        <mxCell id="6pqvd1AzHX-6ogDIh0My-61" style="edgeStyle=orthogonalEdgeStyle;rounded=0;orthogonalLoop=1;jettySize=auto;html=1;entryX=0.5;entryY=0;entryDx=0;entryDy=0;dashed=1;" edge="1" parent="6pqvd1AzHX-6ogDIh0My-4" source="6pqvd1AzHX-6ogDIh0My-57" target="6pqvd1AzHX-6ogDIh0My-60">
          <mxGeometry relative="1" as="geometry">
            <Array as="points">
              <mxPoint x="180" y="290" />
            </Array>
          </mxGeometry>
        </mxCell>
        <mxCell id="6pqvd1AzHX-6ogDIh0My-64" value="&amp;lt;&amp;lt;include&amp;gt;&amp;gt;" style="edgeLabel;html=1;align=center;verticalAlign=middle;resizable=0;points=[];" vertex="1" connectable="0" parent="6pqvd1AzHX-6ogDIh0My-61">
          <mxGeometry x="-0.3" y="-1" relative="1" as="geometry">
            <mxPoint y="22" as="offset" />
          </mxGeometry>
        </mxCell>
        <mxCell id="6pqvd1AzHX-6ogDIh0My-57" value="View Report" style="ellipse;whiteSpace=wrap;html=1;" vertex="1" parent="6pqvd1AzHX-6ogDIh0My-4">
          <mxGeometry x="200" y="250" width="120" height="80" as="geometry" />
        </mxCell>
        <mxCell id="6pqvd1AzHX-6ogDIh0My-60" value="Open HTML/PNG File" style="ellipse;whiteSpace=wrap;html=1;" vertex="1" parent="6pqvd1AzHX-6ogDIh0My-4">
          <mxGeometry x="120" y="350" width="120" height="50" as="geometry" />
        </mxCell>
        <mxCell id="6pqvd1AzHX-6ogDIh0My-12" value="Data Import" style="text;html=1;align=center;verticalAlign=middle;whiteSpace=wrap;rounded=0;" vertex="1" parent="VtsKrZhrMiqrWmQ-cmWZ-164">
          <mxGeometry x="190" y="220" width="99" height="30" as="geometry" />
        </mxCell>
        <mxCell id="6pqvd1AzHX-6ogDIh0My-13" value="Cleaning and Preprocessing" style="text;html=1;align=center;verticalAlign=middle;whiteSpace=wrap;rounded=0;" vertex="1" parent="VtsKrZhrMiqrWmQ-cmWZ-164">
          <mxGeometry x="720" y="220" width="170" height="30" as="geometry" />
        </mxCell>
        <mxCell id="6pqvd1AzHX-6ogDIh0My-35" style="edgeStyle=orthogonalEdgeStyle;rounded=0;orthogonalLoop=1;jettySize=auto;html=1;entryX=0.5;entryY=0;entryDx=0;entryDy=0;" edge="1" parent="VtsKrZhrMiqrWmQ-cmWZ-164" source="6pqvd1AzHX-6ogDIh0My-6" target="6pqvd1AzHX-6ogDIh0My-14">
          <mxGeometry relative="1" as="geometry">
            <Array as="points">
              <mxPoint x="460" y="470" />
              <mxPoint x="460" y="270" />
              <mxPoint x="780" y="270" />
            </Array>
          </mxGeometry>
        </mxCell>
        <mxCell id="6pqvd1AzHX-6ogDIh0My-69" value="Provide DataFrame&amp;nbsp;&lt;div&gt;for Validation&lt;/div&gt;" style="edgeLabel;html=1;align=center;verticalAlign=middle;resizable=0;points=[];" vertex="1" connectable="0" parent="6pqvd1AzHX-6ogDIh0My-35">
          <mxGeometry x="-0.7046" y="-5" relative="1" as="geometry">
            <mxPoint x="4" y="-5" as="offset" />
          </mxGeometry>
        </mxCell>
        <mxCell id="6pqvd1AzHX-6ogDIh0My-46" style="edgeStyle=orthogonalEdgeStyle;rounded=0;orthogonalLoop=1;jettySize=auto;html=1;entryX=0.5;entryY=0;entryDx=0;entryDy=0;" edge="1" parent="VtsKrZhrMiqrWmQ-cmWZ-164" source="6pqvd1AzHX-6ogDIh0My-27" target="6pqvd1AzHX-6ogDIh0My-37">
          <mxGeometry relative="1" as="geometry">
            <Array as="points">
              <mxPoint x="1130" y="325" />
              <mxPoint x="1130" y="260" />
              <mxPoint x="1270" y="260" />
            </Array>
          </mxGeometry>
        </mxCell>
        <mxCell id="6pqvd1AzHX-6ogDIh0My-71" value="Provide Prepared data&lt;br&gt;for Analysis" style="edgeLabel;html=1;align=center;verticalAlign=middle;resizable=0;points=[];" vertex="1" connectable="0" parent="6pqvd1AzHX-6ogDIh0My-46">
          <mxGeometry x="-0.5921" y="-1" relative="1" as="geometry">
            <mxPoint as="offset" />
          </mxGeometry>
        </mxCell>
        <mxCell id="6pqvd1AzHX-6ogDIh0My-47" value="Analysis" style="text;html=1;align=center;verticalAlign=middle;whiteSpace=wrap;rounded=0;" vertex="1" parent="VtsKrZhrMiqrWmQ-cmWZ-164">
          <mxGeometry x="1240" y="220" width="60" height="30" as="geometry" />
        </mxCell>
        <mxCell id="6pqvd1AzHX-6ogDIh0My-65" style="edgeStyle=orthogonalEdgeStyle;rounded=0;orthogonalLoop=1;jettySize=auto;html=1;" edge="1" parent="VtsKrZhrMiqrWmQ-cmWZ-164" source="6pqvd1AzHX-6ogDIh0My-57">
          <mxGeometry relative="1" as="geometry">
            <mxPoint x="690" y="70" as="targetPoint" />
            <Array as="points">
              <mxPoint x="2000" y="570" />
              <mxPoint x="2000" y="70" />
              <mxPoint x="700" y="70" />
            </Array>
          </mxGeometry>
        </mxCell>
        <mxCell id="6pqvd1AzHX-6ogDIh0My-214" value="Visualized report ready" style="edgeLabel;html=1;align=center;verticalAlign=middle;resizable=0;points=[];" vertex="1" connectable="0" parent="6pqvd1AzHX-6ogDIh0My-65">
          <mxGeometry x="0.109" y="1" relative="1" as="geometry">
            <mxPoint as="offset" />
          </mxGeometry>
        </mxCell>
        <mxCell id="6pqvd1AzHX-6ogDIh0My-66" style="edgeStyle=orthogonalEdgeStyle;rounded=0;orthogonalLoop=1;jettySize=auto;html=1;entryX=0.5;entryY=0;entryDx=0;entryDy=0;" edge="1" parent="VtsKrZhrMiqrWmQ-cmWZ-164" source="6pqvd1AzHX-6ogDIh0My-37" target="6pqvd1AzHX-6ogDIh0My-48">
          <mxGeometry relative="1" as="geometry" />
        </mxCell>
        <mxCell id="6pqvd1AzHX-6ogDIh0My-67" style="edgeStyle=orthogonalEdgeStyle;rounded=0;orthogonalLoop=1;jettySize=auto;html=1;entryX=0.5;entryY=0;entryDx=0;entryDy=0;" edge="1" parent="VtsKrZhrMiqrWmQ-cmWZ-164" source="6pqvd1AzHX-6ogDIh0My-37" target="6pqvd1AzHX-6ogDIh0My-50">
          <mxGeometry relative="1" as="geometry" />
        </mxCell>
        <mxCell id="6pqvd1AzHX-6ogDIh0My-72" value="Analyzed Data prepaired for Visualization" style="edgeLabel;html=1;align=center;verticalAlign=middle;resizable=0;points=[];" vertex="1" connectable="0" parent="6pqvd1AzHX-6ogDIh0My-67">
          <mxGeometry x="-0.4824" y="1" relative="1" as="geometry">
            <mxPoint x="164" y="-4" as="offset" />
          </mxGeometry>
        </mxCell>
        <mxCell id="6pqvd1AzHX-6ogDIh0My-68" value="Visualization" style="text;html=1;align=center;verticalAlign=middle;whiteSpace=wrap;rounded=0;" vertex="1" parent="VtsKrZhrMiqrWmQ-cmWZ-164">
          <mxGeometry x="1690" y="220" width="60" height="30" as="geometry" />
        </mxCell>
        <mxCell id="VtsKrZhrMiqrWmQ-cmWZ-229" value="Class Diagram" style="swimlane;fillColor=default;" parent="1" vertex="1">
          <mxGeometry x="515" y="1830" width="1070" height="750" as="geometry" />
        </mxCell>
        <mxCell id="VtsKrZhrMiqrWmQ-cmWZ-277" value="CSVLoader" style="swimlane;fontStyle=0;childLayout=stackLayout;horizontal=1;startSize=30;horizontalStack=0;resizeParent=1;resizeParentMax=0;resizeLast=0;collapsible=1;marginBottom=0;whiteSpace=wrap;html=1;" parent="VtsKrZhrMiqrWmQ-cmWZ-229" vertex="1">
          <mxGeometry x="125" y="100" width="140" height="90" as="geometry" />
        </mxCell>
        <mxCell id="VtsKrZhrMiqrWmQ-cmWZ-278" value="file_path: str" style="text;strokeColor=none;fillColor=none;align=left;verticalAlign=middle;spacingLeft=4;spacingRight=4;overflow=hidden;points=[[0,0.5],[1,0.5]];portConstraint=eastwest;rotatable=0;whiteSpace=wrap;html=1;" parent="VtsKrZhrMiqrWmQ-cmWZ-277" vertex="1">
          <mxGeometry y="30" width="140" height="30" as="geometry" />
        </mxCell>
        <mxCell id="VtsKrZhrMiqrWmQ-cmWZ-279" value="load(): DataFrame" style="text;strokeColor=none;fillColor=none;align=left;verticalAlign=middle;spacingLeft=4;spacingRight=4;overflow=hidden;points=[[0,0.5],[1,0.5]];portConstraint=eastwest;rotatable=0;whiteSpace=wrap;html=1;" parent="VtsKrZhrMiqrWmQ-cmWZ-277" vertex="1">
          <mxGeometry y="60" width="140" height="30" as="geometry" />
        </mxCell>
        <mxCell id="VtsKrZhrMiqrWmQ-cmWZ-281" value="Schema Validator" style="swimlane;fontStyle=0;childLayout=stackLayout;horizontal=1;startSize=30;horizontalStack=0;resizeParent=1;resizeParentMax=0;resizeLast=0;collapsible=1;marginBottom=0;whiteSpace=wrap;html=1;" parent="VtsKrZhrMiqrWmQ-cmWZ-229" vertex="1">
          <mxGeometry x="349.80999999999995" y="100" width="140" height="90" as="geometry" />
        </mxCell>
        <mxCell id="VtsKrZhrMiqrWmQ-cmWZ-282" value="required_columns: List" style="text;strokeColor=none;fillColor=none;align=left;verticalAlign=middle;spacingLeft=4;spacingRight=4;overflow=hidden;points=[[0,0.5],[1,0.5]];portConstraint=eastwest;rotatable=0;whiteSpace=wrap;html=1;" parent="VtsKrZhrMiqrWmQ-cmWZ-281" vertex="1">
          <mxGeometry y="30" width="140" height="30" as="geometry" />
        </mxCell>
        <mxCell id="VtsKrZhrMiqrWmQ-cmWZ-283" value="validate(df: DataFrame)" style="text;strokeColor=none;fillColor=none;align=left;verticalAlign=middle;spacingLeft=4;spacingRight=4;overflow=hidden;points=[[0,0.5],[1,0.5]];portConstraint=eastwest;rotatable=0;whiteSpace=wrap;html=1;" parent="VtsKrZhrMiqrWmQ-cmWZ-281" vertex="1">
          <mxGeometry y="60" width="140" height="30" as="geometry" />
        </mxCell>
        <mxCell id="VtsKrZhrMiqrWmQ-cmWZ-305" style="edgeStyle=orthogonalEdgeStyle;rounded=0;orthogonalLoop=1;jettySize=auto;html=1;entryX=0.5;entryY=0;entryDx=0;entryDy=0;" parent="VtsKrZhrMiqrWmQ-cmWZ-229" source="VtsKrZhrMiqrWmQ-cmWZ-284" target="VtsKrZhrMiqrWmQ-cmWZ-287" edge="1">
          <mxGeometry relative="1" as="geometry" />
        </mxCell>
        <mxCell id="VtsKrZhrMiqrWmQ-cmWZ-284" value="Data Cleaner" style="swimlane;fontStyle=0;childLayout=stackLayout;horizontal=1;startSize=30;horizontalStack=0;resizeParent=1;resizeParentMax=0;resizeLast=0;collapsible=1;marginBottom=0;whiteSpace=wrap;html=1;" parent="VtsKrZhrMiqrWmQ-cmWZ-229" vertex="1">
          <mxGeometry x="586" y="100" width="140" height="60" as="geometry" />
        </mxCell>
        <mxCell id="VtsKrZhrMiqrWmQ-cmWZ-285" value="clean(df: DataFrame)" style="text;strokeColor=none;fillColor=none;align=left;verticalAlign=middle;spacingLeft=4;spacingRight=4;overflow=hidden;points=[[0,0.5],[1,0.5]];portConstraint=eastwest;rotatable=0;whiteSpace=wrap;html=1;" parent="VtsKrZhrMiqrWmQ-cmWZ-284" vertex="1">
          <mxGeometry y="30" width="140" height="30" as="geometry" />
        </mxCell>
        <mxCell id="VtsKrZhrMiqrWmQ-cmWZ-315" style="edgeStyle=orthogonalEdgeStyle;rounded=0;orthogonalLoop=1;jettySize=auto;html=1;entryX=0.5;entryY=0;entryDx=0;entryDy=0;" parent="VtsKrZhrMiqrWmQ-cmWZ-229" source="VtsKrZhrMiqrWmQ-cmWZ-287" target="VtsKrZhrMiqrWmQ-cmWZ-291" edge="1">
          <mxGeometry relative="1" as="geometry">
            <Array as="points">
              <mxPoint x="656" y="360" />
              <mxPoint x="150" y="360" />
            </Array>
          </mxGeometry>
        </mxCell>
        <mxCell id="VtsKrZhrMiqrWmQ-cmWZ-316" style="edgeStyle=orthogonalEdgeStyle;rounded=0;orthogonalLoop=1;jettySize=auto;html=1;" parent="VtsKrZhrMiqrWmQ-cmWZ-229" source="VtsKrZhrMiqrWmQ-cmWZ-287" target="VtsKrZhrMiqrWmQ-cmWZ-295" edge="1">
          <mxGeometry relative="1" as="geometry" />
        </mxCell>
        <mxCell id="VtsKrZhrMiqrWmQ-cmWZ-317" style="edgeStyle=orthogonalEdgeStyle;rounded=0;orthogonalLoop=1;jettySize=auto;html=1;entryX=0.5;entryY=0;entryDx=0;entryDy=0;" parent="VtsKrZhrMiqrWmQ-cmWZ-229" source="VtsKrZhrMiqrWmQ-cmWZ-287" target="VtsKrZhrMiqrWmQ-cmWZ-299" edge="1">
          <mxGeometry relative="1" as="geometry" />
        </mxCell>
        <mxCell id="VtsKrZhrMiqrWmQ-cmWZ-287" value="Resampler" style="swimlane;fontStyle=0;childLayout=stackLayout;horizontal=1;startSize=30;horizontalStack=0;resizeParent=1;resizeParentMax=0;resizeLast=0;collapsible=1;marginBottom=0;whiteSpace=wrap;html=1;" parent="VtsKrZhrMiqrWmQ-cmWZ-229" vertex="1">
          <mxGeometry x="579" y="220" width="154" height="120" as="geometry" />
        </mxCell>
        <mxCell id="VtsKrZhrMiqrWmQ-cmWZ-290" value="frequency: String" style="text;strokeColor=none;fillColor=none;align=left;verticalAlign=middle;spacingLeft=4;spacingRight=4;overflow=hidden;points=[[0,0.5],[1,0.5]];portConstraint=eastwest;rotatable=0;whiteSpace=wrap;html=1;" parent="VtsKrZhrMiqrWmQ-cmWZ-287" vertex="1">
          <mxGeometry y="30" width="154" height="30" as="geometry" />
        </mxCell>
        <mxCell id="VtsKrZhrMiqrWmQ-cmWZ-288" value="resample(df: DataFrame)" style="text;strokeColor=none;fillColor=none;align=left;verticalAlign=middle;spacingLeft=4;spacingRight=4;overflow=hidden;points=[[0,0.5],[1,0.5]];portConstraint=eastwest;rotatable=0;whiteSpace=wrap;html=1;" parent="VtsKrZhrMiqrWmQ-cmWZ-287" vertex="1">
          <mxGeometry y="60" width="154" height="30" as="geometry" />
        </mxCell>
        <mxCell id="VtsKrZhrMiqrWmQ-cmWZ-289" value="interpolate(df: DataFrame)" style="text;strokeColor=none;fillColor=none;align=left;verticalAlign=middle;spacingLeft=4;spacingRight=4;overflow=hidden;points=[[0,0.5],[1,0.5]];portConstraint=eastwest;rotatable=0;whiteSpace=wrap;html=1;" parent="VtsKrZhrMiqrWmQ-cmWZ-287" vertex="1">
          <mxGeometry y="90" width="154" height="30" as="geometry" />
        </mxCell>
        <mxCell id="VtsKrZhrMiqrWmQ-cmWZ-291" value="StatsCalculator" style="swimlane;fontStyle=0;childLayout=stackLayout;horizontal=1;startSize=30;horizontalStack=0;resizeParent=1;resizeParentMax=0;resizeLast=0;collapsible=1;marginBottom=0;whiteSpace=wrap;html=1;" parent="VtsKrZhrMiqrWmQ-cmWZ-229" vertex="1">
          <mxGeometry x="35" y="478" width="230" height="60" as="geometry" />
        </mxCell>
        <mxCell id="VtsKrZhrMiqrWmQ-cmWZ-292" value="compute_descriptive(df: DataFrame)" style="text;strokeColor=none;fillColor=none;align=left;verticalAlign=middle;spacingLeft=4;spacingRight=4;overflow=hidden;points=[[0,0.5],[1,0.5]];portConstraint=eastwest;rotatable=0;whiteSpace=wrap;html=1;" parent="VtsKrZhrMiqrWmQ-cmWZ-291" vertex="1">
          <mxGeometry y="30" width="230" height="30" as="geometry" />
        </mxCell>
        <mxCell id="VtsKrZhrMiqrWmQ-cmWZ-319" style="edgeStyle=orthogonalEdgeStyle;rounded=0;orthogonalLoop=1;jettySize=auto;html=1;entryX=0.5;entryY=0;entryDx=0;entryDy=0;" parent="VtsKrZhrMiqrWmQ-cmWZ-229" source="VtsKrZhrMiqrWmQ-cmWZ-295" target="VtsKrZhrMiqrWmQ-cmWZ-306" edge="1">
          <mxGeometry relative="1" as="geometry" />
        </mxCell>
        <mxCell id="VtsKrZhrMiqrWmQ-cmWZ-295" value="Time Series" style="swimlane;fontStyle=0;childLayout=stackLayout;horizontal=1;startSize=30;horizontalStack=0;resizeParent=1;resizeParentMax=0;resizeLast=0;collapsible=1;marginBottom=0;whiteSpace=wrap;html=1;" parent="VtsKrZhrMiqrWmQ-cmWZ-229" vertex="1">
          <mxGeometry x="325" y="478" width="285" height="90" as="geometry" />
        </mxCell>
        <mxCell id="VtsKrZhrMiqrWmQ-cmWZ-296" value="compute_trend(df: DataFrame)" style="text;strokeColor=none;fillColor=none;align=left;verticalAlign=middle;spacingLeft=4;spacingRight=4;overflow=hidden;points=[[0,0.5],[1,0.5]];portConstraint=eastwest;rotatable=0;whiteSpace=wrap;html=1;" parent="VtsKrZhrMiqrWmQ-cmWZ-295" vertex="1">
          <mxGeometry y="30" width="285" height="30" as="geometry" />
        </mxCell>
        <mxCell id="VtsKrZhrMiqrWmQ-cmWZ-298" value="compute_moving_average(df: DataFrame)" style="text;strokeColor=none;fillColor=none;align=left;verticalAlign=middle;spacingLeft=4;spacingRight=4;overflow=hidden;points=[[0,0.5],[1,0.5]];portConstraint=eastwest;rotatable=0;whiteSpace=wrap;html=1;" parent="VtsKrZhrMiqrWmQ-cmWZ-295" vertex="1">
          <mxGeometry y="60" width="285" height="30" as="geometry" />
        </mxCell>
        <mxCell id="VtsKrZhrMiqrWmQ-cmWZ-299" value="ResidualDecomposer" style="swimlane;fontStyle=0;childLayout=stackLayout;horizontal=1;startSize=30;horizontalStack=0;resizeParent=1;resizeParentMax=0;resizeLast=0;collapsible=1;marginBottom=0;whiteSpace=wrap;html=1;" parent="VtsKrZhrMiqrWmQ-cmWZ-229" vertex="1">
          <mxGeometry x="665" y="478" width="225" height="60" as="geometry" />
        </mxCell>
        <mxCell id="VtsKrZhrMiqrWmQ-cmWZ-300" value="decompose_stl(df: Series, period: int)" style="text;strokeColor=none;fillColor=none;align=left;verticalAlign=middle;spacingLeft=4;spacingRight=4;overflow=hidden;points=[[0,0.5],[1,0.5]];portConstraint=eastwest;rotatable=0;whiteSpace=wrap;html=1;" parent="VtsKrZhrMiqrWmQ-cmWZ-299" vertex="1">
          <mxGeometry y="30" width="225" height="30" as="geometry" />
        </mxCell>
        <mxCell id="VtsKrZhrMiqrWmQ-cmWZ-303" style="edgeStyle=orthogonalEdgeStyle;rounded=0;orthogonalLoop=1;jettySize=auto;html=1;entryX=0;entryY=0.5;entryDx=0;entryDy=0;" parent="VtsKrZhrMiqrWmQ-cmWZ-229" edge="1">
          <mxGeometry relative="1" as="geometry">
            <mxPoint x="265" y="120" as="sourcePoint" />
            <mxPoint x="349.80999999999995" y="120" as="targetPoint" />
          </mxGeometry>
        </mxCell>
        <mxCell id="VtsKrZhrMiqrWmQ-cmWZ-304" style="edgeStyle=orthogonalEdgeStyle;rounded=0;orthogonalLoop=1;jettySize=auto;html=1;entryX=0;entryY=0.5;entryDx=0;entryDy=0;" parent="VtsKrZhrMiqrWmQ-cmWZ-229" edge="1">
          <mxGeometry relative="1" as="geometry">
            <mxPoint x="489.80999999999995" y="120" as="sourcePoint" />
            <mxPoint x="586" y="120" as="targetPoint" />
          </mxGeometry>
        </mxCell>
        <mxCell id="VtsKrZhrMiqrWmQ-cmWZ-306" value="ChartGenerator" style="swimlane;fontStyle=0;childLayout=stackLayout;horizontal=1;startSize=30;horizontalStack=0;resizeParent=1;resizeParentMax=0;resizeLast=0;collapsible=1;marginBottom=0;whiteSpace=wrap;html=1;" parent="VtsKrZhrMiqrWmQ-cmWZ-229" vertex="1">
          <mxGeometry x="315" y="610" width="305" height="120" as="geometry" />
        </mxCell>
        <mxCell id="VtsKrZhrMiqrWmQ-cmWZ-307" value="plot_histogram(df: DataFrame, path: str)" style="text;strokeColor=none;fillColor=none;align=left;verticalAlign=middle;spacingLeft=4;spacingRight=4;overflow=hidden;points=[[0,0.5],[1,0.5]];portConstraint=eastwest;rotatable=0;whiteSpace=wrap;html=1;" parent="VtsKrZhrMiqrWmQ-cmWZ-306" vertex="1">
          <mxGeometry y="30" width="305" height="30" as="geometry" />
        </mxCell>
        <mxCell id="VtsKrZhrMiqrWmQ-cmWZ-308" value="plot_boxplot(df: DataFrame, path: str)" style="text;strokeColor=none;fillColor=none;align=left;verticalAlign=middle;spacingLeft=4;spacingRight=4;overflow=hidden;points=[[0,0.5],[1,0.5]];portConstraint=eastwest;rotatable=0;whiteSpace=wrap;html=1;" parent="VtsKrZhrMiqrWmQ-cmWZ-306" vertex="1">
          <mxGeometry y="60" width="305" height="30" as="geometry" />
        </mxCell>
        <mxCell id="VtsKrZhrMiqrWmQ-cmWZ-309" value="plot_time_series(df: DataFrame, path: str)" style="text;strokeColor=none;fillColor=none;align=left;verticalAlign=middle;spacingLeft=4;spacingRight=4;overflow=hidden;points=[[0,0.5],[1,0.5]];portConstraint=eastwest;rotatable=0;whiteSpace=wrap;html=1;" parent="VtsKrZhrMiqrWmQ-cmWZ-306" vertex="1">
          <mxGeometry y="90" width="305" height="30" as="geometry" />
        </mxCell>
        <mxCell id="VtsKrZhrMiqrWmQ-cmWZ-310" value="Map Generator" style="swimlane;fontStyle=0;childLayout=stackLayout;horizontal=1;startSize=30;horizontalStack=0;resizeParent=1;resizeParentMax=0;resizeLast=0;collapsible=1;marginBottom=0;whiteSpace=wrap;html=1;" parent="VtsKrZhrMiqrWmQ-cmWZ-229" vertex="1">
          <mxGeometry x="795" y="620" width="265" height="60" as="geometry" />
        </mxCell>
        <mxCell id="VtsKrZhrMiqrWmQ-cmWZ-311" value="plot_heatmap(df: DataFrame, path: str)" style="text;strokeColor=none;fillColor=none;align=left;verticalAlign=middle;spacingLeft=4;spacingRight=4;overflow=hidden;points=[[0,0.5],[1,0.5]];portConstraint=eastwest;rotatable=0;whiteSpace=wrap;html=1;" parent="VtsKrZhrMiqrWmQ-cmWZ-310" vertex="1">
          <mxGeometry y="30" width="265" height="30" as="geometry" />
        </mxCell>
        <mxCell id="VtsKrZhrMiqrWmQ-cmWZ-314" style="edgeStyle=orthogonalEdgeStyle;rounded=0;orthogonalLoop=1;jettySize=auto;html=1;entryX=0.725;entryY=0.033;entryDx=0;entryDy=0;entryPerimeter=0;" parent="VtsKrZhrMiqrWmQ-cmWZ-229" source="VtsKrZhrMiqrWmQ-cmWZ-287" target="VtsKrZhrMiqrWmQ-cmWZ-310" edge="1">
          <mxGeometry relative="1" as="geometry" />
        </mxCell>
        <mxCell id="VtsKrZhrMiqrWmQ-cmWZ-318" style="edgeStyle=orthogonalEdgeStyle;rounded=0;orthogonalLoop=1;jettySize=auto;html=1;entryX=0;entryY=0.125;entryDx=0;entryDy=0;entryPerimeter=0;" parent="VtsKrZhrMiqrWmQ-cmWZ-229" source="VtsKrZhrMiqrWmQ-cmWZ-291" target="VtsKrZhrMiqrWmQ-cmWZ-306" edge="1">
          <mxGeometry relative="1" as="geometry">
            <Array as="points">
              <mxPoint x="150" y="625" />
            </Array>
          </mxGeometry>
        </mxCell>
        <mxCell id="VtsKrZhrMiqrWmQ-cmWZ-320" style="edgeStyle=orthogonalEdgeStyle;rounded=0;orthogonalLoop=1;jettySize=auto;html=1;entryX=1;entryY=0.15;entryDx=0;entryDy=0;entryPerimeter=0;" parent="VtsKrZhrMiqrWmQ-cmWZ-229" source="VtsKrZhrMiqrWmQ-cmWZ-299" target="VtsKrZhrMiqrWmQ-cmWZ-306" edge="1">
          <mxGeometry relative="1" as="geometry">
            <Array as="points">
              <mxPoint x="715" y="628" />
            </Array>
          </mxGeometry>
        </mxCell>
        <mxCell id="6pqvd1AzHX-6ogDIh0My-11" value="&amp;lt;&amp;lt;Include&amp;gt;&amp;gt;" style="edgeLabel;html=1;align=center;verticalAlign=middle;resizable=0;points=[];" vertex="1" connectable="0" parent="1">
          <mxGeometry x="1390" y="1390" as="geometry" />
        </mxCell>
        <mxCell id="6pqvd1AzHX-6ogDIh0My-284" value="Deployment Diagram" style="swimlane;fillColor=default;" vertex="1" parent="1">
          <mxGeometry x="1870" y="1840" width="1085" height="750" as="geometry" />
        </mxCell>
        <mxCell id="6pqvd1AzHX-6ogDIh0My-320" value="User Workstation" style="verticalAlign=top;align=left;spacingTop=8;spacingLeft=2;spacingRight=12;shape=cube;size=10;direction=south;fontStyle=4;html=1;whiteSpace=wrap;" vertex="1" parent="6pqvd1AzHX-6ogDIh0My-284">
          <mxGeometry x="30" y="330" width="370" height="324" as="geometry" />
        </mxCell>
        <mxCell id="6pqvd1AzHX-6ogDIh0My-321" value="Local Pyhon enviroment" style="verticalAlign=top;align=left;spacingTop=8;spacingLeft=2;spacingRight=12;shape=cube;size=10;direction=south;fontStyle=4;html=1;whiteSpace=wrap;" vertex="1" parent="6pqvd1AzHX-6ogDIh0My-284">
          <mxGeometry x="560" y="300" width="495" height="330" as="geometry" />
        </mxCell>
        <mxCell id="6pqvd1AzHX-6ogDIh0My-322" value="Pandas" style="html=1;dropTarget=0;whiteSpace=wrap;" vertex="1" parent="6pqvd1AzHX-6ogDIh0My-284">
          <mxGeometry x="590" y="390" width="124" height="62" as="geometry" />
        </mxCell>
        <mxCell id="6pqvd1AzHX-6ogDIh0My-323" value="" style="shape=module;jettyWidth=8;jettyHeight=4;" vertex="1" parent="6pqvd1AzHX-6ogDIh0My-322">
          <mxGeometry x="1" width="20" height="20" relative="1" as="geometry">
            <mxPoint x="-27" y="7" as="offset" />
          </mxGeometry>
        </mxCell>
        <mxCell id="6pqvd1AzHX-6ogDIh0My-324" value="mathplotlib" style="html=1;dropTarget=0;whiteSpace=wrap;" vertex="1" parent="6pqvd1AzHX-6ogDIh0My-284">
          <mxGeometry x="830" y="390" width="124" height="62" as="geometry" />
        </mxCell>
        <mxCell id="6pqvd1AzHX-6ogDIh0My-325" value="" style="shape=module;jettyWidth=8;jettyHeight=4;" vertex="1" parent="6pqvd1AzHX-6ogDIh0My-324">
          <mxGeometry x="1" width="20" height="20" relative="1" as="geometry">
            <mxPoint x="-27" y="7" as="offset" />
          </mxGeometry>
        </mxCell>
        <mxCell id="6pqvd1AzHX-6ogDIh0My-326" value="Statsmodels" style="html=1;dropTarget=0;whiteSpace=wrap;" vertex="1" parent="6pqvd1AzHX-6ogDIh0My-284">
          <mxGeometry x="590" y="510" width="124" height="62" as="geometry" />
        </mxCell>
        <mxCell id="6pqvd1AzHX-6ogDIh0My-327" value="" style="shape=module;jettyWidth=8;jettyHeight=4;" vertex="1" parent="6pqvd1AzHX-6ogDIh0My-326">
          <mxGeometry x="1" width="20" height="20" relative="1" as="geometry">
            <mxPoint x="-27" y="7" as="offset" />
          </mxGeometry>
        </mxCell>
        <mxCell id="6pqvd1AzHX-6ogDIh0My-328" value="Folium" style="html=1;dropTarget=0;whiteSpace=wrap;" vertex="1" parent="6pqvd1AzHX-6ogDIh0My-284">
          <mxGeometry x="830" y="520" width="124" height="62" as="geometry" />
        </mxCell>
        <mxCell id="6pqvd1AzHX-6ogDIh0My-329" value="" style="shape=module;jettyWidth=8;jettyHeight=4;" vertex="1" parent="6pqvd1AzHX-6ogDIh0My-328">
          <mxGeometry x="1" width="20" height="20" relative="1" as="geometry">
            <mxPoint x="-27" y="7" as="offset" />
          </mxGeometry>
        </mxCell>
        <mxCell id="6pqvd1AzHX-6ogDIh0My-331" value="User" style="shape=umlActor;verticalLabelPosition=bottom;verticalAlign=top;html=1;outlineConnect=0;" vertex="1" parent="6pqvd1AzHX-6ogDIh0My-284">
          <mxGeometry x="110" y="150" width="30" height="60" as="geometry" />
        </mxCell>
        <mxCell id="6pqvd1AzHX-6ogDIh0My-336" style="edgeStyle=orthogonalEdgeStyle;rounded=0;orthogonalLoop=1;jettySize=auto;html=1;exitX=0.5;exitY=1;exitDx=0;exitDy=0;entryX=0.5;entryY=0;entryDx=0;entryDy=0;curved=1;" edge="1" parent="6pqvd1AzHX-6ogDIh0My-284" source="6pqvd1AzHX-6ogDIh0My-332" target="6pqvd1AzHX-6ogDIh0My-335">
          <mxGeometry relative="1" as="geometry" />
        </mxCell>
        <mxCell id="6pqvd1AzHX-6ogDIh0My-338" value="Reads" style="edgeLabel;html=1;align=center;verticalAlign=middle;resizable=0;points=[];" vertex="1" connectable="0" parent="6pqvd1AzHX-6ogDIh0My-336">
          <mxGeometry x="0.0102" relative="1" as="geometry">
            <mxPoint as="offset" />
          </mxGeometry>
        </mxCell>
        <mxCell id="6pqvd1AzHX-6ogDIh0My-341" style="edgeStyle=orthogonalEdgeStyle;rounded=0;orthogonalLoop=1;jettySize=auto;html=1;entryX=0;entryY=0.5;entryDx=0;entryDy=0;" edge="1" parent="6pqvd1AzHX-6ogDIh0My-284" source="6pqvd1AzHX-6ogDIh0My-332" target="6pqvd1AzHX-6ogDIh0My-322">
          <mxGeometry relative="1" as="geometry">
            <Array as="points">
              <mxPoint x="380" y="445" />
              <mxPoint x="380" y="421" />
            </Array>
          </mxGeometry>
        </mxCell>
        <mxCell id="6pqvd1AzHX-6ogDIh0My-342" value="Import libraries" style="edgeLabel;html=1;align=center;verticalAlign=middle;resizable=0;points=[];" vertex="1" connectable="0" parent="6pqvd1AzHX-6ogDIh0My-341">
          <mxGeometry x="0.606" relative="1" as="geometry">
            <mxPoint x="-191" y="9" as="offset" />
          </mxGeometry>
        </mxCell>
        <mxCell id="6pqvd1AzHX-6ogDIh0My-345" style="edgeStyle=orthogonalEdgeStyle;rounded=0;orthogonalLoop=1;jettySize=auto;html=1;entryX=0;entryY=0.5;entryDx=0;entryDy=0;" edge="1" parent="6pqvd1AzHX-6ogDIh0My-284" source="6pqvd1AzHX-6ogDIh0My-332" target="6pqvd1AzHX-6ogDIh0My-326">
          <mxGeometry relative="1" as="geometry">
            <Array as="points">
              <mxPoint x="380" y="445" />
              <mxPoint x="380" y="541" />
            </Array>
          </mxGeometry>
        </mxCell>
        <mxCell id="6pqvd1AzHX-6ogDIh0My-346" style="edgeStyle=orthogonalEdgeStyle;rounded=0;orthogonalLoop=1;jettySize=auto;html=1;entryX=0.5;entryY=0;entryDx=0;entryDy=0;" edge="1" parent="6pqvd1AzHX-6ogDIh0My-284" source="6pqvd1AzHX-6ogDIh0My-332" target="6pqvd1AzHX-6ogDIh0My-324">
          <mxGeometry relative="1" as="geometry">
            <Array as="points">
              <mxPoint x="380" y="445" />
              <mxPoint x="380" y="360" />
              <mxPoint x="890" y="360" />
              <mxPoint x="890" y="390" />
            </Array>
          </mxGeometry>
        </mxCell>
        <mxCell id="6pqvd1AzHX-6ogDIh0My-349" style="edgeStyle=orthogonalEdgeStyle;rounded=0;orthogonalLoop=1;jettySize=auto;html=1;entryX=0.5;entryY=1;entryDx=0;entryDy=0;" edge="1" parent="6pqvd1AzHX-6ogDIh0My-284" source="6pqvd1AzHX-6ogDIh0My-332" target="6pqvd1AzHX-6ogDIh0My-328">
          <mxGeometry relative="1" as="geometry">
            <Array as="points">
              <mxPoint x="380" y="445" />
              <mxPoint x="380" y="602" />
              <mxPoint x="892" y="602" />
            </Array>
          </mxGeometry>
        </mxCell>
        <mxCell id="6pqvd1AzHX-6ogDIh0My-332" value="prototype.py" style="html=1;dropTarget=0;whiteSpace=wrap;" vertex="1" parent="6pqvd1AzHX-6ogDIh0My-284">
          <mxGeometry x="40" y="410" width="140" height="70" as="geometry" />
        </mxCell>
        <mxCell id="6pqvd1AzHX-6ogDIh0My-333" value="" style="shape=module;jettyWidth=8;jettyHeight=4;" vertex="1" parent="6pqvd1AzHX-6ogDIh0My-332">
          <mxGeometry x="1" width="20" height="20" relative="1" as="geometry">
            <mxPoint x="-27" y="7" as="offset" />
          </mxGeometry>
        </mxCell>
        <mxCell id="6pqvd1AzHX-6ogDIh0My-334" value="output" style="shape=folder;fontStyle=1;spacingTop=10;tabWidth=40;tabHeight=14;tabPosition=left;html=1;whiteSpace=wrap;" vertex="1" parent="6pqvd1AzHX-6ogDIh0My-284">
          <mxGeometry x="270" y="550" width="86.8" height="62" as="geometry" />
        </mxCell>
        <mxCell id="6pqvd1AzHX-6ogDIh0My-335" value="air_quality_data.csv" style="html=1;whiteSpace=wrap;" vertex="1" parent="6pqvd1AzHX-6ogDIh0My-284">
          <mxGeometry x="70" y="540" width="110" height="50" as="geometry" />
        </mxCell>
        <mxCell id="6pqvd1AzHX-6ogDIh0My-339" style="edgeStyle=orthogonalEdgeStyle;rounded=0;orthogonalLoop=1;jettySize=auto;html=1;entryX=0;entryY=0;entryDx=0;entryDy=38;entryPerimeter=0;curved=1;" edge="1" parent="6pqvd1AzHX-6ogDIh0My-284" source="6pqvd1AzHX-6ogDIh0My-332" target="6pqvd1AzHX-6ogDIh0My-334">
          <mxGeometry relative="1" as="geometry" />
        </mxCell>
        <mxCell id="6pqvd1AzHX-6ogDIh0My-340" value="Writes" style="edgeLabel;html=1;align=center;verticalAlign=middle;resizable=0;points=[];" vertex="1" connectable="0" parent="6pqvd1AzHX-6ogDIh0My-339">
          <mxGeometry x="0.2354" y="2" relative="1" as="geometry">
            <mxPoint x="13" y="-1" as="offset" />
          </mxGeometry>
        </mxCell>
        <mxCell id="6pqvd1AzHX-6ogDIh0My-343" style="edgeStyle=orthogonalEdgeStyle;rounded=0;orthogonalLoop=1;jettySize=auto;html=1;entryX=0.005;entryY=0.746;entryDx=0;entryDy=0;entryPerimeter=0;" edge="1" parent="6pqvd1AzHX-6ogDIh0My-284" target="6pqvd1AzHX-6ogDIh0My-320">
          <mxGeometry relative="1" as="geometry">
            <mxPoint x="124" y="240" as="sourcePoint" />
          </mxGeometry>
        </mxCell>
        <mxCell id="6pqvd1AzHX-6ogDIh0My-344" value="Uses workstation" style="edgeLabel;html=1;align=center;verticalAlign=middle;resizable=0;points=[];" vertex="1" connectable="0" parent="6pqvd1AzHX-6ogDIh0My-343">
          <mxGeometry x="-0.0886" y="-1" relative="1" as="geometry">
            <mxPoint as="offset" />
          </mxGeometry>
        </mxCell>
        <mxCell id="6pqvd1AzHX-6ogDIh0My-351" value="Internet" style="verticalAlign=top;align=left;spacingTop=8;spacingLeft=2;spacingRight=12;shape=cube;size=10;direction=south;fontStyle=4;html=1;whiteSpace=wrap;" vertex="1" parent="6pqvd1AzHX-6ogDIh0My-284">
          <mxGeometry x="400" y="110" width="320" height="160" as="geometry" />
        </mxCell>
        <mxCell id="6pqvd1AzHX-6ogDIh0My-352" value="Downloadble data from opensourses" style="rounded=0;whiteSpace=wrap;html=1;" vertex="1" parent="6pqvd1AzHX-6ogDIh0My-284">
          <mxGeometry x="510" y="152.5" width="150" height="75" as="geometry" />
        </mxCell>
        <mxCell id="6pqvd1AzHX-6ogDIh0My-357" style="edgeStyle=orthogonalEdgeStyle;rounded=0;orthogonalLoop=1;jettySize=auto;html=1;entryX=0;entryY=0.5;entryDx=0;entryDy=0;exitX=0;exitY=0;exitDx=0;exitDy=180;exitPerimeter=0;" edge="1" parent="6pqvd1AzHX-6ogDIh0My-284" source="6pqvd1AzHX-6ogDIh0My-320" target="6pqvd1AzHX-6ogDIh0My-352">
          <mxGeometry relative="1" as="geometry">
            <Array as="points">
              <mxPoint x="200" y="330" />
              <mxPoint x="200" y="190" />
            </Array>
          </mxGeometry>
        </mxCell>
        <mxCell id="6pqvd1AzHX-6ogDIh0My-358" value="Get Access&amp;nbsp;" style="edgeLabel;html=1;align=center;verticalAlign=middle;resizable=0;points=[];" vertex="1" connectable="0" parent="6pqvd1AzHX-6ogDIh0My-357">
          <mxGeometry x="-0.4979" y="-1" relative="1" as="geometry">
            <mxPoint as="offset" />
          </mxGeometry>
        </mxCell>
        <mxCell id="6pqvd1AzHX-6ogDIh0My-359" style="edgeStyle=orthogonalEdgeStyle;rounded=0;orthogonalLoop=1;jettySize=auto;html=1;entryX=1;entryY=0.5;entryDx=0;entryDy=0;exitX=0;exitY=0.75;exitDx=0;exitDy=0;" edge="1" parent="6pqvd1AzHX-6ogDIh0My-284" source="6pqvd1AzHX-6ogDIh0My-352" target="6pqvd1AzHX-6ogDIh0My-335">
          <mxGeometry relative="1" as="geometry">
            <Array as="points">
              <mxPoint x="460" y="209" />
              <mxPoint x="460" y="300" />
              <mxPoint x="210" y="300" />
              <mxPoint x="210" y="565" />
            </Array>
          </mxGeometry>
        </mxCell>
        <mxCell id="6pqvd1AzHX-6ogDIh0My-360" value="Download from internet" style="edgeLabel;html=1;align=center;verticalAlign=middle;resizable=0;points=[];" vertex="1" connectable="0" parent="6pqvd1AzHX-6ogDIh0My-359">
          <mxGeometry x="0.1103" y="-2" relative="1" as="geometry">
            <mxPoint x="110" as="offset" />
          </mxGeometry>
        </mxCell>
        <mxCell id="6pqvd1AzHX-6ogDIh0My-361" value="Potential Entity Relationship diagram" style="swimlane;whiteSpace=wrap;html=1;" vertex="1" parent="1">
          <mxGeometry x="3460" y="980" width="1360" height="1200" as="geometry" />
        </mxCell>
        <mxCell id="6pqvd1AzHX-6ogDIh0My-362" value="Source" style="swimlane;fontStyle=0;childLayout=stackLayout;horizontal=1;startSize=30;horizontalStack=0;resizeParent=1;resizeParentMax=0;resizeLast=0;collapsible=1;marginBottom=0;whiteSpace=wrap;html=1;" vertex="1" parent="6pqvd1AzHX-6ogDIh0My-361">
          <mxGeometry x="289" y="170" width="210" height="180" as="geometry" />
        </mxCell>
        <mxCell id="6pqvd1AzHX-6ogDIh0My-363" value="SourceID: UUID &amp;lt;&amp;lt;PK&amp;gt;&amp;gt;" style="text;strokeColor=none;fillColor=none;align=left;verticalAlign=middle;spacingLeft=4;spacingRight=4;overflow=hidden;points=[[0,0.5],[1,0.5]];portConstraint=eastwest;rotatable=0;whiteSpace=wrap;html=1;" vertex="1" parent="6pqvd1AzHX-6ogDIh0My-362">
          <mxGeometry y="30" width="210" height="30" as="geometry" />
        </mxCell>
        <mxCell id="6pqvd1AzHX-6ogDIh0My-364" value="&lt;div&gt;name: VARCHAR&lt;/div&gt;" style="text;strokeColor=none;fillColor=none;align=left;verticalAlign=middle;spacingLeft=4;spacingRight=4;overflow=hidden;points=[[0,0.5],[1,0.5]];portConstraint=eastwest;rotatable=0;whiteSpace=wrap;html=1;" vertex="1" parent="6pqvd1AzHX-6ogDIh0My-362">
          <mxGeometry y="60" width="210" height="30" as="geometry" />
        </mxCell>
        <mxCell id="6pqvd1AzHX-6ogDIh0My-365" value="provider: VARCHAR" style="text;strokeColor=none;fillColor=none;align=left;verticalAlign=middle;spacingLeft=4;spacingRight=4;overflow=hidden;points=[[0,0.5],[1,0.5]];portConstraint=eastwest;rotatable=0;whiteSpace=wrap;html=1;" vertex="1" parent="6pqvd1AzHX-6ogDIh0My-362">
          <mxGeometry y="90" width="210" height="30" as="geometry" />
        </mxCell>
        <mxCell id="6pqvd1AzHX-6ogDIh0My-391" value="api_url: VARCHAR" style="text;strokeColor=none;fillColor=none;align=left;verticalAlign=middle;spacingLeft=4;spacingRight=4;overflow=hidden;points=[[0,0.5],[1,0.5]];portConstraint=eastwest;rotatable=0;whiteSpace=wrap;html=1;" vertex="1" parent="6pqvd1AzHX-6ogDIh0My-362">
          <mxGeometry y="120" width="210" height="30" as="geometry" />
        </mxCell>
        <mxCell id="6pqvd1AzHX-6ogDIh0My-390" value="file_format: VARCHAR" style="text;strokeColor=none;fillColor=none;align=left;verticalAlign=middle;spacingLeft=4;spacingRight=4;overflow=hidden;points=[[0,0.5],[1,0.5]];portConstraint=eastwest;rotatable=0;whiteSpace=wrap;html=1;" vertex="1" parent="6pqvd1AzHX-6ogDIh0My-362">
          <mxGeometry y="150" width="210" height="30" as="geometry" />
        </mxCell>
        <mxCell id="6pqvd1AzHX-6ogDIh0My-417" style="edgeStyle=orthogonalEdgeStyle;rounded=0;orthogonalLoop=1;jettySize=auto;html=1;entryX=1;entryY=0.5;entryDx=0;entryDy=0;endArrow=ERoneToMany;endFill=0;startArrow=ERmandOne;startFill=0;" edge="1" parent="6pqvd1AzHX-6ogDIh0My-361" source="6pqvd1AzHX-6ogDIh0My-366" target="6pqvd1AzHX-6ogDIh0My-400">
          <mxGeometry relative="1" as="geometry">
            <Array as="points">
              <mxPoint x="720" y="895" />
            </Array>
          </mxGeometry>
        </mxCell>
        <mxCell id="6pqvd1AzHX-6ogDIh0My-418" value="Taken at" style="edgeLabel;html=1;align=center;verticalAlign=middle;resizable=0;points=[];" vertex="1" connectable="0" parent="6pqvd1AzHX-6ogDIh0My-417">
          <mxGeometry x="-0.2194" y="1" relative="1" as="geometry">
            <mxPoint as="offset" />
          </mxGeometry>
        </mxCell>
        <mxCell id="6pqvd1AzHX-6ogDIh0My-366" value="Location" style="swimlane;fontStyle=0;childLayout=stackLayout;horizontal=1;startSize=30;horizontalStack=0;resizeParent=1;resizeParentMax=0;resizeLast=0;collapsible=1;marginBottom=0;whiteSpace=wrap;html=1;" vertex="1" parent="6pqvd1AzHX-6ogDIh0My-361">
          <mxGeometry x="600" y="170" width="180" height="210" as="geometry" />
        </mxCell>
        <mxCell id="6pqvd1AzHX-6ogDIh0My-367" value="LocationID : UUID &amp;lt;&amp;lt;PK&amp;gt;&amp;gt;" style="text;strokeColor=none;fillColor=none;align=left;verticalAlign=middle;spacingLeft=4;spacingRight=4;overflow=hidden;points=[[0,0.5],[1,0.5]];portConstraint=eastwest;rotatable=0;whiteSpace=wrap;html=1;" vertex="1" parent="6pqvd1AzHX-6ogDIh0My-366">
          <mxGeometry y="30" width="180" height="30" as="geometry" />
        </mxCell>
        <mxCell id="6pqvd1AzHX-6ogDIh0My-368" value="city: VARCHAR" style="text;strokeColor=none;fillColor=none;align=left;verticalAlign=middle;spacingLeft=4;spacingRight=4;overflow=hidden;points=[[0,0.5],[1,0.5]];portConstraint=eastwest;rotatable=0;whiteSpace=wrap;html=1;" vertex="1" parent="6pqvd1AzHX-6ogDIh0My-366">
          <mxGeometry y="60" width="180" height="30" as="geometry" />
        </mxCell>
        <mxCell id="6pqvd1AzHX-6ogDIh0My-369" value="country: VARCHAR" style="text;strokeColor=none;fillColor=none;align=left;verticalAlign=middle;spacingLeft=4;spacingRight=4;overflow=hidden;points=[[0,0.5],[1,0.5]];portConstraint=eastwest;rotatable=0;whiteSpace=wrap;html=1;" vertex="1" parent="6pqvd1AzHX-6ogDIh0My-366">
          <mxGeometry y="90" width="180" height="30" as="geometry" />
        </mxCell>
        <mxCell id="6pqvd1AzHX-6ogDIh0My-392" value="latitude: DECIMAL" style="text;strokeColor=none;fillColor=none;align=left;verticalAlign=middle;spacingLeft=4;spacingRight=4;overflow=hidden;points=[[0,0.5],[1,0.5]];portConstraint=eastwest;rotatable=0;whiteSpace=wrap;html=1;" vertex="1" parent="6pqvd1AzHX-6ogDIh0My-366">
          <mxGeometry y="120" width="180" height="30" as="geometry" />
        </mxCell>
        <mxCell id="6pqvd1AzHX-6ogDIh0My-393" value="longitude: DECIMAL" style="text;strokeColor=none;fillColor=none;align=left;verticalAlign=middle;spacingLeft=4;spacingRight=4;overflow=hidden;points=[[0,0.5],[1,0.5]];portConstraint=eastwest;rotatable=0;whiteSpace=wrap;html=1;" vertex="1" parent="6pqvd1AzHX-6ogDIh0My-366">
          <mxGeometry y="150" width="180" height="30" as="geometry" />
        </mxCell>
        <mxCell id="6pqvd1AzHX-6ogDIh0My-394" value="description: TEXT" style="text;strokeColor=none;fillColor=none;align=left;verticalAlign=middle;spacingLeft=4;spacingRight=4;overflow=hidden;points=[[0,0.5],[1,0.5]];portConstraint=eastwest;rotatable=0;whiteSpace=wrap;html=1;" vertex="1" parent="6pqvd1AzHX-6ogDIh0My-366">
          <mxGeometry y="180" width="180" height="30" as="geometry" />
        </mxCell>
        <mxCell id="6pqvd1AzHX-6ogDIh0My-370" value="User" style="swimlane;fontStyle=0;childLayout=stackLayout;horizontal=1;startSize=30;horizontalStack=0;resizeParent=1;resizeParentMax=0;resizeLast=0;collapsible=1;marginBottom=0;whiteSpace=wrap;html=1;" vertex="1" parent="6pqvd1AzHX-6ogDIh0My-361">
          <mxGeometry x="840" y="225" width="180" height="120" as="geometry" />
        </mxCell>
        <mxCell id="6pqvd1AzHX-6ogDIh0My-371" value="UserID: UUID &amp;lt;&amp;lt;PK&amp;gt;&amp;gt;" style="text;strokeColor=none;fillColor=none;align=left;verticalAlign=middle;spacingLeft=4;spacingRight=4;overflow=hidden;points=[[0,0.5],[1,0.5]];portConstraint=eastwest;rotatable=0;whiteSpace=wrap;html=1;" vertex="1" parent="6pqvd1AzHX-6ogDIh0My-370">
          <mxGeometry y="30" width="180" height="30" as="geometry" />
        </mxCell>
        <mxCell id="6pqvd1AzHX-6ogDIh0My-372" value="name: VARCHAR" style="text;strokeColor=none;fillColor=none;align=left;verticalAlign=middle;spacingLeft=4;spacingRight=4;overflow=hidden;points=[[0,0.5],[1,0.5]];portConstraint=eastwest;rotatable=0;whiteSpace=wrap;html=1;" vertex="1" parent="6pqvd1AzHX-6ogDIh0My-370">
          <mxGeometry y="60" width="180" height="30" as="geometry" />
        </mxCell>
        <mxCell id="6pqvd1AzHX-6ogDIh0My-373" value="role: VARCHAR" style="text;strokeColor=none;fillColor=none;align=left;verticalAlign=middle;spacingLeft=4;spacingRight=4;overflow=hidden;points=[[0,0.5],[1,0.5]];portConstraint=eastwest;rotatable=0;whiteSpace=wrap;html=1;" vertex="1" parent="6pqvd1AzHX-6ogDIh0My-370">
          <mxGeometry y="90" width="180" height="30" as="geometry" />
        </mxCell>
        <mxCell id="6pqvd1AzHX-6ogDIh0My-374" value="Sensor" style="swimlane;fontStyle=0;childLayout=stackLayout;horizontal=1;startSize=30;horizontalStack=0;resizeParent=1;resizeParentMax=0;resizeLast=0;collapsible=1;marginBottom=0;whiteSpace=wrap;html=1;" vertex="1" parent="6pqvd1AzHX-6ogDIh0My-361">
          <mxGeometry x="500" y="430" width="180" height="210" as="geometry" />
        </mxCell>
        <mxCell id="6pqvd1AzHX-6ogDIh0My-375" value="SensorID: UUID &amp;lt;&amp;lt;PK&amp;gt;&amp;gt;" style="text;strokeColor=none;fillColor=none;align=left;verticalAlign=middle;spacingLeft=4;spacingRight=4;overflow=hidden;points=[[0,0.5],[1,0.5]];portConstraint=eastwest;rotatable=0;whiteSpace=wrap;html=1;" vertex="1" parent="6pqvd1AzHX-6ogDIh0My-374">
          <mxGeometry y="30" width="180" height="30" as="geometry" />
        </mxCell>
        <mxCell id="6pqvd1AzHX-6ogDIh0My-376" value="model: VARCHAR" style="text;strokeColor=none;fillColor=none;align=left;verticalAlign=middle;spacingLeft=4;spacingRight=4;overflow=hidden;points=[[0,0.5],[1,0.5]];portConstraint=eastwest;rotatable=0;whiteSpace=wrap;html=1;" vertex="1" parent="6pqvd1AzHX-6ogDIh0My-374">
          <mxGeometry y="60" width="180" height="30" as="geometry" />
        </mxCell>
        <mxCell id="6pqvd1AzHX-6ogDIh0My-377" value="type: VARCHAR" style="text;strokeColor=none;fillColor=none;align=left;verticalAlign=middle;spacingLeft=4;spacingRight=4;overflow=hidden;points=[[0,0.5],[1,0.5]];portConstraint=eastwest;rotatable=0;whiteSpace=wrap;html=1;" vertex="1" parent="6pqvd1AzHX-6ogDIh0My-374">
          <mxGeometry y="90" width="180" height="30" as="geometry" />
        </mxCell>
        <mxCell id="6pqvd1AzHX-6ogDIh0My-395" value="description: TEXT" style="text;strokeColor=none;fillColor=none;align=left;verticalAlign=middle;spacingLeft=4;spacingRight=4;overflow=hidden;points=[[0,0.5],[1,0.5]];portConstraint=eastwest;rotatable=0;whiteSpace=wrap;html=1;" vertex="1" parent="6pqvd1AzHX-6ogDIh0My-374">
          <mxGeometry y="120" width="180" height="30" as="geometry" />
        </mxCell>
        <mxCell id="6pqvd1AzHX-6ogDIh0My-396" value="LocationID: UUID &amp;lt;&amp;lt;FK&amp;gt;&amp;gt;" style="text;strokeColor=none;fillColor=none;align=left;verticalAlign=middle;spacingLeft=4;spacingRight=4;overflow=hidden;points=[[0,0.5],[1,0.5]];portConstraint=eastwest;rotatable=0;whiteSpace=wrap;html=1;" vertex="1" parent="6pqvd1AzHX-6ogDIh0My-374">
          <mxGeometry y="150" width="180" height="30" as="geometry" />
        </mxCell>
        <mxCell id="6pqvd1AzHX-6ogDIh0My-397" value="SourceID: UUID &amp;lt;&amp;lt;FK&amp;gt;&amp;gt;" style="text;strokeColor=none;fillColor=none;align=left;verticalAlign=middle;spacingLeft=4;spacingRight=4;overflow=hidden;points=[[0,0.5],[1,0.5]];portConstraint=eastwest;rotatable=0;whiteSpace=wrap;html=1;" vertex="1" parent="6pqvd1AzHX-6ogDIh0My-374">
          <mxGeometry y="180" width="180" height="30" as="geometry" />
        </mxCell>
        <mxCell id="6pqvd1AzHX-6ogDIh0My-378" value="Report" style="swimlane;fontStyle=0;childLayout=stackLayout;horizontal=1;startSize=30;horizontalStack=0;resizeParent=1;resizeParentMax=0;resizeLast=0;collapsible=1;marginBottom=0;whiteSpace=wrap;html=1;" vertex="1" parent="6pqvd1AzHX-6ogDIh0My-361">
          <mxGeometry x="840" y="430" width="190" height="150" as="geometry" />
        </mxCell>
        <mxCell id="6pqvd1AzHX-6ogDIh0My-379" value="ReportID: BIGSERIAL &amp;lt;&amp;lt;PK&amp;gt;&amp;gt;" style="text;strokeColor=none;fillColor=none;align=left;verticalAlign=middle;spacingLeft=4;spacingRight=4;overflow=hidden;points=[[0,0.5],[1,0.5]];portConstraint=eastwest;rotatable=0;whiteSpace=wrap;html=1;" vertex="1" parent="6pqvd1AzHX-6ogDIh0My-378">
          <mxGeometry y="30" width="190" height="30" as="geometry" />
        </mxCell>
        <mxCell id="6pqvd1AzHX-6ogDIh0My-380" value="generated_on: TIMESTAMP" style="text;strokeColor=none;fillColor=none;align=left;verticalAlign=middle;spacingLeft=4;spacingRight=4;overflow=hidden;points=[[0,0.5],[1,0.5]];portConstraint=eastwest;rotatable=0;whiteSpace=wrap;html=1;" vertex="1" parent="6pqvd1AzHX-6ogDIh0My-378">
          <mxGeometry y="60" width="190" height="30" as="geometry" />
        </mxCell>
        <mxCell id="6pqvd1AzHX-6ogDIh0My-381" value="format: VARCHAR" style="text;strokeColor=none;fillColor=none;align=left;verticalAlign=middle;spacingLeft=4;spacingRight=4;overflow=hidden;points=[[0,0.5],[1,0.5]];portConstraint=eastwest;rotatable=0;whiteSpace=wrap;html=1;" vertex="1" parent="6pqvd1AzHX-6ogDIh0My-378">
          <mxGeometry y="90" width="190" height="30" as="geometry" />
        </mxCell>
        <mxCell id="6pqvd1AzHX-6ogDIh0My-401" value="UserID: UUID &amp;lt;&amp;lt;FK&amp;gt;&amp;gt;" style="text;strokeColor=none;fillColor=none;align=left;verticalAlign=middle;spacingLeft=4;spacingRight=4;overflow=hidden;points=[[0,0.5],[1,0.5]];portConstraint=eastwest;rotatable=0;whiteSpace=wrap;html=1;" vertex="1" parent="6pqvd1AzHX-6ogDIh0My-378">
          <mxGeometry y="120" width="190" height="30" as="geometry" />
        </mxCell>
        <mxCell id="6pqvd1AzHX-6ogDIh0My-412" style="edgeStyle=orthogonalEdgeStyle;rounded=0;orthogonalLoop=1;jettySize=auto;html=1;entryX=0;entryY=0.5;entryDx=0;entryDy=0;endArrow=ERoneToMany;endFill=0;startArrow=ERmandOne;startFill=0;" edge="1" parent="6pqvd1AzHX-6ogDIh0My-361" source="6pqvd1AzHX-6ogDIh0My-382" target="6pqvd1AzHX-6ogDIh0My-400">
          <mxGeometry relative="1" as="geometry" />
        </mxCell>
        <mxCell id="6pqvd1AzHX-6ogDIh0My-413" value="Measured in" style="edgeLabel;html=1;align=center;verticalAlign=middle;resizable=0;points=[];" vertex="1" connectable="0" parent="6pqvd1AzHX-6ogDIh0My-412">
          <mxGeometry x="-0.4706" y="2" relative="1" as="geometry">
            <mxPoint as="offset" />
          </mxGeometry>
        </mxCell>
        <mxCell id="6pqvd1AzHX-6ogDIh0My-382" value="Parameter" style="swimlane;fontStyle=0;childLayout=stackLayout;horizontal=1;startSize=30;horizontalStack=0;resizeParent=1;resizeParentMax=0;resizeLast=0;collapsible=1;marginBottom=0;whiteSpace=wrap;html=1;" vertex="1" parent="6pqvd1AzHX-6ogDIh0My-361">
          <mxGeometry x="220" y="415" width="190" height="150" as="geometry" />
        </mxCell>
        <mxCell id="6pqvd1AzHX-6ogDIh0My-383" value="ParameterID: UUID &amp;lt;&amp;lt;PK&amp;gt;&amp;gt;" style="text;strokeColor=none;fillColor=none;align=left;verticalAlign=middle;spacingLeft=4;spacingRight=4;overflow=hidden;points=[[0,0.5],[1,0.5]];portConstraint=eastwest;rotatable=0;whiteSpace=wrap;html=1;" vertex="1" parent="6pqvd1AzHX-6ogDIh0My-382">
          <mxGeometry y="30" width="190" height="30" as="geometry" />
        </mxCell>
        <mxCell id="6pqvd1AzHX-6ogDIh0My-384" value="name: VARCHAR" style="text;strokeColor=none;fillColor=none;align=left;verticalAlign=middle;spacingLeft=4;spacingRight=4;overflow=hidden;points=[[0,0.5],[1,0.5]];portConstraint=eastwest;rotatable=0;whiteSpace=wrap;html=1;" vertex="1" parent="6pqvd1AzHX-6ogDIh0My-382">
          <mxGeometry y="60" width="190" height="30" as="geometry" />
        </mxCell>
        <mxCell id="6pqvd1AzHX-6ogDIh0My-385" value="unit: VARCHAR" style="text;strokeColor=none;fillColor=none;align=left;verticalAlign=middle;spacingLeft=4;spacingRight=4;overflow=hidden;points=[[0,0.5],[1,0.5]];portConstraint=eastwest;rotatable=0;whiteSpace=wrap;html=1;" vertex="1" parent="6pqvd1AzHX-6ogDIh0My-382">
          <mxGeometry y="90" width="190" height="30" as="geometry" />
        </mxCell>
        <mxCell id="6pqvd1AzHX-6ogDIh0My-402" value="category: VARCHAR" style="text;strokeColor=none;fillColor=none;align=left;verticalAlign=middle;spacingLeft=4;spacingRight=4;overflow=hidden;points=[[0,0.5],[1,0.5]];portConstraint=eastwest;rotatable=0;whiteSpace=wrap;html=1;" vertex="1" parent="6pqvd1AzHX-6ogDIh0My-382">
          <mxGeometry y="120" width="190" height="30" as="geometry" />
        </mxCell>
        <mxCell id="6pqvd1AzHX-6ogDIh0My-386" value="Measurment" style="swimlane;fontStyle=0;childLayout=stackLayout;horizontal=1;startSize=30;horizontalStack=0;resizeParent=1;resizeParentMax=0;resizeLast=0;collapsible=1;marginBottom=0;whiteSpace=wrap;html=1;" vertex="1" parent="6pqvd1AzHX-6ogDIh0My-361">
          <mxGeometry x="440" y="760" width="260" height="210" as="geometry" />
        </mxCell>
        <mxCell id="6pqvd1AzHX-6ogDIh0My-387" value="MeasurementID: BIGSERIAL &amp;lt;&amp;lt;PK&amp;gt;&amp;gt;" style="text;strokeColor=none;fillColor=none;align=left;verticalAlign=middle;spacingLeft=4;spacingRight=4;overflow=hidden;points=[[0,0.5],[1,0.5]];portConstraint=eastwest;rotatable=0;whiteSpace=wrap;html=1;" vertex="1" parent="6pqvd1AzHX-6ogDIh0My-386">
          <mxGeometry y="30" width="260" height="30" as="geometry" />
        </mxCell>
        <mxCell id="6pqvd1AzHX-6ogDIh0My-388" value="timestamp: TIMESTAMP" style="text;strokeColor=none;fillColor=none;align=left;verticalAlign=middle;spacingLeft=4;spacingRight=4;overflow=hidden;points=[[0,0.5],[1,0.5]];portConstraint=eastwest;rotatable=0;whiteSpace=wrap;html=1;" vertex="1" parent="6pqvd1AzHX-6ogDIh0My-386">
          <mxGeometry y="60" width="260" height="30" as="geometry" />
        </mxCell>
        <mxCell id="6pqvd1AzHX-6ogDIh0My-389" value="value: DOUBLE" style="text;strokeColor=none;fillColor=none;align=left;verticalAlign=middle;spacingLeft=4;spacingRight=4;overflow=hidden;points=[[0,0.5],[1,0.5]];portConstraint=eastwest;rotatable=0;whiteSpace=wrap;html=1;" vertex="1" parent="6pqvd1AzHX-6ogDIh0My-386">
          <mxGeometry y="90" width="260" height="30" as="geometry" />
        </mxCell>
        <mxCell id="6pqvd1AzHX-6ogDIh0My-400" value="SensorID: UUID &amp;lt;&amp;lt;FK&amp;gt;&amp;gt;" style="text;strokeColor=none;fillColor=none;align=left;verticalAlign=middle;spacingLeft=4;spacingRight=4;overflow=hidden;points=[[0,0.5],[1,0.5]];portConstraint=eastwest;rotatable=0;whiteSpace=wrap;html=1;" vertex="1" parent="6pqvd1AzHX-6ogDIh0My-386">
          <mxGeometry y="120" width="260" height="30" as="geometry" />
        </mxCell>
        <mxCell id="6pqvd1AzHX-6ogDIh0My-399" value="ParameterID: UUID &amp;lt;&amp;lt;FK&amp;gt;&amp;gt;" style="text;strokeColor=none;fillColor=none;align=left;verticalAlign=middle;spacingLeft=4;spacingRight=4;overflow=hidden;points=[[0,0.5],[1,0.5]];portConstraint=eastwest;rotatable=0;whiteSpace=wrap;html=1;" vertex="1" parent="6pqvd1AzHX-6ogDIh0My-386">
          <mxGeometry y="150" width="260" height="30" as="geometry" />
        </mxCell>
        <mxCell id="6pqvd1AzHX-6ogDIh0My-398" value="LocationID: UUID &amp;lt;&amp;lt;FK&amp;gt;&amp;gt;" style="text;strokeColor=none;fillColor=none;align=left;verticalAlign=middle;spacingLeft=4;spacingRight=4;overflow=hidden;points=[[0,0.5],[1,0.5]];portConstraint=eastwest;rotatable=0;whiteSpace=wrap;html=1;" vertex="1" parent="6pqvd1AzHX-6ogDIh0My-386">
          <mxGeometry y="180" width="260" height="30" as="geometry" />
        </mxCell>
        <mxCell id="6pqvd1AzHX-6ogDIh0My-406" style="edgeStyle=orthogonalEdgeStyle;rounded=0;orthogonalLoop=1;jettySize=auto;html=1;entryX=0.119;entryY=-0.003;entryDx=0;entryDy=0;entryPerimeter=0;endArrow=ERoneToMany;endFill=0;startArrow=ERmandOne;startFill=0;" edge="1" parent="6pqvd1AzHX-6ogDIh0My-361" source="6pqvd1AzHX-6ogDIh0My-362" target="6pqvd1AzHX-6ogDIh0My-374">
          <mxGeometry relative="1" as="geometry" />
        </mxCell>
        <mxCell id="6pqvd1AzHX-6ogDIh0My-407" value="Provides" style="edgeLabel;html=1;align=center;verticalAlign=middle;resizable=0;points=[];" vertex="1" connectable="0" parent="6pqvd1AzHX-6ogDIh0My-406">
          <mxGeometry x="0.4167" y="-1" relative="1" as="geometry">
            <mxPoint as="offset" />
          </mxGeometry>
        </mxCell>
        <mxCell id="6pqvd1AzHX-6ogDIh0My-408" style="edgeStyle=orthogonalEdgeStyle;rounded=0;orthogonalLoop=1;jettySize=auto;html=1;entryX=0.782;entryY=-0.003;entryDx=0;entryDy=0;entryPerimeter=0;exitX=0.498;exitY=1.011;exitDx=0;exitDy=0;exitPerimeter=0;endArrow=ERoneToMany;endFill=0;startArrow=ERmandOne;startFill=0;" edge="1" parent="6pqvd1AzHX-6ogDIh0My-361" source="6pqvd1AzHX-6ogDIh0My-394" target="6pqvd1AzHX-6ogDIh0My-374">
          <mxGeometry relative="1" as="geometry" />
        </mxCell>
        <mxCell id="6pqvd1AzHX-6ogDIh0My-409" value="Hosts" style="edgeLabel;html=1;align=center;verticalAlign=middle;resizable=0;points=[];" vertex="1" connectable="0" parent="6pqvd1AzHX-6ogDIh0My-408">
          <mxGeometry x="-0.059" y="1" relative="1" as="geometry">
            <mxPoint as="offset" />
          </mxGeometry>
        </mxCell>
        <mxCell id="6pqvd1AzHX-6ogDIh0My-410" style="edgeStyle=orthogonalEdgeStyle;rounded=0;orthogonalLoop=1;jettySize=auto;html=1;entryX=0.479;entryY=-0.007;entryDx=0;entryDy=0;entryPerimeter=0;endArrow=ERoneToMany;endFill=0;startArrow=ERmandOne;startFill=0;" edge="1" parent="6pqvd1AzHX-6ogDIh0My-361" source="6pqvd1AzHX-6ogDIh0My-370" target="6pqvd1AzHX-6ogDIh0My-378">
          <mxGeometry relative="1" as="geometry" />
        </mxCell>
        <mxCell id="6pqvd1AzHX-6ogDIh0My-411" value="Creates" style="edgeLabel;html=1;align=center;verticalAlign=middle;resizable=0;points=[];" vertex="1" connectable="0" parent="6pqvd1AzHX-6ogDIh0My-410">
          <mxGeometry x="-0.0568" y="3" relative="1" as="geometry">
            <mxPoint y="-1" as="offset" />
          </mxGeometry>
        </mxCell>
        <mxCell id="6pqvd1AzHX-6ogDIh0My-415" style="edgeStyle=orthogonalEdgeStyle;rounded=0;orthogonalLoop=1;jettySize=auto;html=1;entryX=0.578;entryY=-0.005;entryDx=0;entryDy=0;entryPerimeter=0;endArrow=ERoneToMany;endFill=0;startArrow=ERmandOne;startFill=0;" edge="1" parent="6pqvd1AzHX-6ogDIh0My-361" source="6pqvd1AzHX-6ogDIh0My-374" target="6pqvd1AzHX-6ogDIh0My-386">
          <mxGeometry relative="1" as="geometry" />
        </mxCell>
        <mxCell id="6pqvd1AzHX-6ogDIh0My-416" value="Records" style="edgeLabel;html=1;align=center;verticalAlign=middle;resizable=0;points=[];" vertex="1" connectable="0" parent="6pqvd1AzHX-6ogDIh0My-415">
          <mxGeometry x="-0.2075" relative="1" as="geometry">
            <mxPoint as="offset" />
          </mxGeometry>
        </mxCell>
      </root>
    </mxGraphModel>
  </diagram>
</mxfile>
